<?xml version="1.0" standalone="no"?>
<svg xmlns="http://www.w3.org/2000/svg" version="1.1" width="246" height="246">
	<!-- Created with https://api.qrserver.com (QR Code API, see goQR.me/api for information) -->
	<title>QR Code</title>
	<desc>{&quot;bankCode&quot;:&quot;GLBBNPKA&quot;,&quot;BANKNAME&quot;:&quot;Global IME Bank Limited&quot;,&quot;accountName&quot;:&quot;SUBARNA BHANDARI&quot;,&quot;accountNumber&quot;:&quot;04907010004601&quot;}</desc>
	<rect style="fill:rgb(255, 255, 255);fill-opacity:1" x="0" y="0" width="246" height="246" />
	<g id="elements">
		<path style="fill:rgb(0, 0, 0)" d="M 0,0 l 6,0 0,6 -6,0 z M 6,0 l 6,0 0,6 -6,0 z M 12,0 l 6,0 0,6 -6,0 z M 18,0 l 6,0 0,6 -6,0 z M 24,0 l 6,0 0,6 -6,0 z M 30,0 l 6,0 0,6 -6,0 z M 36,0 l 6,0 0,6 -6,0 z M 72,0 l 6,0 0,6 -6,0 z M 90,0 l 6,0 0,6 -6,0 z M 96,0 l 6,0 0,6 -6,0 z M 108,0 l 6,0 0,6 -6,0 z M 120,0 l 6,0 0,6 -6,0 z M 126,0 l 6,0 0,6 -6,0 z M 132,0 l 6,0 0,6 -6,0 z M 144,0 l 6,0 0,6 -6,0 z M 150,0 l 6,0 0,6 -6,0 z M 156,0 l 6,0 0,6 -6,0 z M 162,0 l 6,0 0,6 -6,0 z M 204,0 l 6,0 0,6 -6,0 z M 210,0 l 6,0 0,6 -6,0 z M 216,0 l 6,0 0,6 -6,0 z M 222,0 l 6,0 0,6 -6,0 z M 228,0 l 6,0 0,6 -6,0 z M 234,0 l 6,0 0,6 -6,0 z M 240,0 l 6,0 0,6 -6,0 z M 0,6 l 6,0 0,6 -6,0 z M 36,6 l 6,0 0,6 -6,0 z M 48,6 l 6,0 0,6 -6,0 z M 60,6 l 6,0 0,6 -6,0 z M 66,6 l 6,0 0,6 -6,0 z M 90,6 l 6,0 0,6 -6,0 z M 96,6 l 6,0 0,6 -6,0 z M 102,6 l 6,0 0,6 -6,0 z M 108,6 l 6,0 0,6 -6,0 z M 120,6 l 6,0 0,6 -6,0 z M 150,6 l 6,0 0,6 -6,0 z M 162,6 l 6,0 0,6 -6,0 z M 180,6 l 6,0 0,6 -6,0 z M 186,6 l 6,0 0,6 -6,0 z M 204,6 l 6,0 0,6 -6,0 z M 240,6 l 6,0 0,6 -6,0 z M 0,12 l 6,0 0,6 -6,0 z M 12,12 l 6,0 0,6 -6,0 z M 18,12 l 6,0 0,6 -6,0 z M 24,12 l 6,0 0,6 -6,0 z M 36,12 l 6,0 0,6 -6,0 z M 66,12 l 6,0 0,6 -6,0 z M 72,12 l 6,0 0,6 -6,0 z M 84,12 l 6,0 0,6 -6,0 z M 96,12 l 6,0 0,6 -6,0 z M 108,12 l 6,0 0,6 -6,0 z M 114,12 l 6,0 0,6 -6,0 z M 120,12 l 6,0 0,6 -6,0 z M 126,12 l 6,0 0,6 -6,0 z M 132,12 l 6,0 0,6 -6,0 z M 138,12 l 6,0 0,6 -6,0 z M 144,12 l 6,0 0,6 -6,0 z M 156,12 l 6,0 0,6 -6,0 z M 162,12 l 6,0 0,6 -6,0 z M 168,12 l 6,0 0,6 -6,0 z M 180,12 l 6,0 0,6 -6,0 z M 204,12 l 6,0 0,6 -6,0 z M 216,12 l 6,0 0,6 -6,0 z M 222,12 l 6,0 0,6 -6,0 z M 228,12 l 6,0 0,6 -6,0 z M 240,12 l 6,0 0,6 -6,0 z M 0,18 l 6,0 0,6 -6,0 z M 12,18 l 6,0 0,6 -6,0 z M 18,18 l 6,0 0,6 -6,0 z M 24,18 l 6,0 0,6 -6,0 z M 36,18 l 6,0 0,6 -6,0 z M 48,18 l 6,0 0,6 -6,0 z M 54,18 l 6,0 0,6 -6,0 z M 66,18 l 6,0 0,6 -6,0 z M 72,18 l 6,0 0,6 -6,0 z M 90,18 l 6,0 0,6 -6,0 z M 108,18 l 6,0 0,6 -6,0 z M 114,18 l 6,0 0,6 -6,0 z M 120,18 l 6,0 0,6 -6,0 z M 138,18 l 6,0 0,6 -6,0 z M 174,18 l 6,0 0,6 -6,0 z M 180,18 l 6,0 0,6 -6,0 z M 204,18 l 6,0 0,6 -6,0 z M 216,18 l 6,0 0,6 -6,0 z M 222,18 l 6,0 0,6 -6,0 z M 228,18 l 6,0 0,6 -6,0 z M 240,18 l 6,0 0,6 -6,0 z M 0,24 l 6,0 0,6 -6,0 z M 12,24 l 6,0 0,6 -6,0 z M 18,24 l 6,0 0,6 -6,0 z M 24,24 l 6,0 0,6 -6,0 z M 36,24 l 6,0 0,6 -6,0 z M 54,24 l 6,0 0,6 -6,0 z M 60,24 l 6,0 0,6 -6,0 z M 84,24 l 6,0 0,6 -6,0 z M 90,24 l 6,0 0,6 -6,0 z M 96,24 l 6,0 0,6 -6,0 z M 108,24 l 6,0 0,6 -6,0 z M 114,24 l 6,0 0,6 -6,0 z M 144,24 l 6,0 0,6 -6,0 z M 150,24 l 6,0 0,6 -6,0 z M 156,24 l 6,0 0,6 -6,0 z M 162,24 l 6,0 0,6 -6,0 z M 204,24 l 6,0 0,6 -6,0 z M 216,24 l 6,0 0,6 -6,0 z M 222,24 l 6,0 0,6 -6,0 z M 228,24 l 6,0 0,6 -6,0 z M 240,24 l 6,0 0,6 -6,0 z M 0,30 l 6,0 0,6 -6,0 z M 36,30 l 6,0 0,6 -6,0 z M 48,30 l 6,0 0,6 -6,0 z M 54,30 l 6,0 0,6 -6,0 z M 78,30 l 6,0 0,6 -6,0 z M 84,30 l 6,0 0,6 -6,0 z M 108,30 l 6,0 0,6 -6,0 z M 150,30 l 6,0 0,6 -6,0 z M 156,30 l 6,0 0,6 -6,0 z M 162,30 l 6,0 0,6 -6,0 z M 168,30 l 6,0 0,6 -6,0 z M 180,30 l 6,0 0,6 -6,0 z M 204,30 l 6,0 0,6 -6,0 z M 240,30 l 6,0 0,6 -6,0 z M 0,36 l 6,0 0,6 -6,0 z M 6,36 l 6,0 0,6 -6,0 z M 12,36 l 6,0 0,6 -6,0 z M 18,36 l 6,0 0,6 -6,0 z M 24,36 l 6,0 0,6 -6,0 z M 30,36 l 6,0 0,6 -6,0 z M 36,36 l 6,0 0,6 -6,0 z M 48,36 l 6,0 0,6 -6,0 z M 60,36 l 6,0 0,6 -6,0 z M 72,36 l 6,0 0,6 -6,0 z M 84,36 l 6,0 0,6 -6,0 z M 96,36 l 6,0 0,6 -6,0 z M 108,36 l 6,0 0,6 -6,0 z M 120,36 l 6,0 0,6 -6,0 z M 132,36 l 6,0 0,6 -6,0 z M 144,36 l 6,0 0,6 -6,0 z M 156,36 l 6,0 0,6 -6,0 z M 168,36 l 6,0 0,6 -6,0 z M 180,36 l 6,0 0,6 -6,0 z M 192,36 l 6,0 0,6 -6,0 z M 204,36 l 6,0 0,6 -6,0 z M 210,36 l 6,0 0,6 -6,0 z M 216,36 l 6,0 0,6 -6,0 z M 222,36 l 6,0 0,6 -6,0 z M 228,36 l 6,0 0,6 -6,0 z M 234,36 l 6,0 0,6 -6,0 z M 240,36 l 6,0 0,6 -6,0 z M 54,42 l 6,0 0,6 -6,0 z M 60,42 l 6,0 0,6 -6,0 z M 66,42 l 6,0 0,6 -6,0 z M 72,42 l 6,0 0,6 -6,0 z M 96,42 l 6,0 0,6 -6,0 z M 102,42 l 6,0 0,6 -6,0 z M 120,42 l 6,0 0,6 -6,0 z M 132,42 l 6,0 0,6 -6,0 z M 138,42 l 6,0 0,6 -6,0 z M 144,42 l 6,0 0,6 -6,0 z M 150,42 l 6,0 0,6 -6,0 z M 156,42 l 6,0 0,6 -6,0 z M 174,42 l 6,0 0,6 -6,0 z M 186,42 l 6,0 0,6 -6,0 z M 0,48 l 6,0 0,6 -6,0 z M 6,48 l 6,0 0,6 -6,0 z M 12,48 l 6,0 0,6 -6,0 z M 18,48 l 6,0 0,6 -6,0 z M 24,48 l 6,0 0,6 -6,0 z M 36,48 l 6,0 0,6 -6,0 z M 42,48 l 6,0 0,6 -6,0 z M 48,48 l 6,0 0,6 -6,0 z M 60,48 l 6,0 0,6 -6,0 z M 66,48 l 6,0 0,6 -6,0 z M 72,48 l 6,0 0,6 -6,0 z M 84,48 l 6,0 0,6 -6,0 z M 96,48 l 6,0 0,6 -6,0 z M 114,48 l 6,0 0,6 -6,0 z M 120,48 l 6,0 0,6 -6,0 z M 126,48 l 6,0 0,6 -6,0 z M 132,48 l 6,0 0,6 -6,0 z M 138,48 l 6,0 0,6 -6,0 z M 162,48 l 6,0 0,6 -6,0 z M 192,48 l 6,0 0,6 -6,0 z M 198,48 l 6,0 0,6 -6,0 z M 210,48 l 6,0 0,6 -6,0 z M 222,48 l 6,0 0,6 -6,0 z M 234,48 l 6,0 0,6 -6,0 z M 0,54 l 6,0 0,6 -6,0 z M 18,54 l 6,0 0,6 -6,0 z M 24,54 l 6,0 0,6 -6,0 z M 48,54 l 6,0 0,6 -6,0 z M 54,54 l 6,0 0,6 -6,0 z M 66,54 l 6,0 0,6 -6,0 z M 72,54 l 6,0 0,6 -6,0 z M 78,54 l 6,0 0,6 -6,0 z M 84,54 l 6,0 0,6 -6,0 z M 90,54 l 6,0 0,6 -6,0 z M 108,54 l 6,0 0,6 -6,0 z M 120,54 l 6,0 0,6 -6,0 z M 132,54 l 6,0 0,6 -6,0 z M 150,54 l 6,0 0,6 -6,0 z M 162,54 l 6,0 0,6 -6,0 z M 168,54 l 6,0 0,6 -6,0 z M 174,54 l 6,0 0,6 -6,0 z M 180,54 l 6,0 0,6 -6,0 z M 192,54 l 6,0 0,6 -6,0 z M 198,54 l 6,0 0,6 -6,0 z M 204,54 l 6,0 0,6 -6,0 z M 216,54 l 6,0 0,6 -6,0 z M 234,54 l 6,0 0,6 -6,0 z M 0,60 l 6,0 0,6 -6,0 z M 6,60 l 6,0 0,6 -6,0 z M 12,60 l 6,0 0,6 -6,0 z M 30,60 l 6,0 0,6 -6,0 z M 36,60 l 6,0 0,6 -6,0 z M 54,60 l 6,0 0,6 -6,0 z M 60,60 l 6,0 0,6 -6,0 z M 66,60 l 6,0 0,6 -6,0 z M 78,60 l 6,0 0,6 -6,0 z M 84,60 l 6,0 0,6 -6,0 z M 138,60 l 6,0 0,6 -6,0 z M 150,60 l 6,0 0,6 -6,0 z M 168,60 l 6,0 0,6 -6,0 z M 174,60 l 6,0 0,6 -6,0 z M 180,60 l 6,0 0,6 -6,0 z M 192,60 l 6,0 0,6 -6,0 z M 198,60 l 6,0 0,6 -6,0 z M 210,60 l 6,0 0,6 -6,0 z M 216,60 l 6,0 0,6 -6,0 z M 228,60 l 6,0 0,6 -6,0 z M 60,66 l 6,0 0,6 -6,0 z M 78,66 l 6,0 0,6 -6,0 z M 96,66 l 6,0 0,6 -6,0 z M 102,66 l 6,0 0,6 -6,0 z M 114,66 l 6,0 0,6 -6,0 z M 120,66 l 6,0 0,6 -6,0 z M 132,66 l 6,0 0,6 -6,0 z M 144,66 l 6,0 0,6 -6,0 z M 156,66 l 6,0 0,6 -6,0 z M 168,66 l 6,0 0,6 -6,0 z M 186,66 l 6,0 0,6 -6,0 z M 192,66 l 6,0 0,6 -6,0 z M 198,66 l 6,0 0,6 -6,0 z M 204,66 l 6,0 0,6 -6,0 z M 210,66 l 6,0 0,6 -6,0 z M 216,66 l 6,0 0,6 -6,0 z M 222,66 l 6,0 0,6 -6,0 z M 240,66 l 6,0 0,6 -6,0 z M 0,72 l 6,0 0,6 -6,0 z M 6,72 l 6,0 0,6 -6,0 z M 12,72 l 6,0 0,6 -6,0 z M 30,72 l 6,0 0,6 -6,0 z M 36,72 l 6,0 0,6 -6,0 z M 48,72 l 6,0 0,6 -6,0 z M 66,72 l 6,0 0,6 -6,0 z M 84,72 l 6,0 0,6 -6,0 z M 90,72 l 6,0 0,6 -6,0 z M 96,72 l 6,0 0,6 -6,0 z M 126,72 l 6,0 0,6 -6,0 z M 144,72 l 6,0 0,6 -6,0 z M 168,72 l 6,0 0,6 -6,0 z M 174,72 l 6,0 0,6 -6,0 z M 180,72 l 6,0 0,6 -6,0 z M 186,72 l 6,0 0,6 -6,0 z M 192,72 l 6,0 0,6 -6,0 z M 198,72 l 6,0 0,6 -6,0 z M 228,72 l 6,0 0,6 -6,0 z M 6,78 l 6,0 0,6 -6,0 z M 18,78 l 6,0 0,6 -6,0 z M 24,78 l 6,0 0,6 -6,0 z M 30,78 l 6,0 0,6 -6,0 z M 42,78 l 6,0 0,6 -6,0 z M 60,78 l 6,0 0,6 -6,0 z M 72,78 l 6,0 0,6 -6,0 z M 90,78 l 6,0 0,6 -6,0 z M 108,78 l 6,0 0,6 -6,0 z M 132,78 l 6,0 0,6 -6,0 z M 138,78 l 6,0 0,6 -6,0 z M 156,78 l 6,0 0,6 -6,0 z M 162,78 l 6,0 0,6 -6,0 z M 180,78 l 6,0 0,6 -6,0 z M 186,78 l 6,0 0,6 -6,0 z M 198,78 l 6,0 0,6 -6,0 z M 216,78 l 6,0 0,6 -6,0 z M 222,78 l 6,0 0,6 -6,0 z M 234,78 l 6,0 0,6 -6,0 z M 240,78 l 6,0 0,6 -6,0 z M 0,84 l 6,0 0,6 -6,0 z M 24,84 l 6,0 0,6 -6,0 z M 36,84 l 6,0 0,6 -6,0 z M 42,84 l 6,0 0,6 -6,0 z M 78,84 l 6,0 0,6 -6,0 z M 84,84 l 6,0 0,6 -6,0 z M 90,84 l 6,0 0,6 -6,0 z M 96,84 l 6,0 0,6 -6,0 z M 102,84 l 6,0 0,6 -6,0 z M 114,84 l 6,0 0,6 -6,0 z M 126,84 l 6,0 0,6 -6,0 z M 150,84 l 6,0 0,6 -6,0 z M 162,84 l 6,0 0,6 -6,0 z M 168,84 l 6,0 0,6 -6,0 z M 174,84 l 6,0 0,6 -6,0 z M 192,84 l 6,0 0,6 -6,0 z M 198,84 l 6,0 0,6 -6,0 z M 0,90 l 6,0 0,6 -6,0 z M 12,90 l 6,0 0,6 -6,0 z M 30,90 l 6,0 0,6 -6,0 z M 42,90 l 6,0 0,6 -6,0 z M 54,90 l 6,0 0,6 -6,0 z M 60,90 l 6,0 0,6 -6,0 z M 72,90 l 6,0 0,6 -6,0 z M 90,90 l 6,0 0,6 -6,0 z M 108,90 l 6,0 0,6 -6,0 z M 138,90 l 6,0 0,6 -6,0 z M 144,90 l 6,0 0,6 -6,0 z M 150,90 l 6,0 0,6 -6,0 z M 162,90 l 6,0 0,6 -6,0 z M 186,90 l 6,0 0,6 -6,0 z M 192,90 l 6,0 0,6 -6,0 z M 198,90 l 6,0 0,6 -6,0 z M 204,90 l 6,0 0,6 -6,0 z M 216,90 l 6,0 0,6 -6,0 z M 222,90 l 6,0 0,6 -6,0 z M 228,90 l 6,0 0,6 -6,0 z M 234,90 l 6,0 0,6 -6,0 z M 240,90 l 6,0 0,6 -6,0 z M 0,96 l 6,0 0,6 -6,0 z M 6,96 l 6,0 0,6 -6,0 z M 24,96 l 6,0 0,6 -6,0 z M 30,96 l 6,0 0,6 -6,0 z M 36,96 l 6,0 0,6 -6,0 z M 48,96 l 6,0 0,6 -6,0 z M 54,96 l 6,0 0,6 -6,0 z M 60,96 l 6,0 0,6 -6,0 z M 84,96 l 6,0 0,6 -6,0 z M 90,96 l 6,0 0,6 -6,0 z M 96,96 l 6,0 0,6 -6,0 z M 108,96 l 6,0 0,6 -6,0 z M 114,96 l 6,0 0,6 -6,0 z M 126,96 l 6,0 0,6 -6,0 z M 138,96 l 6,0 0,6 -6,0 z M 150,96 l 6,0 0,6 -6,0 z M 162,96 l 6,0 0,6 -6,0 z M 174,96 l 6,0 0,6 -6,0 z M 180,96 l 6,0 0,6 -6,0 z M 186,96 l 6,0 0,6 -6,0 z M 192,96 l 6,0 0,6 -6,0 z M 198,96 l 6,0 0,6 -6,0 z M 228,96 l 6,0 0,6 -6,0 z M 234,96 l 6,0 0,6 -6,0 z M 0,102 l 6,0 0,6 -6,0 z M 42,102 l 6,0 0,6 -6,0 z M 48,102 l 6,0 0,6 -6,0 z M 66,102 l 6,0 0,6 -6,0 z M 72,102 l 6,0 0,6 -6,0 z M 90,102 l 6,0 0,6 -6,0 z M 96,102 l 6,0 0,6 -6,0 z M 114,102 l 6,0 0,6 -6,0 z M 120,102 l 6,0 0,6 -6,0 z M 126,102 l 6,0 0,6 -6,0 z M 132,102 l 6,0 0,6 -6,0 z M 144,102 l 6,0 0,6 -6,0 z M 150,102 l 6,0 0,6 -6,0 z M 162,102 l 6,0 0,6 -6,0 z M 174,102 l 6,0 0,6 -6,0 z M 180,102 l 6,0 0,6 -6,0 z M 186,102 l 6,0 0,6 -6,0 z M 204,102 l 6,0 0,6 -6,0 z M 210,102 l 6,0 0,6 -6,0 z M 216,102 l 6,0 0,6 -6,0 z M 234,102 l 6,0 0,6 -6,0 z M 240,102 l 6,0 0,6 -6,0 z M 18,108 l 6,0 0,6 -6,0 z M 30,108 l 6,0 0,6 -6,0 z M 36,108 l 6,0 0,6 -6,0 z M 54,108 l 6,0 0,6 -6,0 z M 72,108 l 6,0 0,6 -6,0 z M 108,108 l 6,0 0,6 -6,0 z M 120,108 l 6,0 0,6 -6,0 z M 126,108 l 6,0 0,6 -6,0 z M 138,108 l 6,0 0,6 -6,0 z M 144,108 l 6,0 0,6 -6,0 z M 150,108 l 6,0 0,6 -6,0 z M 162,108 l 6,0 0,6 -6,0 z M 180,108 l 6,0 0,6 -6,0 z M 192,108 l 6,0 0,6 -6,0 z M 198,108 l 6,0 0,6 -6,0 z M 204,108 l 6,0 0,6 -6,0 z M 216,108 l 6,0 0,6 -6,0 z M 222,108 l 6,0 0,6 -6,0 z M 240,108 l 6,0 0,6 -6,0 z M 24,114 l 6,0 0,6 -6,0 z M 30,114 l 6,0 0,6 -6,0 z M 54,114 l 6,0 0,6 -6,0 z M 66,114 l 6,0 0,6 -6,0 z M 84,114 l 6,0 0,6 -6,0 z M 96,114 l 6,0 0,6 -6,0 z M 108,114 l 6,0 0,6 -6,0 z M 114,114 l 6,0 0,6 -6,0 z M 120,114 l 6,0 0,6 -6,0 z M 126,114 l 6,0 0,6 -6,0 z M 132,114 l 6,0 0,6 -6,0 z M 144,114 l 6,0 0,6 -6,0 z M 156,114 l 6,0 0,6 -6,0 z M 192,114 l 6,0 0,6 -6,0 z M 198,114 l 6,0 0,6 -6,0 z M 210,114 l 6,0 0,6 -6,0 z M 216,114 l 6,0 0,6 -6,0 z M 222,114 l 6,0 0,6 -6,0 z M 234,114 l 6,0 0,6 -6,0 z M 240,114 l 6,0 0,6 -6,0 z M 0,120 l 6,0 0,6 -6,0 z M 6,120 l 6,0 0,6 -6,0 z M 12,120 l 6,0 0,6 -6,0 z M 30,120 l 6,0 0,6 -6,0 z M 36,120 l 6,0 0,6 -6,0 z M 54,120 l 6,0 0,6 -6,0 z M 60,120 l 6,0 0,6 -6,0 z M 72,120 l 6,0 0,6 -6,0 z M 90,120 l 6,0 0,6 -6,0 z M 114,120 l 6,0 0,6 -6,0 z M 126,120 l 6,0 0,6 -6,0 z M 138,120 l 6,0 0,6 -6,0 z M 144,120 l 6,0 0,6 -6,0 z M 150,120 l 6,0 0,6 -6,0 z M 156,120 l 6,0 0,6 -6,0 z M 162,120 l 6,0 0,6 -6,0 z M 228,120 l 6,0 0,6 -6,0 z M 0,126 l 6,0 0,6 -6,0 z M 6,126 l 6,0 0,6 -6,0 z M 24,126 l 6,0 0,6 -6,0 z M 54,126 l 6,0 0,6 -6,0 z M 84,126 l 6,0 0,6 -6,0 z M 90,126 l 6,0 0,6 -6,0 z M 96,126 l 6,0 0,6 -6,0 z M 132,126 l 6,0 0,6 -6,0 z M 138,126 l 6,0 0,6 -6,0 z M 144,126 l 6,0 0,6 -6,0 z M 150,126 l 6,0 0,6 -6,0 z M 156,126 l 6,0 0,6 -6,0 z M 168,126 l 6,0 0,6 -6,0 z M 180,126 l 6,0 0,6 -6,0 z M 222,126 l 6,0 0,6 -6,0 z M 234,126 l 6,0 0,6 -6,0 z M 240,126 l 6,0 0,6 -6,0 z M 0,132 l 6,0 0,6 -6,0 z M 6,132 l 6,0 0,6 -6,0 z M 18,132 l 6,0 0,6 -6,0 z M 24,132 l 6,0 0,6 -6,0 z M 30,132 l 6,0 0,6 -6,0 z M 36,132 l 6,0 0,6 -6,0 z M 42,132 l 6,0 0,6 -6,0 z M 48,132 l 6,0 0,6 -6,0 z M 66,132 l 6,0 0,6 -6,0 z M 72,132 l 6,0 0,6 -6,0 z M 78,132 l 6,0 0,6 -6,0 z M 102,132 l 6,0 0,6 -6,0 z M 114,132 l 6,0 0,6 -6,0 z M 120,132 l 6,0 0,6 -6,0 z M 126,132 l 6,0 0,6 -6,0 z M 138,132 l 6,0 0,6 -6,0 z M 150,132 l 6,0 0,6 -6,0 z M 156,132 l 6,0 0,6 -6,0 z M 162,132 l 6,0 0,6 -6,0 z M 168,132 l 6,0 0,6 -6,0 z M 180,132 l 6,0 0,6 -6,0 z M 186,132 l 6,0 0,6 -6,0 z M 192,132 l 6,0 0,6 -6,0 z M 198,132 l 6,0 0,6 -6,0 z M 204,132 l 6,0 0,6 -6,0 z M 210,132 l 6,0 0,6 -6,0 z M 228,132 l 6,0 0,6 -6,0 z M 234,132 l 6,0 0,6 -6,0 z M 0,138 l 6,0 0,6 -6,0 z M 48,138 l 6,0 0,6 -6,0 z M 66,138 l 6,0 0,6 -6,0 z M 96,138 l 6,0 0,6 -6,0 z M 102,138 l 6,0 0,6 -6,0 z M 108,138 l 6,0 0,6 -6,0 z M 126,138 l 6,0 0,6 -6,0 z M 138,138 l 6,0 0,6 -6,0 z M 144,138 l 6,0 0,6 -6,0 z M 150,138 l 6,0 0,6 -6,0 z M 156,138 l 6,0 0,6 -6,0 z M 162,138 l 6,0 0,6 -6,0 z M 180,138 l 6,0 0,6 -6,0 z M 192,138 l 6,0 0,6 -6,0 z M 198,138 l 6,0 0,6 -6,0 z M 204,138 l 6,0 0,6 -6,0 z M 216,138 l 6,0 0,6 -6,0 z M 240,138 l 6,0 0,6 -6,0 z M 12,144 l 6,0 0,6 -6,0 z M 18,144 l 6,0 0,6 -6,0 z M 24,144 l 6,0 0,6 -6,0 z M 36,144 l 6,0 0,6 -6,0 z M 60,144 l 6,0 0,6 -6,0 z M 66,144 l 6,0 0,6 -6,0 z M 78,144 l 6,0 0,6 -6,0 z M 96,144 l 6,0 0,6 -6,0 z M 102,144 l 6,0 0,6 -6,0 z M 120,144 l 6,0 0,6 -6,0 z M 126,144 l 6,0 0,6 -6,0 z M 132,144 l 6,0 0,6 -6,0 z M 144,144 l 6,0 0,6 -6,0 z M 150,144 l 6,0 0,6 -6,0 z M 162,144 l 6,0 0,6 -6,0 z M 180,144 l 6,0 0,6 -6,0 z M 198,144 l 6,0 0,6 -6,0 z M 222,144 l 6,0 0,6 -6,0 z M 234,144 l 6,0 0,6 -6,0 z M 240,144 l 6,0 0,6 -6,0 z M 24,150 l 6,0 0,6 -6,0 z M 30,150 l 6,0 0,6 -6,0 z M 54,150 l 6,0 0,6 -6,0 z M 66,150 l 6,0 0,6 -6,0 z M 72,150 l 6,0 0,6 -6,0 z M 78,150 l 6,0 0,6 -6,0 z M 90,150 l 6,0 0,6 -6,0 z M 108,150 l 6,0 0,6 -6,0 z M 126,150 l 6,0 0,6 -6,0 z M 132,150 l 6,0 0,6 -6,0 z M 144,150 l 6,0 0,6 -6,0 z M 150,150 l 6,0 0,6 -6,0 z M 156,150 l 6,0 0,6 -6,0 z M 162,150 l 6,0 0,6 -6,0 z M 174,150 l 6,0 0,6 -6,0 z M 186,150 l 6,0 0,6 -6,0 z M 192,150 l 6,0 0,6 -6,0 z M 198,150 l 6,0 0,6 -6,0 z M 204,150 l 6,0 0,6 -6,0 z M 210,150 l 6,0 0,6 -6,0 z M 216,150 l 6,0 0,6 -6,0 z M 222,150 l 6,0 0,6 -6,0 z M 228,150 l 6,0 0,6 -6,0 z M 0,156 l 6,0 0,6 -6,0 z M 6,156 l 6,0 0,6 -6,0 z M 24,156 l 6,0 0,6 -6,0 z M 36,156 l 6,0 0,6 -6,0 z M 72,156 l 6,0 0,6 -6,0 z M 78,156 l 6,0 0,6 -6,0 z M 84,156 l 6,0 0,6 -6,0 z M 108,156 l 6,0 0,6 -6,0 z M 114,156 l 6,0 0,6 -6,0 z M 120,156 l 6,0 0,6 -6,0 z M 126,156 l 6,0 0,6 -6,0 z M 138,156 l 6,0 0,6 -6,0 z M 144,156 l 6,0 0,6 -6,0 z M 150,156 l 6,0 0,6 -6,0 z M 162,156 l 6,0 0,6 -6,0 z M 168,156 l 6,0 0,6 -6,0 z M 174,156 l 6,0 0,6 -6,0 z M 186,156 l 6,0 0,6 -6,0 z M 198,156 l 6,0 0,6 -6,0 z M 210,156 l 6,0 0,6 -6,0 z M 228,156 l 6,0 0,6 -6,0 z M 0,162 l 6,0 0,6 -6,0 z M 6,162 l 6,0 0,6 -6,0 z M 24,162 l 6,0 0,6 -6,0 z M 42,162 l 6,0 0,6 -6,0 z M 48,162 l 6,0 0,6 -6,0 z M 54,162 l 6,0 0,6 -6,0 z M 66,162 l 6,0 0,6 -6,0 z M 78,162 l 6,0 0,6 -6,0 z M 96,162 l 6,0 0,6 -6,0 z M 108,162 l 6,0 0,6 -6,0 z M 132,162 l 6,0 0,6 -6,0 z M 138,162 l 6,0 0,6 -6,0 z M 150,162 l 6,0 0,6 -6,0 z M 156,162 l 6,0 0,6 -6,0 z M 162,162 l 6,0 0,6 -6,0 z M 180,162 l 6,0 0,6 -6,0 z M 186,162 l 6,0 0,6 -6,0 z M 198,162 l 6,0 0,6 -6,0 z M 210,162 l 6,0 0,6 -6,0 z M 222,162 l 6,0 0,6 -6,0 z M 240,162 l 6,0 0,6 -6,0 z M 0,168 l 6,0 0,6 -6,0 z M 18,168 l 6,0 0,6 -6,0 z M 24,168 l 6,0 0,6 -6,0 z M 36,168 l 6,0 0,6 -6,0 z M 84,168 l 6,0 0,6 -6,0 z M 90,168 l 6,0 0,6 -6,0 z M 108,168 l 6,0 0,6 -6,0 z M 114,168 l 6,0 0,6 -6,0 z M 126,168 l 6,0 0,6 -6,0 z M 132,168 l 6,0 0,6 -6,0 z M 138,168 l 6,0 0,6 -6,0 z M 150,168 l 6,0 0,6 -6,0 z M 162,168 l 6,0 0,6 -6,0 z M 168,168 l 6,0 0,6 -6,0 z M 174,168 l 6,0 0,6 -6,0 z M 192,168 l 6,0 0,6 -6,0 z M 198,168 l 6,0 0,6 -6,0 z M 204,168 l 6,0 0,6 -6,0 z M 228,168 l 6,0 0,6 -6,0 z M 0,174 l 6,0 0,6 -6,0 z M 6,174 l 6,0 0,6 -6,0 z M 12,174 l 6,0 0,6 -6,0 z M 24,174 l 6,0 0,6 -6,0 z M 42,174 l 6,0 0,6 -6,0 z M 72,174 l 6,0 0,6 -6,0 z M 90,174 l 6,0 0,6 -6,0 z M 108,174 l 6,0 0,6 -6,0 z M 120,174 l 6,0 0,6 -6,0 z M 132,174 l 6,0 0,6 -6,0 z M 138,174 l 6,0 0,6 -6,0 z M 162,174 l 6,0 0,6 -6,0 z M 174,174 l 6,0 0,6 -6,0 z M 180,174 l 6,0 0,6 -6,0 z M 186,174 l 6,0 0,6 -6,0 z M 198,174 l 6,0 0,6 -6,0 z M 204,174 l 6,0 0,6 -6,0 z M 216,174 l 6,0 0,6 -6,0 z M 222,174 l 6,0 0,6 -6,0 z M 240,174 l 6,0 0,6 -6,0 z M 0,180 l 6,0 0,6 -6,0 z M 12,180 l 6,0 0,6 -6,0 z M 24,180 l 6,0 0,6 -6,0 z M 36,180 l 6,0 0,6 -6,0 z M 48,180 l 6,0 0,6 -6,0 z M 54,180 l 6,0 0,6 -6,0 z M 60,180 l 6,0 0,6 -6,0 z M 78,180 l 6,0 0,6 -6,0 z M 90,180 l 6,0 0,6 -6,0 z M 102,180 l 6,0 0,6 -6,0 z M 114,180 l 6,0 0,6 -6,0 z M 120,180 l 6,0 0,6 -6,0 z M 144,180 l 6,0 0,6 -6,0 z M 162,180 l 6,0 0,6 -6,0 z M 168,180 l 6,0 0,6 -6,0 z M 180,180 l 6,0 0,6 -6,0 z M 192,180 l 6,0 0,6 -6,0 z M 198,180 l 6,0 0,6 -6,0 z M 228,180 l 6,0 0,6 -6,0 z M 0,186 l 6,0 0,6 -6,0 z M 24,186 l 6,0 0,6 -6,0 z M 42,186 l 6,0 0,6 -6,0 z M 48,186 l 6,0 0,6 -6,0 z M 54,186 l 6,0 0,6 -6,0 z M 60,186 l 6,0 0,6 -6,0 z M 72,186 l 6,0 0,6 -6,0 z M 78,186 l 6,0 0,6 -6,0 z M 90,186 l 6,0 0,6 -6,0 z M 96,186 l 6,0 0,6 -6,0 z M 102,186 l 6,0 0,6 -6,0 z M 108,186 l 6,0 0,6 -6,0 z M 126,186 l 6,0 0,6 -6,0 z M 132,186 l 6,0 0,6 -6,0 z M 138,186 l 6,0 0,6 -6,0 z M 144,186 l 6,0 0,6 -6,0 z M 156,186 l 6,0 0,6 -6,0 z M 162,186 l 6,0 0,6 -6,0 z M 186,186 l 6,0 0,6 -6,0 z M 198,186 l 6,0 0,6 -6,0 z M 204,186 l 6,0 0,6 -6,0 z M 216,186 l 6,0 0,6 -6,0 z M 222,186 l 6,0 0,6 -6,0 z M 228,186 l 6,0 0,6 -6,0 z M 0,192 l 6,0 0,6 -6,0 z M 12,192 l 6,0 0,6 -6,0 z M 30,192 l 6,0 0,6 -6,0 z M 36,192 l 6,0 0,6 -6,0 z M 42,192 l 6,0 0,6 -6,0 z M 48,192 l 6,0 0,6 -6,0 z M 54,192 l 6,0 0,6 -6,0 z M 60,192 l 6,0 0,6 -6,0 z M 84,192 l 6,0 0,6 -6,0 z M 90,192 l 6,0 0,6 -6,0 z M 102,192 l 6,0 0,6 -6,0 z M 108,192 l 6,0 0,6 -6,0 z M 120,192 l 6,0 0,6 -6,0 z M 126,192 l 6,0 0,6 -6,0 z M 144,192 l 6,0 0,6 -6,0 z M 168,192 l 6,0 0,6 -6,0 z M 180,192 l 6,0 0,6 -6,0 z M 192,192 l 6,0 0,6 -6,0 z M 198,192 l 6,0 0,6 -6,0 z M 204,192 l 6,0 0,6 -6,0 z M 210,192 l 6,0 0,6 -6,0 z M 216,192 l 6,0 0,6 -6,0 z M 222,192 l 6,0 0,6 -6,0 z M 240,192 l 6,0 0,6 -6,0 z M 48,198 l 6,0 0,6 -6,0 z M 54,198 l 6,0 0,6 -6,0 z M 60,198 l 6,0 0,6 -6,0 z M 72,198 l 6,0 0,6 -6,0 z M 90,198 l 6,0 0,6 -6,0 z M 96,198 l 6,0 0,6 -6,0 z M 102,198 l 6,0 0,6 -6,0 z M 126,198 l 6,0 0,6 -6,0 z M 144,198 l 6,0 0,6 -6,0 z M 150,198 l 6,0 0,6 -6,0 z M 162,198 l 6,0 0,6 -6,0 z M 174,198 l 6,0 0,6 -6,0 z M 192,198 l 6,0 0,6 -6,0 z M 216,198 l 6,0 0,6 -6,0 z M 228,198 l 6,0 0,6 -6,0 z M 240,198 l 6,0 0,6 -6,0 z M 0,204 l 6,0 0,6 -6,0 z M 6,204 l 6,0 0,6 -6,0 z M 12,204 l 6,0 0,6 -6,0 z M 18,204 l 6,0 0,6 -6,0 z M 24,204 l 6,0 0,6 -6,0 z M 30,204 l 6,0 0,6 -6,0 z M 36,204 l 6,0 0,6 -6,0 z M 48,204 l 6,0 0,6 -6,0 z M 60,204 l 6,0 0,6 -6,0 z M 72,204 l 6,0 0,6 -6,0 z M 108,204 l 6,0 0,6 -6,0 z M 114,204 l 6,0 0,6 -6,0 z M 120,204 l 6,0 0,6 -6,0 z M 126,204 l 6,0 0,6 -6,0 z M 138,204 l 6,0 0,6 -6,0 z M 144,204 l 6,0 0,6 -6,0 z M 150,204 l 6,0 0,6 -6,0 z M 162,204 l 6,0 0,6 -6,0 z M 168,204 l 6,0 0,6 -6,0 z M 180,204 l 6,0 0,6 -6,0 z M 192,204 l 6,0 0,6 -6,0 z M 204,204 l 6,0 0,6 -6,0 z M 216,204 l 6,0 0,6 -6,0 z M 222,204 l 6,0 0,6 -6,0 z M 228,204 l 6,0 0,6 -6,0 z M 240,204 l 6,0 0,6 -6,0 z M 0,210 l 6,0 0,6 -6,0 z M 36,210 l 6,0 0,6 -6,0 z M 60,210 l 6,0 0,6 -6,0 z M 66,210 l 6,0 0,6 -6,0 z M 84,210 l 6,0 0,6 -6,0 z M 90,210 l 6,0 0,6 -6,0 z M 96,210 l 6,0 0,6 -6,0 z M 102,210 l 6,0 0,6 -6,0 z M 108,210 l 6,0 0,6 -6,0 z M 120,210 l 6,0 0,6 -6,0 z M 126,210 l 6,0 0,6 -6,0 z M 132,210 l 6,0 0,6 -6,0 z M 144,210 l 6,0 0,6 -6,0 z M 156,210 l 6,0 0,6 -6,0 z M 162,210 l 6,0 0,6 -6,0 z M 174,210 l 6,0 0,6 -6,0 z M 180,210 l 6,0 0,6 -6,0 z M 186,210 l 6,0 0,6 -6,0 z M 192,210 l 6,0 0,6 -6,0 z M 216,210 l 6,0 0,6 -6,0 z M 222,210 l 6,0 0,6 -6,0 z M 234,210 l 6,0 0,6 -6,0 z M 240,210 l 6,0 0,6 -6,0 z M 0,216 l 6,0 0,6 -6,0 z M 12,216 l 6,0 0,6 -6,0 z M 18,216 l 6,0 0,6 -6,0 z M 24,216 l 6,0 0,6 -6,0 z M 36,216 l 6,0 0,6 -6,0 z M 48,216 l 6,0 0,6 -6,0 z M 60,216 l 6,0 0,6 -6,0 z M 72,216 l 6,0 0,6 -6,0 z M 90,216 l 6,0 0,6 -6,0 z M 96,216 l 6,0 0,6 -6,0 z M 108,216 l 6,0 0,6 -6,0 z M 114,216 l 6,0 0,6 -6,0 z M 126,216 l 6,0 0,6 -6,0 z M 138,216 l 6,0 0,6 -6,0 z M 144,216 l 6,0 0,6 -6,0 z M 150,216 l 6,0 0,6 -6,0 z M 156,216 l 6,0 0,6 -6,0 z M 162,216 l 6,0 0,6 -6,0 z M 168,216 l 6,0 0,6 -6,0 z M 174,216 l 6,0 0,6 -6,0 z M 180,216 l 6,0 0,6 -6,0 z M 192,216 l 6,0 0,6 -6,0 z M 198,216 l 6,0 0,6 -6,0 z M 204,216 l 6,0 0,6 -6,0 z M 210,216 l 6,0 0,6 -6,0 z M 216,216 l 6,0 0,6 -6,0 z M 0,222 l 6,0 0,6 -6,0 z M 12,222 l 6,0 0,6 -6,0 z M 18,222 l 6,0 0,6 -6,0 z M 24,222 l 6,0 0,6 -6,0 z M 36,222 l 6,0 0,6 -6,0 z M 48,222 l 6,0 0,6 -6,0 z M 60,222 l 6,0 0,6 -6,0 z M 84,222 l 6,0 0,6 -6,0 z M 96,222 l 6,0 0,6 -6,0 z M 108,222 l 6,0 0,6 -6,0 z M 132,222 l 6,0 0,6 -6,0 z M 138,222 l 6,0 0,6 -6,0 z M 144,222 l 6,0 0,6 -6,0 z M 156,222 l 6,0 0,6 -6,0 z M 162,222 l 6,0 0,6 -6,0 z M 180,222 l 6,0 0,6 -6,0 z M 198,222 l 6,0 0,6 -6,0 z M 222,222 l 6,0 0,6 -6,0 z M 234,222 l 6,0 0,6 -6,0 z M 0,228 l 6,0 0,6 -6,0 z M 12,228 l 6,0 0,6 -6,0 z M 18,228 l 6,0 0,6 -6,0 z M 24,228 l 6,0 0,6 -6,0 z M 36,228 l 6,0 0,6 -6,0 z M 48,228 l 6,0 0,6 -6,0 z M 60,228 l 6,0 0,6 -6,0 z M 66,228 l 6,0 0,6 -6,0 z M 72,228 l 6,0 0,6 -6,0 z M 78,228 l 6,0 0,6 -6,0 z M 96,228 l 6,0 0,6 -6,0 z M 102,228 l 6,0 0,6 -6,0 z M 108,228 l 6,0 0,6 -6,0 z M 114,228 l 6,0 0,6 -6,0 z M 126,228 l 6,0 0,6 -6,0 z M 138,228 l 6,0 0,6 -6,0 z M 150,228 l 6,0 0,6 -6,0 z M 180,228 l 6,0 0,6 -6,0 z M 198,228 l 6,0 0,6 -6,0 z M 204,228 l 6,0 0,6 -6,0 z M 210,228 l 6,0 0,6 -6,0 z M 216,228 l 6,0 0,6 -6,0 z M 228,228 l 6,0 0,6 -6,0 z M 234,228 l 6,0 0,6 -6,0 z M 0,234 l 6,0 0,6 -6,0 z M 36,234 l 6,0 0,6 -6,0 z M 48,234 l 6,0 0,6 -6,0 z M 54,234 l 6,0 0,6 -6,0 z M 60,234 l 6,0 0,6 -6,0 z M 66,234 l 6,0 0,6 -6,0 z M 90,234 l 6,0 0,6 -6,0 z M 108,234 l 6,0 0,6 -6,0 z M 126,234 l 6,0 0,6 -6,0 z M 138,234 l 6,0 0,6 -6,0 z M 144,234 l 6,0 0,6 -6,0 z M 162,234 l 6,0 0,6 -6,0 z M 186,234 l 6,0 0,6 -6,0 z M 192,234 l 6,0 0,6 -6,0 z M 198,234 l 6,0 0,6 -6,0 z M 210,234 l 6,0 0,6 -6,0 z M 222,234 l 6,0 0,6 -6,0 z M 234,234 l 6,0 0,6 -6,0 z M 0,240 l 6,0 0,6 -6,0 z M 6,240 l 6,0 0,6 -6,0 z M 12,240 l 6,0 0,6 -6,0 z M 18,240 l 6,0 0,6 -6,0 z M 24,240 l 6,0 0,6 -6,0 z M 30,240 l 6,0 0,6 -6,0 z M 36,240 l 6,0 0,6 -6,0 z M 48,240 l 6,0 0,6 -6,0 z M 60,240 l 6,0 0,6 -6,0 z M 66,240 l 6,0 0,6 -6,0 z M 72,240 l 6,0 0,6 -6,0 z M 78,240 l 6,0 0,6 -6,0 z M 108,240 l 6,0 0,6 -6,0 z M 126,240 l 6,0 0,6 -6,0 z M 144,240 l 6,0 0,6 -6,0 z M 156,240 l 6,0 0,6 -6,0 z M 162,240 l 6,0 0,6 -6,0 z M 174,240 l 6,0 0,6 -6,0 z M 186,240 l 6,0 0,6 -6,0 z M 192,240 l 6,0 0,6 -6,0 z M 204,240 l 6,0 0,6 -6,0 z M 216,240 l 6,0 0,6 -6,0 z M 222,240 l 6,0 0,6 -6,0 z " />
	</g>
</svg>
