<?xml version="1.0" standalone="no"?>
<svg xmlns="http://www.w3.org/2000/svg" version="1.1" width="258" height="258">
	<!-- Created with https://api.qrserver.com (QR Code API, see goQR.me/api for information) -->
	<title>QR Code</title>
	<desc>01021129270023NCHL00000000MER-1-APP-252044829530352454010560105802NP5916Subarna Bhandari6009Kathmandu6235021098447403600817CIPS P2P Transfer630427B1</desc>
	<rect style="fill:rgb(255, 255, 255);fill-opacity:1" x="0" y="0" width="258" height="258" />
	<g id="elements">
		<path style="fill:rgb(0, 0, 0)" d="M 6,6 l 6,0 0,6 -6,0 z M 12,6 l 6,0 0,6 -6,0 z M 18,6 l 6,0 0,6 -6,0 z M 24,6 l 6,0 0,6 -6,0 z M 30,6 l 6,0 0,6 -6,0 z M 36,6 l 6,0 0,6 -6,0 z M 42,6 l 6,0 0,6 -6,0 z M 66,6 l 6,0 0,6 -6,0 z M 84,6 l 6,0 0,6 -6,0 z M 90,6 l 6,0 0,6 -6,0 z M 108,6 l 6,0 0,6 -6,0 z M 120,6 l 6,0 0,6 -6,0 z M 132,6 l 6,0 0,6 -6,0 z M 156,6 l 6,0 0,6 -6,0 z M 162,6 l 6,0 0,6 -6,0 z M 168,6 l 6,0 0,6 -6,0 z M 186,6 l 6,0 0,6 -6,0 z M 192,6 l 6,0 0,6 -6,0 z M 198,6 l 6,0 0,6 -6,0 z M 210,6 l 6,0 0,6 -6,0 z M 216,6 l 6,0 0,6 -6,0 z M 222,6 l 6,0 0,6 -6,0 z M 228,6 l 6,0 0,6 -6,0 z M 234,6 l 6,0 0,6 -6,0 z M 240,6 l 6,0 0,6 -6,0 z M 246,6 l 6,0 0,6 -6,0 z M 6,12 l 6,0 0,6 -6,0 z M 42,12 l 6,0 0,6 -6,0 z M 54,12 l 6,0 0,6 -6,0 z M 66,12 l 6,0 0,6 -6,0 z M 72,12 l 6,0 0,6 -6,0 z M 84,12 l 6,0 0,6 -6,0 z M 90,12 l 6,0 0,6 -6,0 z M 108,12 l 6,0 0,6 -6,0 z M 120,12 l 6,0 0,6 -6,0 z M 126,12 l 6,0 0,6 -6,0 z M 132,12 l 6,0 0,6 -6,0 z M 150,12 l 6,0 0,6 -6,0 z M 156,12 l 6,0 0,6 -6,0 z M 162,12 l 6,0 0,6 -6,0 z M 174,12 l 6,0 0,6 -6,0 z M 180,12 l 6,0 0,6 -6,0 z M 186,12 l 6,0 0,6 -6,0 z M 198,12 l 6,0 0,6 -6,0 z M 210,12 l 6,0 0,6 -6,0 z M 246,12 l 6,0 0,6 -6,0 z M 6,18 l 6,0 0,6 -6,0 z M 18,18 l 6,0 0,6 -6,0 z M 24,18 l 6,0 0,6 -6,0 z M 30,18 l 6,0 0,6 -6,0 z M 42,18 l 6,0 0,6 -6,0 z M 60,18 l 6,0 0,6 -6,0 z M 84,18 l 6,0 0,6 -6,0 z M 96,18 l 6,0 0,6 -6,0 z M 108,18 l 6,0 0,6 -6,0 z M 114,18 l 6,0 0,6 -6,0 z M 120,18 l 6,0 0,6 -6,0 z M 126,18 l 6,0 0,6 -6,0 z M 132,18 l 6,0 0,6 -6,0 z M 138,18 l 6,0 0,6 -6,0 z M 162,18 l 6,0 0,6 -6,0 z M 168,18 l 6,0 0,6 -6,0 z M 174,18 l 6,0 0,6 -6,0 z M 180,18 l 6,0 0,6 -6,0 z M 186,18 l 6,0 0,6 -6,0 z M 192,18 l 6,0 0,6 -6,0 z M 198,18 l 6,0 0,6 -6,0 z M 210,18 l 6,0 0,6 -6,0 z M 222,18 l 6,0 0,6 -6,0 z M 228,18 l 6,0 0,6 -6,0 z M 234,18 l 6,0 0,6 -6,0 z M 246,18 l 6,0 0,6 -6,0 z M 6,24 l 6,0 0,6 -6,0 z M 18,24 l 6,0 0,6 -6,0 z M 24,24 l 6,0 0,6 -6,0 z M 30,24 l 6,0 0,6 -6,0 z M 42,24 l 6,0 0,6 -6,0 z M 54,24 l 6,0 0,6 -6,0 z M 60,24 l 6,0 0,6 -6,0 z M 72,24 l 6,0 0,6 -6,0 z M 78,24 l 6,0 0,6 -6,0 z M 90,24 l 6,0 0,6 -6,0 z M 96,24 l 6,0 0,6 -6,0 z M 102,24 l 6,0 0,6 -6,0 z M 126,24 l 6,0 0,6 -6,0 z M 132,24 l 6,0 0,6 -6,0 z M 156,24 l 6,0 0,6 -6,0 z M 168,24 l 6,0 0,6 -6,0 z M 192,24 l 6,0 0,6 -6,0 z M 210,24 l 6,0 0,6 -6,0 z M 222,24 l 6,0 0,6 -6,0 z M 228,24 l 6,0 0,6 -6,0 z M 234,24 l 6,0 0,6 -6,0 z M 246,24 l 6,0 0,6 -6,0 z M 6,30 l 6,0 0,6 -6,0 z M 18,30 l 6,0 0,6 -6,0 z M 24,30 l 6,0 0,6 -6,0 z M 30,30 l 6,0 0,6 -6,0 z M 42,30 l 6,0 0,6 -6,0 z M 60,30 l 6,0 0,6 -6,0 z M 78,30 l 6,0 0,6 -6,0 z M 96,30 l 6,0 0,6 -6,0 z M 108,30 l 6,0 0,6 -6,0 z M 114,30 l 6,0 0,6 -6,0 z M 150,30 l 6,0 0,6 -6,0 z M 156,30 l 6,0 0,6 -6,0 z M 162,30 l 6,0 0,6 -6,0 z M 168,30 l 6,0 0,6 -6,0 z M 174,30 l 6,0 0,6 -6,0 z M 192,30 l 6,0 0,6 -6,0 z M 210,30 l 6,0 0,6 -6,0 z M 222,30 l 6,0 0,6 -6,0 z M 228,30 l 6,0 0,6 -6,0 z M 234,30 l 6,0 0,6 -6,0 z M 246,30 l 6,0 0,6 -6,0 z M 6,36 l 6,0 0,6 -6,0 z M 42,36 l 6,0 0,6 -6,0 z M 54,36 l 6,0 0,6 -6,0 z M 60,36 l 6,0 0,6 -6,0 z M 66,36 l 6,0 0,6 -6,0 z M 72,36 l 6,0 0,6 -6,0 z M 78,36 l 6,0 0,6 -6,0 z M 84,36 l 6,0 0,6 -6,0 z M 90,36 l 6,0 0,6 -6,0 z M 96,36 l 6,0 0,6 -6,0 z M 102,36 l 6,0 0,6 -6,0 z M 108,36 l 6,0 0,6 -6,0 z M 114,36 l 6,0 0,6 -6,0 z M 126,36 l 6,0 0,6 -6,0 z M 132,36 l 6,0 0,6 -6,0 z M 144,36 l 6,0 0,6 -6,0 z M 174,36 l 6,0 0,6 -6,0 z M 198,36 l 6,0 0,6 -6,0 z M 210,36 l 6,0 0,6 -6,0 z M 246,36 l 6,0 0,6 -6,0 z M 6,42 l 6,0 0,6 -6,0 z M 12,42 l 6,0 0,6 -6,0 z M 18,42 l 6,0 0,6 -6,0 z M 24,42 l 6,0 0,6 -6,0 z M 30,42 l 6,0 0,6 -6,0 z M 36,42 l 6,0 0,6 -6,0 z M 42,42 l 6,0 0,6 -6,0 z M 54,42 l 6,0 0,6 -6,0 z M 66,42 l 6,0 0,6 -6,0 z M 78,42 l 6,0 0,6 -6,0 z M 90,42 l 6,0 0,6 -6,0 z M 102,42 l 6,0 0,6 -6,0 z M 114,42 l 6,0 0,6 -6,0 z M 126,42 l 6,0 0,6 -6,0 z M 138,42 l 6,0 0,6 -6,0 z M 150,42 l 6,0 0,6 -6,0 z M 162,42 l 6,0 0,6 -6,0 z M 174,42 l 6,0 0,6 -6,0 z M 186,42 l 6,0 0,6 -6,0 z M 198,42 l 6,0 0,6 -6,0 z M 210,42 l 6,0 0,6 -6,0 z M 216,42 l 6,0 0,6 -6,0 z M 222,42 l 6,0 0,6 -6,0 z M 228,42 l 6,0 0,6 -6,0 z M 234,42 l 6,0 0,6 -6,0 z M 240,42 l 6,0 0,6 -6,0 z M 246,42 l 6,0 0,6 -6,0 z M 60,48 l 6,0 0,6 -6,0 z M 66,48 l 6,0 0,6 -6,0 z M 72,48 l 6,0 0,6 -6,0 z M 90,48 l 6,0 0,6 -6,0 z M 96,48 l 6,0 0,6 -6,0 z M 108,48 l 6,0 0,6 -6,0 z M 114,48 l 6,0 0,6 -6,0 z M 132,48 l 6,0 0,6 -6,0 z M 144,48 l 6,0 0,6 -6,0 z M 150,48 l 6,0 0,6 -6,0 z M 156,48 l 6,0 0,6 -6,0 z M 162,48 l 6,0 0,6 -6,0 z M 168,48 l 6,0 0,6 -6,0 z M 180,48 l 6,0 0,6 -6,0 z M 186,48 l 6,0 0,6 -6,0 z M 192,48 l 6,0 0,6 -6,0 z M 198,48 l 6,0 0,6 -6,0 z M 6,54 l 6,0 0,6 -6,0 z M 12,54 l 6,0 0,6 -6,0 z M 18,54 l 6,0 0,6 -6,0 z M 24,54 l 6,0 0,6 -6,0 z M 30,54 l 6,0 0,6 -6,0 z M 42,54 l 6,0 0,6 -6,0 z M 48,54 l 6,0 0,6 -6,0 z M 54,54 l 6,0 0,6 -6,0 z M 78,54 l 6,0 0,6 -6,0 z M 84,54 l 6,0 0,6 -6,0 z M 96,54 l 6,0 0,6 -6,0 z M 102,54 l 6,0 0,6 -6,0 z M 108,54 l 6,0 0,6 -6,0 z M 114,54 l 6,0 0,6 -6,0 z M 132,54 l 6,0 0,6 -6,0 z M 144,54 l 6,0 0,6 -6,0 z M 150,54 l 6,0 0,6 -6,0 z M 156,54 l 6,0 0,6 -6,0 z M 162,54 l 6,0 0,6 -6,0 z M 168,54 l 6,0 0,6 -6,0 z M 180,54 l 6,0 0,6 -6,0 z M 198,54 l 6,0 0,6 -6,0 z M 204,54 l 6,0 0,6 -6,0 z M 216,54 l 6,0 0,6 -6,0 z M 228,54 l 6,0 0,6 -6,0 z M 240,54 l 6,0 0,6 -6,0 z M 6,60 l 6,0 0,6 -6,0 z M 18,60 l 6,0 0,6 -6,0 z M 24,60 l 6,0 0,6 -6,0 z M 36,60 l 6,0 0,6 -6,0 z M 48,60 l 6,0 0,6 -6,0 z M 54,60 l 6,0 0,6 -6,0 z M 72,60 l 6,0 0,6 -6,0 z M 90,60 l 6,0 0,6 -6,0 z M 132,60 l 6,0 0,6 -6,0 z M 144,60 l 6,0 0,6 -6,0 z M 156,60 l 6,0 0,6 -6,0 z M 168,60 l 6,0 0,6 -6,0 z M 186,60 l 6,0 0,6 -6,0 z M 204,60 l 6,0 0,6 -6,0 z M 210,60 l 6,0 0,6 -6,0 z M 222,60 l 6,0 0,6 -6,0 z M 228,60 l 6,0 0,6 -6,0 z M 234,60 l 6,0 0,6 -6,0 z M 240,60 l 6,0 0,6 -6,0 z M 12,66 l 6,0 0,6 -6,0 z M 18,66 l 6,0 0,6 -6,0 z M 24,66 l 6,0 0,6 -6,0 z M 30,66 l 6,0 0,6 -6,0 z M 36,66 l 6,0 0,6 -6,0 z M 42,66 l 6,0 0,6 -6,0 z M 66,66 l 6,0 0,6 -6,0 z M 96,66 l 6,0 0,6 -6,0 z M 114,66 l 6,0 0,6 -6,0 z M 144,66 l 6,0 0,6 -6,0 z M 150,66 l 6,0 0,6 -6,0 z M 168,66 l 6,0 0,6 -6,0 z M 186,66 l 6,0 0,6 -6,0 z M 192,66 l 6,0 0,6 -6,0 z M 204,66 l 6,0 0,6 -6,0 z M 210,66 l 6,0 0,6 -6,0 z M 216,66 l 6,0 0,6 -6,0 z M 222,66 l 6,0 0,6 -6,0 z M 228,66 l 6,0 0,6 -6,0 z M 240,66 l 6,0 0,6 -6,0 z M 6,72 l 6,0 0,6 -6,0 z M 12,72 l 6,0 0,6 -6,0 z M 30,72 l 6,0 0,6 -6,0 z M 36,72 l 6,0 0,6 -6,0 z M 54,72 l 6,0 0,6 -6,0 z M 60,72 l 6,0 0,6 -6,0 z M 66,72 l 6,0 0,6 -6,0 z M 72,72 l 6,0 0,6 -6,0 z M 90,72 l 6,0 0,6 -6,0 z M 96,72 l 6,0 0,6 -6,0 z M 102,72 l 6,0 0,6 -6,0 z M 120,72 l 6,0 0,6 -6,0 z M 132,72 l 6,0 0,6 -6,0 z M 156,72 l 6,0 0,6 -6,0 z M 174,72 l 6,0 0,6 -6,0 z M 186,72 l 6,0 0,6 -6,0 z M 192,72 l 6,0 0,6 -6,0 z M 204,72 l 6,0 0,6 -6,0 z M 222,72 l 6,0 0,6 -6,0 z M 246,72 l 6,0 0,6 -6,0 z M 6,78 l 6,0 0,6 -6,0 z M 18,78 l 6,0 0,6 -6,0 z M 24,78 l 6,0 0,6 -6,0 z M 42,78 l 6,0 0,6 -6,0 z M 54,78 l 6,0 0,6 -6,0 z M 60,78 l 6,0 0,6 -6,0 z M 72,78 l 6,0 0,6 -6,0 z M 78,78 l 6,0 0,6 -6,0 z M 96,78 l 6,0 0,6 -6,0 z M 114,78 l 6,0 0,6 -6,0 z M 132,78 l 6,0 0,6 -6,0 z M 150,78 l 6,0 0,6 -6,0 z M 156,78 l 6,0 0,6 -6,0 z M 180,78 l 6,0 0,6 -6,0 z M 186,78 l 6,0 0,6 -6,0 z M 198,78 l 6,0 0,6 -6,0 z M 204,78 l 6,0 0,6 -6,0 z M 210,78 l 6,0 0,6 -6,0 z M 234,78 l 6,0 0,6 -6,0 z M 240,78 l 6,0 0,6 -6,0 z M 246,78 l 6,0 0,6 -6,0 z M 12,84 l 6,0 0,6 -6,0 z M 30,84 l 6,0 0,6 -6,0 z M 48,84 l 6,0 0,6 -6,0 z M 54,84 l 6,0 0,6 -6,0 z M 60,84 l 6,0 0,6 -6,0 z M 66,84 l 6,0 0,6 -6,0 z M 90,84 l 6,0 0,6 -6,0 z M 96,84 l 6,0 0,6 -6,0 z M 102,84 l 6,0 0,6 -6,0 z M 126,84 l 6,0 0,6 -6,0 z M 132,84 l 6,0 0,6 -6,0 z M 144,84 l 6,0 0,6 -6,0 z M 150,84 l 6,0 0,6 -6,0 z M 156,84 l 6,0 0,6 -6,0 z M 180,84 l 6,0 0,6 -6,0 z M 186,84 l 6,0 0,6 -6,0 z M 204,84 l 6,0 0,6 -6,0 z M 234,84 l 6,0 0,6 -6,0 z M 240,84 l 6,0 0,6 -6,0 z M 6,90 l 6,0 0,6 -6,0 z M 24,90 l 6,0 0,6 -6,0 z M 36,90 l 6,0 0,6 -6,0 z M 42,90 l 6,0 0,6 -6,0 z M 48,90 l 6,0 0,6 -6,0 z M 66,90 l 6,0 0,6 -6,0 z M 72,90 l 6,0 0,6 -6,0 z M 78,90 l 6,0 0,6 -6,0 z M 84,90 l 6,0 0,6 -6,0 z M 114,90 l 6,0 0,6 -6,0 z M 120,90 l 6,0 0,6 -6,0 z M 162,90 l 6,0 0,6 -6,0 z M 174,90 l 6,0 0,6 -6,0 z M 186,90 l 6,0 0,6 -6,0 z M 192,90 l 6,0 0,6 -6,0 z M 198,90 l 6,0 0,6 -6,0 z M 204,90 l 6,0 0,6 -6,0 z M 216,90 l 6,0 0,6 -6,0 z M 228,90 l 6,0 0,6 -6,0 z M 234,90 l 6,0 0,6 -6,0 z M 18,96 l 6,0 0,6 -6,0 z M 30,96 l 6,0 0,6 -6,0 z M 48,96 l 6,0 0,6 -6,0 z M 60,96 l 6,0 0,6 -6,0 z M 66,96 l 6,0 0,6 -6,0 z M 72,96 l 6,0 0,6 -6,0 z M 102,96 l 6,0 0,6 -6,0 z M 120,96 l 6,0 0,6 -6,0 z M 126,96 l 6,0 0,6 -6,0 z M 144,96 l 6,0 0,6 -6,0 z M 150,96 l 6,0 0,6 -6,0 z M 168,96 l 6,0 0,6 -6,0 z M 174,96 l 6,0 0,6 -6,0 z M 186,96 l 6,0 0,6 -6,0 z M 222,96 l 6,0 0,6 -6,0 z M 234,96 l 6,0 0,6 -6,0 z M 246,96 l 6,0 0,6 -6,0 z M 12,102 l 6,0 0,6 -6,0 z M 18,102 l 6,0 0,6 -6,0 z M 24,102 l 6,0 0,6 -6,0 z M 36,102 l 6,0 0,6 -6,0 z M 42,102 l 6,0 0,6 -6,0 z M 60,102 l 6,0 0,6 -6,0 z M 66,102 l 6,0 0,6 -6,0 z M 72,102 l 6,0 0,6 -6,0 z M 78,102 l 6,0 0,6 -6,0 z M 84,102 l 6,0 0,6 -6,0 z M 102,102 l 6,0 0,6 -6,0 z M 108,102 l 6,0 0,6 -6,0 z M 114,102 l 6,0 0,6 -6,0 z M 120,102 l 6,0 0,6 -6,0 z M 126,102 l 6,0 0,6 -6,0 z M 132,102 l 6,0 0,6 -6,0 z M 156,102 l 6,0 0,6 -6,0 z M 174,102 l 6,0 0,6 -6,0 z M 186,102 l 6,0 0,6 -6,0 z M 192,102 l 6,0 0,6 -6,0 z M 204,102 l 6,0 0,6 -6,0 z M 216,102 l 6,0 0,6 -6,0 z M 234,102 l 6,0 0,6 -6,0 z M 240,102 l 6,0 0,6 -6,0 z M 24,108 l 6,0 0,6 -6,0 z M 30,108 l 6,0 0,6 -6,0 z M 48,108 l 6,0 0,6 -6,0 z M 54,108 l 6,0 0,6 -6,0 z M 66,108 l 6,0 0,6 -6,0 z M 78,108 l 6,0 0,6 -6,0 z M 84,108 l 6,0 0,6 -6,0 z M 90,108 l 6,0 0,6 -6,0 z M 108,108 l 6,0 0,6 -6,0 z M 126,108 l 6,0 0,6 -6,0 z M 138,108 l 6,0 0,6 -6,0 z M 144,108 l 6,0 0,6 -6,0 z M 150,108 l 6,0 0,6 -6,0 z M 174,108 l 6,0 0,6 -6,0 z M 180,108 l 6,0 0,6 -6,0 z M 186,108 l 6,0 0,6 -6,0 z M 204,108 l 6,0 0,6 -6,0 z M 228,108 l 6,0 0,6 -6,0 z M 6,114 l 6,0 0,6 -6,0 z M 12,114 l 6,0 0,6 -6,0 z M 30,114 l 6,0 0,6 -6,0 z M 42,114 l 6,0 0,6 -6,0 z M 48,114 l 6,0 0,6 -6,0 z M 54,114 l 6,0 0,6 -6,0 z M 60,114 l 6,0 0,6 -6,0 z M 66,114 l 6,0 0,6 -6,0 z M 72,114 l 6,0 0,6 -6,0 z M 84,114 l 6,0 0,6 -6,0 z M 90,114 l 6,0 0,6 -6,0 z M 96,114 l 6,0 0,6 -6,0 z M 102,114 l 6,0 0,6 -6,0 z M 108,114 l 6,0 0,6 -6,0 z M 126,114 l 6,0 0,6 -6,0 z M 132,114 l 6,0 0,6 -6,0 z M 150,114 l 6,0 0,6 -6,0 z M 168,114 l 6,0 0,6 -6,0 z M 186,114 l 6,0 0,6 -6,0 z M 198,114 l 6,0 0,6 -6,0 z M 204,114 l 6,0 0,6 -6,0 z M 216,114 l 6,0 0,6 -6,0 z M 6,120 l 6,0 0,6 -6,0 z M 12,120 l 6,0 0,6 -6,0 z M 18,120 l 6,0 0,6 -6,0 z M 24,120 l 6,0 0,6 -6,0 z M 36,120 l 6,0 0,6 -6,0 z M 48,120 l 6,0 0,6 -6,0 z M 54,120 l 6,0 0,6 -6,0 z M 66,120 l 6,0 0,6 -6,0 z M 78,120 l 6,0 0,6 -6,0 z M 84,120 l 6,0 0,6 -6,0 z M 96,120 l 6,0 0,6 -6,0 z M 108,120 l 6,0 0,6 -6,0 z M 114,120 l 6,0 0,6 -6,0 z M 150,120 l 6,0 0,6 -6,0 z M 168,120 l 6,0 0,6 -6,0 z M 174,120 l 6,0 0,6 -6,0 z M 180,120 l 6,0 0,6 -6,0 z M 186,120 l 6,0 0,6 -6,0 z M 204,120 l 6,0 0,6 -6,0 z M 210,120 l 6,0 0,6 -6,0 z M 234,120 l 6,0 0,6 -6,0 z M 240,120 l 6,0 0,6 -6,0 z M 246,120 l 6,0 0,6 -6,0 z M 6,126 l 6,0 0,6 -6,0 z M 18,126 l 6,0 0,6 -6,0 z M 24,126 l 6,0 0,6 -6,0 z M 30,126 l 6,0 0,6 -6,0 z M 42,126 l 6,0 0,6 -6,0 z M 48,126 l 6,0 0,6 -6,0 z M 90,126 l 6,0 0,6 -6,0 z M 96,126 l 6,0 0,6 -6,0 z M 102,126 l 6,0 0,6 -6,0 z M 120,126 l 6,0 0,6 -6,0 z M 132,126 l 6,0 0,6 -6,0 z M 156,126 l 6,0 0,6 -6,0 z M 180,126 l 6,0 0,6 -6,0 z M 186,126 l 6,0 0,6 -6,0 z M 210,126 l 6,0 0,6 -6,0 z M 234,126 l 6,0 0,6 -6,0 z M 240,126 l 6,0 0,6 -6,0 z M 246,126 l 6,0 0,6 -6,0 z M 6,132 l 6,0 0,6 -6,0 z M 24,132 l 6,0 0,6 -6,0 z M 30,132 l 6,0 0,6 -6,0 z M 36,132 l 6,0 0,6 -6,0 z M 48,132 l 6,0 0,6 -6,0 z M 78,132 l 6,0 0,6 -6,0 z M 96,132 l 6,0 0,6 -6,0 z M 114,132 l 6,0 0,6 -6,0 z M 144,132 l 6,0 0,6 -6,0 z M 150,132 l 6,0 0,6 -6,0 z M 162,132 l 6,0 0,6 -6,0 z M 168,132 l 6,0 0,6 -6,0 z M 174,132 l 6,0 0,6 -6,0 z M 180,132 l 6,0 0,6 -6,0 z M 192,132 l 6,0 0,6 -6,0 z M 198,132 l 6,0 0,6 -6,0 z M 222,132 l 6,0 0,6 -6,0 z M 240,132 l 6,0 0,6 -6,0 z M 246,132 l 6,0 0,6 -6,0 z M 12,138 l 6,0 0,6 -6,0 z M 24,138 l 6,0 0,6 -6,0 z M 36,138 l 6,0 0,6 -6,0 z M 42,138 l 6,0 0,6 -6,0 z M 48,138 l 6,0 0,6 -6,0 z M 60,138 l 6,0 0,6 -6,0 z M 66,138 l 6,0 0,6 -6,0 z M 96,138 l 6,0 0,6 -6,0 z M 102,138 l 6,0 0,6 -6,0 z M 114,138 l 6,0 0,6 -6,0 z M 132,138 l 6,0 0,6 -6,0 z M 138,138 l 6,0 0,6 -6,0 z M 162,138 l 6,0 0,6 -6,0 z M 174,138 l 6,0 0,6 -6,0 z M 180,138 l 6,0 0,6 -6,0 z M 186,138 l 6,0 0,6 -6,0 z M 192,138 l 6,0 0,6 -6,0 z M 204,138 l 6,0 0,6 -6,0 z M 216,138 l 6,0 0,6 -6,0 z M 228,138 l 6,0 0,6 -6,0 z M 234,138 l 6,0 0,6 -6,0 z M 240,138 l 6,0 0,6 -6,0 z M 246,138 l 6,0 0,6 -6,0 z M 12,144 l 6,0 0,6 -6,0 z M 18,144 l 6,0 0,6 -6,0 z M 66,144 l 6,0 0,6 -6,0 z M 78,144 l 6,0 0,6 -6,0 z M 84,144 l 6,0 0,6 -6,0 z M 96,144 l 6,0 0,6 -6,0 z M 108,144 l 6,0 0,6 -6,0 z M 114,144 l 6,0 0,6 -6,0 z M 132,144 l 6,0 0,6 -6,0 z M 144,144 l 6,0 0,6 -6,0 z M 150,144 l 6,0 0,6 -6,0 z M 156,144 l 6,0 0,6 -6,0 z M 168,144 l 6,0 0,6 -6,0 z M 180,144 l 6,0 0,6 -6,0 z M 186,144 l 6,0 0,6 -6,0 z M 192,144 l 6,0 0,6 -6,0 z M 198,144 l 6,0 0,6 -6,0 z M 204,144 l 6,0 0,6 -6,0 z M 210,144 l 6,0 0,6 -6,0 z M 222,144 l 6,0 0,6 -6,0 z M 228,144 l 6,0 0,6 -6,0 z M 240,144 l 6,0 0,6 -6,0 z M 6,150 l 6,0 0,6 -6,0 z M 24,150 l 6,0 0,6 -6,0 z M 30,150 l 6,0 0,6 -6,0 z M 42,150 l 6,0 0,6 -6,0 z M 60,150 l 6,0 0,6 -6,0 z M 66,150 l 6,0 0,6 -6,0 z M 84,150 l 6,0 0,6 -6,0 z M 96,150 l 6,0 0,6 -6,0 z M 108,150 l 6,0 0,6 -6,0 z M 114,150 l 6,0 0,6 -6,0 z M 132,150 l 6,0 0,6 -6,0 z M 138,150 l 6,0 0,6 -6,0 z M 144,150 l 6,0 0,6 -6,0 z M 150,150 l 6,0 0,6 -6,0 z M 156,150 l 6,0 0,6 -6,0 z M 168,150 l 6,0 0,6 -6,0 z M 174,150 l 6,0 0,6 -6,0 z M 204,150 l 6,0 0,6 -6,0 z M 222,150 l 6,0 0,6 -6,0 z M 240,150 l 6,0 0,6 -6,0 z M 6,156 l 6,0 0,6 -6,0 z M 18,156 l 6,0 0,6 -6,0 z M 30,156 l 6,0 0,6 -6,0 z M 54,156 l 6,0 0,6 -6,0 z M 66,156 l 6,0 0,6 -6,0 z M 72,156 l 6,0 0,6 -6,0 z M 78,156 l 6,0 0,6 -6,0 z M 90,156 l 6,0 0,6 -6,0 z M 144,156 l 6,0 0,6 -6,0 z M 156,156 l 6,0 0,6 -6,0 z M 162,156 l 6,0 0,6 -6,0 z M 180,156 l 6,0 0,6 -6,0 z M 186,156 l 6,0 0,6 -6,0 z M 204,156 l 6,0 0,6 -6,0 z M 222,156 l 6,0 0,6 -6,0 z M 228,156 l 6,0 0,6 -6,0 z M 234,156 l 6,0 0,6 -6,0 z M 240,156 l 6,0 0,6 -6,0 z M 6,162 l 6,0 0,6 -6,0 z M 12,162 l 6,0 0,6 -6,0 z M 18,162 l 6,0 0,6 -6,0 z M 36,162 l 6,0 0,6 -6,0 z M 42,162 l 6,0 0,6 -6,0 z M 48,162 l 6,0 0,6 -6,0 z M 54,162 l 6,0 0,6 -6,0 z M 72,162 l 6,0 0,6 -6,0 z M 96,162 l 6,0 0,6 -6,0 z M 114,162 l 6,0 0,6 -6,0 z M 120,162 l 6,0 0,6 -6,0 z M 126,162 l 6,0 0,6 -6,0 z M 132,162 l 6,0 0,6 -6,0 z M 150,162 l 6,0 0,6 -6,0 z M 156,162 l 6,0 0,6 -6,0 z M 168,162 l 6,0 0,6 -6,0 z M 186,162 l 6,0 0,6 -6,0 z M 204,162 l 6,0 0,6 -6,0 z M 228,162 l 6,0 0,6 -6,0 z M 234,162 l 6,0 0,6 -6,0 z M 246,162 l 6,0 0,6 -6,0 z M 12,168 l 6,0 0,6 -6,0 z M 24,168 l 6,0 0,6 -6,0 z M 30,168 l 6,0 0,6 -6,0 z M 66,168 l 6,0 0,6 -6,0 z M 78,168 l 6,0 0,6 -6,0 z M 90,168 l 6,0 0,6 -6,0 z M 96,168 l 6,0 0,6 -6,0 z M 126,168 l 6,0 0,6 -6,0 z M 132,168 l 6,0 0,6 -6,0 z M 156,168 l 6,0 0,6 -6,0 z M 162,168 l 6,0 0,6 -6,0 z M 168,168 l 6,0 0,6 -6,0 z M 210,168 l 6,0 0,6 -6,0 z M 222,168 l 6,0 0,6 -6,0 z M 6,174 l 6,0 0,6 -6,0 z M 12,174 l 6,0 0,6 -6,0 z M 18,174 l 6,0 0,6 -6,0 z M 30,174 l 6,0 0,6 -6,0 z M 36,174 l 6,0 0,6 -6,0 z M 42,174 l 6,0 0,6 -6,0 z M 54,174 l 6,0 0,6 -6,0 z M 60,174 l 6,0 0,6 -6,0 z M 66,174 l 6,0 0,6 -6,0 z M 72,174 l 6,0 0,6 -6,0 z M 78,174 l 6,0 0,6 -6,0 z M 96,174 l 6,0 0,6 -6,0 z M 114,174 l 6,0 0,6 -6,0 z M 132,174 l 6,0 0,6 -6,0 z M 186,174 l 6,0 0,6 -6,0 z M 198,174 l 6,0 0,6 -6,0 z M 216,174 l 6,0 0,6 -6,0 z M 240,174 l 6,0 0,6 -6,0 z M 6,180 l 6,0 0,6 -6,0 z M 24,180 l 6,0 0,6 -6,0 z M 30,180 l 6,0 0,6 -6,0 z M 60,180 l 6,0 0,6 -6,0 z M 84,180 l 6,0 0,6 -6,0 z M 90,180 l 6,0 0,6 -6,0 z M 96,180 l 6,0 0,6 -6,0 z M 102,180 l 6,0 0,6 -6,0 z M 108,180 l 6,0 0,6 -6,0 z M 126,180 l 6,0 0,6 -6,0 z M 132,180 l 6,0 0,6 -6,0 z M 150,180 l 6,0 0,6 -6,0 z M 162,180 l 6,0 0,6 -6,0 z M 168,180 l 6,0 0,6 -6,0 z M 186,180 l 6,0 0,6 -6,0 z M 192,180 l 6,0 0,6 -6,0 z M 210,180 l 6,0 0,6 -6,0 z M 216,180 l 6,0 0,6 -6,0 z M 222,180 l 6,0 0,6 -6,0 z M 240,180 l 6,0 0,6 -6,0 z M 6,186 l 6,0 0,6 -6,0 z M 30,186 l 6,0 0,6 -6,0 z M 36,186 l 6,0 0,6 -6,0 z M 42,186 l 6,0 0,6 -6,0 z M 48,186 l 6,0 0,6 -6,0 z M 66,186 l 6,0 0,6 -6,0 z M 72,186 l 6,0 0,6 -6,0 z M 78,186 l 6,0 0,6 -6,0 z M 114,186 l 6,0 0,6 -6,0 z M 120,186 l 6,0 0,6 -6,0 z M 126,186 l 6,0 0,6 -6,0 z M 132,186 l 6,0 0,6 -6,0 z M 144,186 l 6,0 0,6 -6,0 z M 180,186 l 6,0 0,6 -6,0 z M 204,186 l 6,0 0,6 -6,0 z M 216,186 l 6,0 0,6 -6,0 z M 228,186 l 6,0 0,6 -6,0 z M 234,186 l 6,0 0,6 -6,0 z M 240,186 l 6,0 0,6 -6,0 z M 246,186 l 6,0 0,6 -6,0 z M 6,192 l 6,0 0,6 -6,0 z M 18,192 l 6,0 0,6 -6,0 z M 36,192 l 6,0 0,6 -6,0 z M 48,192 l 6,0 0,6 -6,0 z M 72,192 l 6,0 0,6 -6,0 z M 90,192 l 6,0 0,6 -6,0 z M 102,192 l 6,0 0,6 -6,0 z M 120,192 l 6,0 0,6 -6,0 z M 126,192 l 6,0 0,6 -6,0 z M 132,192 l 6,0 0,6 -6,0 z M 144,192 l 6,0 0,6 -6,0 z M 150,192 l 6,0 0,6 -6,0 z M 168,192 l 6,0 0,6 -6,0 z M 174,192 l 6,0 0,6 -6,0 z M 198,192 l 6,0 0,6 -6,0 z M 204,192 l 6,0 0,6 -6,0 z M 228,192 l 6,0 0,6 -6,0 z M 246,192 l 6,0 0,6 -6,0 z M 6,198 l 6,0 0,6 -6,0 z M 36,198 l 6,0 0,6 -6,0 z M 42,198 l 6,0 0,6 -6,0 z M 48,198 l 6,0 0,6 -6,0 z M 60,198 l 6,0 0,6 -6,0 z M 66,198 l 6,0 0,6 -6,0 z M 72,198 l 6,0 0,6 -6,0 z M 78,198 l 6,0 0,6 -6,0 z M 84,198 l 6,0 0,6 -6,0 z M 102,198 l 6,0 0,6 -6,0 z M 108,198 l 6,0 0,6 -6,0 z M 114,198 l 6,0 0,6 -6,0 z M 138,198 l 6,0 0,6 -6,0 z M 156,198 l 6,0 0,6 -6,0 z M 168,198 l 6,0 0,6 -6,0 z M 180,198 l 6,0 0,6 -6,0 z M 192,198 l 6,0 0,6 -6,0 z M 198,198 l 6,0 0,6 -6,0 z M 204,198 l 6,0 0,6 -6,0 z M 210,198 l 6,0 0,6 -6,0 z M 216,198 l 6,0 0,6 -6,0 z M 222,198 l 6,0 0,6 -6,0 z M 234,198 l 6,0 0,6 -6,0 z M 240,198 l 6,0 0,6 -6,0 z M 54,204 l 6,0 0,6 -6,0 z M 72,204 l 6,0 0,6 -6,0 z M 84,204 l 6,0 0,6 -6,0 z M 90,204 l 6,0 0,6 -6,0 z M 96,204 l 6,0 0,6 -6,0 z M 108,204 l 6,0 0,6 -6,0 z M 120,204 l 6,0 0,6 -6,0 z M 126,204 l 6,0 0,6 -6,0 z M 132,204 l 6,0 0,6 -6,0 z M 162,204 l 6,0 0,6 -6,0 z M 168,204 l 6,0 0,6 -6,0 z M 186,204 l 6,0 0,6 -6,0 z M 198,204 l 6,0 0,6 -6,0 z M 222,204 l 6,0 0,6 -6,0 z M 234,204 l 6,0 0,6 -6,0 z M 240,204 l 6,0 0,6 -6,0 z M 6,210 l 6,0 0,6 -6,0 z M 12,210 l 6,0 0,6 -6,0 z M 18,210 l 6,0 0,6 -6,0 z M 24,210 l 6,0 0,6 -6,0 z M 30,210 l 6,0 0,6 -6,0 z M 36,210 l 6,0 0,6 -6,0 z M 42,210 l 6,0 0,6 -6,0 z M 54,210 l 6,0 0,6 -6,0 z M 78,210 l 6,0 0,6 -6,0 z M 84,210 l 6,0 0,6 -6,0 z M 90,210 l 6,0 0,6 -6,0 z M 108,210 l 6,0 0,6 -6,0 z M 132,210 l 6,0 0,6 -6,0 z M 138,210 l 6,0 0,6 -6,0 z M 150,210 l 6,0 0,6 -6,0 z M 156,210 l 6,0 0,6 -6,0 z M 168,210 l 6,0 0,6 -6,0 z M 174,210 l 6,0 0,6 -6,0 z M 180,210 l 6,0 0,6 -6,0 z M 186,210 l 6,0 0,6 -6,0 z M 198,210 l 6,0 0,6 -6,0 z M 210,210 l 6,0 0,6 -6,0 z M 222,210 l 6,0 0,6 -6,0 z M 228,210 l 6,0 0,6 -6,0 z M 234,210 l 6,0 0,6 -6,0 z M 240,210 l 6,0 0,6 -6,0 z M 246,210 l 6,0 0,6 -6,0 z M 6,216 l 6,0 0,6 -6,0 z M 42,216 l 6,0 0,6 -6,0 z M 60,216 l 6,0 0,6 -6,0 z M 78,216 l 6,0 0,6 -6,0 z M 84,216 l 6,0 0,6 -6,0 z M 96,216 l 6,0 0,6 -6,0 z M 108,216 l 6,0 0,6 -6,0 z M 114,216 l 6,0 0,6 -6,0 z M 126,216 l 6,0 0,6 -6,0 z M 132,216 l 6,0 0,6 -6,0 z M 150,216 l 6,0 0,6 -6,0 z M 162,216 l 6,0 0,6 -6,0 z M 174,216 l 6,0 0,6 -6,0 z M 180,216 l 6,0 0,6 -6,0 z M 186,216 l 6,0 0,6 -6,0 z M 198,216 l 6,0 0,6 -6,0 z M 222,216 l 6,0 0,6 -6,0 z M 234,216 l 6,0 0,6 -6,0 z M 6,222 l 6,0 0,6 -6,0 z M 18,222 l 6,0 0,6 -6,0 z M 24,222 l 6,0 0,6 -6,0 z M 30,222 l 6,0 0,6 -6,0 z M 42,222 l 6,0 0,6 -6,0 z M 54,222 l 6,0 0,6 -6,0 z M 60,222 l 6,0 0,6 -6,0 z M 66,222 l 6,0 0,6 -6,0 z M 90,222 l 6,0 0,6 -6,0 z M 96,222 l 6,0 0,6 -6,0 z M 102,222 l 6,0 0,6 -6,0 z M 132,222 l 6,0 0,6 -6,0 z M 168,222 l 6,0 0,6 -6,0 z M 174,222 l 6,0 0,6 -6,0 z M 186,222 l 6,0 0,6 -6,0 z M 198,222 l 6,0 0,6 -6,0 z M 204,222 l 6,0 0,6 -6,0 z M 210,222 l 6,0 0,6 -6,0 z M 216,222 l 6,0 0,6 -6,0 z M 222,222 l 6,0 0,6 -6,0 z M 228,222 l 6,0 0,6 -6,0 z M 240,222 l 6,0 0,6 -6,0 z M 6,228 l 6,0 0,6 -6,0 z M 18,228 l 6,0 0,6 -6,0 z M 24,228 l 6,0 0,6 -6,0 z M 30,228 l 6,0 0,6 -6,0 z M 42,228 l 6,0 0,6 -6,0 z M 54,228 l 6,0 0,6 -6,0 z M 66,228 l 6,0 0,6 -6,0 z M 78,228 l 6,0 0,6 -6,0 z M 96,228 l 6,0 0,6 -6,0 z M 114,228 l 6,0 0,6 -6,0 z M 120,228 l 6,0 0,6 -6,0 z M 144,228 l 6,0 0,6 -6,0 z M 156,228 l 6,0 0,6 -6,0 z M 174,228 l 6,0 0,6 -6,0 z M 180,228 l 6,0 0,6 -6,0 z M 204,228 l 6,0 0,6 -6,0 z M 216,228 l 6,0 0,6 -6,0 z M 222,228 l 6,0 0,6 -6,0 z M 234,228 l 6,0 0,6 -6,0 z M 240,228 l 6,0 0,6 -6,0 z M 6,234 l 6,0 0,6 -6,0 z M 18,234 l 6,0 0,6 -6,0 z M 24,234 l 6,0 0,6 -6,0 z M 30,234 l 6,0 0,6 -6,0 z M 42,234 l 6,0 0,6 -6,0 z M 54,234 l 6,0 0,6 -6,0 z M 60,234 l 6,0 0,6 -6,0 z M 66,234 l 6,0 0,6 -6,0 z M 90,234 l 6,0 0,6 -6,0 z M 96,234 l 6,0 0,6 -6,0 z M 102,234 l 6,0 0,6 -6,0 z M 108,234 l 6,0 0,6 -6,0 z M 132,234 l 6,0 0,6 -6,0 z M 168,234 l 6,0 0,6 -6,0 z M 174,234 l 6,0 0,6 -6,0 z M 180,234 l 6,0 0,6 -6,0 z M 204,234 l 6,0 0,6 -6,0 z M 222,234 l 6,0 0,6 -6,0 z M 228,234 l 6,0 0,6 -6,0 z M 234,234 l 6,0 0,6 -6,0 z M 240,234 l 6,0 0,6 -6,0 z M 6,240 l 6,0 0,6 -6,0 z M 42,240 l 6,0 0,6 -6,0 z M 54,240 l 6,0 0,6 -6,0 z M 66,240 l 6,0 0,6 -6,0 z M 78,240 l 6,0 0,6 -6,0 z M 84,240 l 6,0 0,6 -6,0 z M 96,240 l 6,0 0,6 -6,0 z M 126,240 l 6,0 0,6 -6,0 z M 144,240 l 6,0 0,6 -6,0 z M 150,240 l 6,0 0,6 -6,0 z M 156,240 l 6,0 0,6 -6,0 z M 168,240 l 6,0 0,6 -6,0 z M 186,240 l 6,0 0,6 -6,0 z M 198,240 l 6,0 0,6 -6,0 z M 204,240 l 6,0 0,6 -6,0 z M 210,240 l 6,0 0,6 -6,0 z M 222,240 l 6,0 0,6 -6,0 z M 6,246 l 6,0 0,6 -6,0 z M 12,246 l 6,0 0,6 -6,0 z M 18,246 l 6,0 0,6 -6,0 z M 24,246 l 6,0 0,6 -6,0 z M 30,246 l 6,0 0,6 -6,0 z M 36,246 l 6,0 0,6 -6,0 z M 42,246 l 6,0 0,6 -6,0 z M 54,246 l 6,0 0,6 -6,0 z M 60,246 l 6,0 0,6 -6,0 z M 66,246 l 6,0 0,6 -6,0 z M 78,246 l 6,0 0,6 -6,0 z M 84,246 l 6,0 0,6 -6,0 z M 96,246 l 6,0 0,6 -6,0 z M 102,246 l 6,0 0,6 -6,0 z M 108,246 l 6,0 0,6 -6,0 z M 114,246 l 6,0 0,6 -6,0 z M 120,246 l 6,0 0,6 -6,0 z M 126,246 l 6,0 0,6 -6,0 z M 132,246 l 6,0 0,6 -6,0 z M 138,246 l 6,0 0,6 -6,0 z M 144,246 l 6,0 0,6 -6,0 z M 150,246 l 6,0 0,6 -6,0 z M 162,246 l 6,0 0,6 -6,0 z M 168,246 l 6,0 0,6 -6,0 z M 192,246 l 6,0 0,6 -6,0 z M 198,246 l 6,0 0,6 -6,0 z M 210,246 l 6,0 0,6 -6,0 z M 222,246 l 6,0 0,6 -6,0 z M 240,246 l 6,0 0,6 -6,0 z " />
	</g>
</svg>
