<?xml version="1.0" standalone="no"?>
<svg xmlns="http://www.w3.org/2000/svg" version="1.1" width="222" height="222">
	<!-- Created with https://api.qrserver.com (QR Code API, see goQR.me/api for information) -->
	<title>QR Code</title>
	<desc>{&quot;accountNumber&quot;:&quot;3110017521615&quot;,&quot;accountName&quot;:&quot;SUBARNA BHANDARI&quot;,&quot;bankCode&quot;:&quot;NARBNPKA&quot;}</desc>
	<rect style="fill:rgb(255, 255, 255);fill-opacity:1" x="0" y="0" width="222" height="222" />
	<g id="elements">
		<path style="fill:rgb(0, 0, 0)" d="M 0,0 l 6,0 0,6 -6,0 z M 6,0 l 6,0 0,6 -6,0 z M 12,0 l 6,0 0,6 -6,0 z M 18,0 l 6,0 0,6 -6,0 z M 24,0 l 6,0 0,6 -6,0 z M 30,0 l 6,0 0,6 -6,0 z M 36,0 l 6,0 0,6 -6,0 z M 54,0 l 6,0 0,6 -6,0 z M 90,0 l 6,0 0,6 -6,0 z M 96,0 l 6,0 0,6 -6,0 z M 102,0 l 6,0 0,6 -6,0 z M 108,0 l 6,0 0,6 -6,0 z M 120,0 l 6,0 0,6 -6,0 z M 150,0 l 6,0 0,6 -6,0 z M 162,0 l 6,0 0,6 -6,0 z M 180,0 l 6,0 0,6 -6,0 z M 186,0 l 6,0 0,6 -6,0 z M 192,0 l 6,0 0,6 -6,0 z M 198,0 l 6,0 0,6 -6,0 z M 204,0 l 6,0 0,6 -6,0 z M 210,0 l 6,0 0,6 -6,0 z M 216,0 l 6,0 0,6 -6,0 z M 0,6 l 6,0 0,6 -6,0 z M 36,6 l 6,0 0,6 -6,0 z M 48,6 l 6,0 0,6 -6,0 z M 54,6 l 6,0 0,6 -6,0 z M 66,6 l 6,0 0,6 -6,0 z M 72,6 l 6,0 0,6 -6,0 z M 102,6 l 6,0 0,6 -6,0 z M 108,6 l 6,0 0,6 -6,0 z M 114,6 l 6,0 0,6 -6,0 z M 126,6 l 6,0 0,6 -6,0 z M 132,6 l 6,0 0,6 -6,0 z M 138,6 l 6,0 0,6 -6,0 z M 156,6 l 6,0 0,6 -6,0 z M 168,6 l 6,0 0,6 -6,0 z M 180,6 l 6,0 0,6 -6,0 z M 216,6 l 6,0 0,6 -6,0 z M 0,12 l 6,0 0,6 -6,0 z M 12,12 l 6,0 0,6 -6,0 z M 18,12 l 6,0 0,6 -6,0 z M 24,12 l 6,0 0,6 -6,0 z M 36,12 l 6,0 0,6 -6,0 z M 54,12 l 6,0 0,6 -6,0 z M 60,12 l 6,0 0,6 -6,0 z M 66,12 l 6,0 0,6 -6,0 z M 84,12 l 6,0 0,6 -6,0 z M 96,12 l 6,0 0,6 -6,0 z M 108,12 l 6,0 0,6 -6,0 z M 138,12 l 6,0 0,6 -6,0 z M 144,12 l 6,0 0,6 -6,0 z M 150,12 l 6,0 0,6 -6,0 z M 156,12 l 6,0 0,6 -6,0 z M 162,12 l 6,0 0,6 -6,0 z M 168,12 l 6,0 0,6 -6,0 z M 180,12 l 6,0 0,6 -6,0 z M 192,12 l 6,0 0,6 -6,0 z M 198,12 l 6,0 0,6 -6,0 z M 204,12 l 6,0 0,6 -6,0 z M 216,12 l 6,0 0,6 -6,0 z M 0,18 l 6,0 0,6 -6,0 z M 12,18 l 6,0 0,6 -6,0 z M 18,18 l 6,0 0,6 -6,0 z M 24,18 l 6,0 0,6 -6,0 z M 36,18 l 6,0 0,6 -6,0 z M 48,18 l 6,0 0,6 -6,0 z M 54,18 l 6,0 0,6 -6,0 z M 66,18 l 6,0 0,6 -6,0 z M 96,18 l 6,0 0,6 -6,0 z M 114,18 l 6,0 0,6 -6,0 z M 126,18 l 6,0 0,6 -6,0 z M 144,18 l 6,0 0,6 -6,0 z M 150,18 l 6,0 0,6 -6,0 z M 180,18 l 6,0 0,6 -6,0 z M 192,18 l 6,0 0,6 -6,0 z M 198,18 l 6,0 0,6 -6,0 z M 204,18 l 6,0 0,6 -6,0 z M 216,18 l 6,0 0,6 -6,0 z M 0,24 l 6,0 0,6 -6,0 z M 12,24 l 6,0 0,6 -6,0 z M 18,24 l 6,0 0,6 -6,0 z M 24,24 l 6,0 0,6 -6,0 z M 36,24 l 6,0 0,6 -6,0 z M 60,24 l 6,0 0,6 -6,0 z M 72,24 l 6,0 0,6 -6,0 z M 78,24 l 6,0 0,6 -6,0 z M 84,24 l 6,0 0,6 -6,0 z M 90,24 l 6,0 0,6 -6,0 z M 108,24 l 6,0 0,6 -6,0 z M 120,24 l 6,0 0,6 -6,0 z M 126,24 l 6,0 0,6 -6,0 z M 138,24 l 6,0 0,6 -6,0 z M 150,24 l 6,0 0,6 -6,0 z M 156,24 l 6,0 0,6 -6,0 z M 162,24 l 6,0 0,6 -6,0 z M 180,24 l 6,0 0,6 -6,0 z M 192,24 l 6,0 0,6 -6,0 z M 198,24 l 6,0 0,6 -6,0 z M 204,24 l 6,0 0,6 -6,0 z M 216,24 l 6,0 0,6 -6,0 z M 0,30 l 6,0 0,6 -6,0 z M 36,30 l 6,0 0,6 -6,0 z M 48,30 l 6,0 0,6 -6,0 z M 60,30 l 6,0 0,6 -6,0 z M 78,30 l 6,0 0,6 -6,0 z M 84,30 l 6,0 0,6 -6,0 z M 90,30 l 6,0 0,6 -6,0 z M 96,30 l 6,0 0,6 -6,0 z M 114,30 l 6,0 0,6 -6,0 z M 126,30 l 6,0 0,6 -6,0 z M 156,30 l 6,0 0,6 -6,0 z M 168,30 l 6,0 0,6 -6,0 z M 180,30 l 6,0 0,6 -6,0 z M 216,30 l 6,0 0,6 -6,0 z M 0,36 l 6,0 0,6 -6,0 z M 6,36 l 6,0 0,6 -6,0 z M 12,36 l 6,0 0,6 -6,0 z M 18,36 l 6,0 0,6 -6,0 z M 24,36 l 6,0 0,6 -6,0 z M 30,36 l 6,0 0,6 -6,0 z M 36,36 l 6,0 0,6 -6,0 z M 48,36 l 6,0 0,6 -6,0 z M 60,36 l 6,0 0,6 -6,0 z M 72,36 l 6,0 0,6 -6,0 z M 84,36 l 6,0 0,6 -6,0 z M 96,36 l 6,0 0,6 -6,0 z M 108,36 l 6,0 0,6 -6,0 z M 120,36 l 6,0 0,6 -6,0 z M 132,36 l 6,0 0,6 -6,0 z M 144,36 l 6,0 0,6 -6,0 z M 156,36 l 6,0 0,6 -6,0 z M 168,36 l 6,0 0,6 -6,0 z M 180,36 l 6,0 0,6 -6,0 z M 186,36 l 6,0 0,6 -6,0 z M 192,36 l 6,0 0,6 -6,0 z M 198,36 l 6,0 0,6 -6,0 z M 204,36 l 6,0 0,6 -6,0 z M 210,36 l 6,0 0,6 -6,0 z M 216,36 l 6,0 0,6 -6,0 z M 72,42 l 6,0 0,6 -6,0 z M 78,42 l 6,0 0,6 -6,0 z M 90,42 l 6,0 0,6 -6,0 z M 108,42 l 6,0 0,6 -6,0 z M 114,42 l 6,0 0,6 -6,0 z M 120,42 l 6,0 0,6 -6,0 z M 126,42 l 6,0 0,6 -6,0 z M 150,42 l 6,0 0,6 -6,0 z M 156,42 l 6,0 0,6 -6,0 z M 162,42 l 6,0 0,6 -6,0 z M 168,42 l 6,0 0,6 -6,0 z M 0,48 l 6,0 0,6 -6,0 z M 6,48 l 6,0 0,6 -6,0 z M 12,48 l 6,0 0,6 -6,0 z M 18,48 l 6,0 0,6 -6,0 z M 24,48 l 6,0 0,6 -6,0 z M 36,48 l 6,0 0,6 -6,0 z M 42,48 l 6,0 0,6 -6,0 z M 48,48 l 6,0 0,6 -6,0 z M 54,48 l 6,0 0,6 -6,0 z M 60,48 l 6,0 0,6 -6,0 z M 72,48 l 6,0 0,6 -6,0 z M 84,48 l 6,0 0,6 -6,0 z M 90,48 l 6,0 0,6 -6,0 z M 102,48 l 6,0 0,6 -6,0 z M 114,48 l 6,0 0,6 -6,0 z M 120,48 l 6,0 0,6 -6,0 z M 126,48 l 6,0 0,6 -6,0 z M 138,48 l 6,0 0,6 -6,0 z M 144,48 l 6,0 0,6 -6,0 z M 156,48 l 6,0 0,6 -6,0 z M 162,48 l 6,0 0,6 -6,0 z M 174,48 l 6,0 0,6 -6,0 z M 186,48 l 6,0 0,6 -6,0 z M 198,48 l 6,0 0,6 -6,0 z M 210,48 l 6,0 0,6 -6,0 z M 6,54 l 6,0 0,6 -6,0 z M 12,54 l 6,0 0,6 -6,0 z M 18,54 l 6,0 0,6 -6,0 z M 24,54 l 6,0 0,6 -6,0 z M 30,54 l 6,0 0,6 -6,0 z M 42,54 l 6,0 0,6 -6,0 z M 48,54 l 6,0 0,6 -6,0 z M 54,54 l 6,0 0,6 -6,0 z M 90,54 l 6,0 0,6 -6,0 z M 96,54 l 6,0 0,6 -6,0 z M 120,54 l 6,0 0,6 -6,0 z M 156,54 l 6,0 0,6 -6,0 z M 162,54 l 6,0 0,6 -6,0 z M 174,54 l 6,0 0,6 -6,0 z M 180,54 l 6,0 0,6 -6,0 z M 204,54 l 6,0 0,6 -6,0 z M 0,60 l 6,0 0,6 -6,0 z M 6,60 l 6,0 0,6 -6,0 z M 36,60 l 6,0 0,6 -6,0 z M 54,60 l 6,0 0,6 -6,0 z M 60,60 l 6,0 0,6 -6,0 z M 66,60 l 6,0 0,6 -6,0 z M 72,60 l 6,0 0,6 -6,0 z M 114,60 l 6,0 0,6 -6,0 z M 132,60 l 6,0 0,6 -6,0 z M 138,60 l 6,0 0,6 -6,0 z M 144,60 l 6,0 0,6 -6,0 z M 156,60 l 6,0 0,6 -6,0 z M 168,60 l 6,0 0,6 -6,0 z M 180,60 l 6,0 0,6 -6,0 z M 192,60 l 6,0 0,6 -6,0 z M 204,60 l 6,0 0,6 -6,0 z M 210,60 l 6,0 0,6 -6,0 z M 216,60 l 6,0 0,6 -6,0 z M 6,66 l 6,0 0,6 -6,0 z M 12,66 l 6,0 0,6 -6,0 z M 18,66 l 6,0 0,6 -6,0 z M 24,66 l 6,0 0,6 -6,0 z M 30,66 l 6,0 0,6 -6,0 z M 48,66 l 6,0 0,6 -6,0 z M 66,66 l 6,0 0,6 -6,0 z M 84,66 l 6,0 0,6 -6,0 z M 96,66 l 6,0 0,6 -6,0 z M 108,66 l 6,0 0,6 -6,0 z M 114,66 l 6,0 0,6 -6,0 z M 120,66 l 6,0 0,6 -6,0 z M 150,66 l 6,0 0,6 -6,0 z M 156,66 l 6,0 0,6 -6,0 z M 162,66 l 6,0 0,6 -6,0 z M 180,66 l 6,0 0,6 -6,0 z M 210,66 l 6,0 0,6 -6,0 z M 6,72 l 6,0 0,6 -6,0 z M 18,72 l 6,0 0,6 -6,0 z M 24,72 l 6,0 0,6 -6,0 z M 30,72 l 6,0 0,6 -6,0 z M 36,72 l 6,0 0,6 -6,0 z M 42,72 l 6,0 0,6 -6,0 z M 60,72 l 6,0 0,6 -6,0 z M 66,72 l 6,0 0,6 -6,0 z M 126,72 l 6,0 0,6 -6,0 z M 132,72 l 6,0 0,6 -6,0 z M 138,72 l 6,0 0,6 -6,0 z M 150,72 l 6,0 0,6 -6,0 z M 180,72 l 6,0 0,6 -6,0 z M 192,72 l 6,0 0,6 -6,0 z M 204,72 l 6,0 0,6 -6,0 z M 216,72 l 6,0 0,6 -6,0 z M 6,78 l 6,0 0,6 -6,0 z M 18,78 l 6,0 0,6 -6,0 z M 72,78 l 6,0 0,6 -6,0 z M 78,78 l 6,0 0,6 -6,0 z M 84,78 l 6,0 0,6 -6,0 z M 90,78 l 6,0 0,6 -6,0 z M 108,78 l 6,0 0,6 -6,0 z M 138,78 l 6,0 0,6 -6,0 z M 150,78 l 6,0 0,6 -6,0 z M 156,78 l 6,0 0,6 -6,0 z M 162,78 l 6,0 0,6 -6,0 z M 174,78 l 6,0 0,6 -6,0 z M 6,84 l 6,0 0,6 -6,0 z M 12,84 l 6,0 0,6 -6,0 z M 18,84 l 6,0 0,6 -6,0 z M 36,84 l 6,0 0,6 -6,0 z M 42,84 l 6,0 0,6 -6,0 z M 60,84 l 6,0 0,6 -6,0 z M 78,84 l 6,0 0,6 -6,0 z M 84,84 l 6,0 0,6 -6,0 z M 90,84 l 6,0 0,6 -6,0 z M 114,84 l 6,0 0,6 -6,0 z M 138,84 l 6,0 0,6 -6,0 z M 144,84 l 6,0 0,6 -6,0 z M 174,84 l 6,0 0,6 -6,0 z M 180,84 l 6,0 0,6 -6,0 z M 192,84 l 6,0 0,6 -6,0 z M 210,84 l 6,0 0,6 -6,0 z M 216,84 l 6,0 0,6 -6,0 z M 0,90 l 6,0 0,6 -6,0 z M 12,90 l 6,0 0,6 -6,0 z M 18,90 l 6,0 0,6 -6,0 z M 54,90 l 6,0 0,6 -6,0 z M 72,90 l 6,0 0,6 -6,0 z M 78,90 l 6,0 0,6 -6,0 z M 90,90 l 6,0 0,6 -6,0 z M 108,90 l 6,0 0,6 -6,0 z M 114,90 l 6,0 0,6 -6,0 z M 120,90 l 6,0 0,6 -6,0 z M 126,90 l 6,0 0,6 -6,0 z M 144,90 l 6,0 0,6 -6,0 z M 150,90 l 6,0 0,6 -6,0 z M 156,90 l 6,0 0,6 -6,0 z M 162,90 l 6,0 0,6 -6,0 z M 174,90 l 6,0 0,6 -6,0 z M 180,90 l 6,0 0,6 -6,0 z M 192,90 l 6,0 0,6 -6,0 z M 210,90 l 6,0 0,6 -6,0 z M 12,96 l 6,0 0,6 -6,0 z M 30,96 l 6,0 0,6 -6,0 z M 36,96 l 6,0 0,6 -6,0 z M 72,96 l 6,0 0,6 -6,0 z M 84,96 l 6,0 0,6 -6,0 z M 90,96 l 6,0 0,6 -6,0 z M 96,96 l 6,0 0,6 -6,0 z M 120,96 l 6,0 0,6 -6,0 z M 126,96 l 6,0 0,6 -6,0 z M 132,96 l 6,0 0,6 -6,0 z M 138,96 l 6,0 0,6 -6,0 z M 144,96 l 6,0 0,6 -6,0 z M 156,96 l 6,0 0,6 -6,0 z M 162,96 l 6,0 0,6 -6,0 z M 168,96 l 6,0 0,6 -6,0 z M 180,96 l 6,0 0,6 -6,0 z M 186,96 l 6,0 0,6 -6,0 z M 192,96 l 6,0 0,6 -6,0 z M 198,96 l 6,0 0,6 -6,0 z M 204,96 l 6,0 0,6 -6,0 z M 216,96 l 6,0 0,6 -6,0 z M 0,102 l 6,0 0,6 -6,0 z M 18,102 l 6,0 0,6 -6,0 z M 30,102 l 6,0 0,6 -6,0 z M 42,102 l 6,0 0,6 -6,0 z M 60,102 l 6,0 0,6 -6,0 z M 90,102 l 6,0 0,6 -6,0 z M 96,102 l 6,0 0,6 -6,0 z M 108,102 l 6,0 0,6 -6,0 z M 120,102 l 6,0 0,6 -6,0 z M 126,102 l 6,0 0,6 -6,0 z M 132,102 l 6,0 0,6 -6,0 z M 138,102 l 6,0 0,6 -6,0 z M 144,102 l 6,0 0,6 -6,0 z M 156,102 l 6,0 0,6 -6,0 z M 174,102 l 6,0 0,6 -6,0 z M 204,102 l 6,0 0,6 -6,0 z M 0,108 l 6,0 0,6 -6,0 z M 6,108 l 6,0 0,6 -6,0 z M 24,108 l 6,0 0,6 -6,0 z M 30,108 l 6,0 0,6 -6,0 z M 36,108 l 6,0 0,6 -6,0 z M 42,108 l 6,0 0,6 -6,0 z M 54,108 l 6,0 0,6 -6,0 z M 60,108 l 6,0 0,6 -6,0 z M 66,108 l 6,0 0,6 -6,0 z M 72,108 l 6,0 0,6 -6,0 z M 96,108 l 6,0 0,6 -6,0 z M 108,108 l 6,0 0,6 -6,0 z M 114,108 l 6,0 0,6 -6,0 z M 144,108 l 6,0 0,6 -6,0 z M 174,108 l 6,0 0,6 -6,0 z M 180,108 l 6,0 0,6 -6,0 z M 192,108 l 6,0 0,6 -6,0 z M 198,108 l 6,0 0,6 -6,0 z M 204,108 l 6,0 0,6 -6,0 z M 210,108 l 6,0 0,6 -6,0 z M 216,108 l 6,0 0,6 -6,0 z M 0,114 l 6,0 0,6 -6,0 z M 18,114 l 6,0 0,6 -6,0 z M 24,114 l 6,0 0,6 -6,0 z M 30,114 l 6,0 0,6 -6,0 z M 42,114 l 6,0 0,6 -6,0 z M 48,114 l 6,0 0,6 -6,0 z M 54,114 l 6,0 0,6 -6,0 z M 60,114 l 6,0 0,6 -6,0 z M 66,114 l 6,0 0,6 -6,0 z M 84,114 l 6,0 0,6 -6,0 z M 96,114 l 6,0 0,6 -6,0 z M 102,114 l 6,0 0,6 -6,0 z M 108,114 l 6,0 0,6 -6,0 z M 120,114 l 6,0 0,6 -6,0 z M 132,114 l 6,0 0,6 -6,0 z M 156,114 l 6,0 0,6 -6,0 z M 162,114 l 6,0 0,6 -6,0 z M 174,114 l 6,0 0,6 -6,0 z M 210,114 l 6,0 0,6 -6,0 z M 216,114 l 6,0 0,6 -6,0 z M 0,120 l 6,0 0,6 -6,0 z M 18,120 l 6,0 0,6 -6,0 z M 36,120 l 6,0 0,6 -6,0 z M 48,120 l 6,0 0,6 -6,0 z M 66,120 l 6,0 0,6 -6,0 z M 90,120 l 6,0 0,6 -6,0 z M 108,120 l 6,0 0,6 -6,0 z M 114,120 l 6,0 0,6 -6,0 z M 120,120 l 6,0 0,6 -6,0 z M 126,120 l 6,0 0,6 -6,0 z M 150,120 l 6,0 0,6 -6,0 z M 180,120 l 6,0 0,6 -6,0 z M 192,120 l 6,0 0,6 -6,0 z M 204,120 l 6,0 0,6 -6,0 z M 216,120 l 6,0 0,6 -6,0 z M 6,126 l 6,0 0,6 -6,0 z M 12,126 l 6,0 0,6 -6,0 z M 18,126 l 6,0 0,6 -6,0 z M 30,126 l 6,0 0,6 -6,0 z M 42,126 l 6,0 0,6 -6,0 z M 48,126 l 6,0 0,6 -6,0 z M 54,126 l 6,0 0,6 -6,0 z M 60,126 l 6,0 0,6 -6,0 z M 72,126 l 6,0 0,6 -6,0 z M 78,126 l 6,0 0,6 -6,0 z M 84,126 l 6,0 0,6 -6,0 z M 102,126 l 6,0 0,6 -6,0 z M 108,126 l 6,0 0,6 -6,0 z M 120,126 l 6,0 0,6 -6,0 z M 132,126 l 6,0 0,6 -6,0 z M 144,126 l 6,0 0,6 -6,0 z M 150,126 l 6,0 0,6 -6,0 z M 156,126 l 6,0 0,6 -6,0 z M 162,126 l 6,0 0,6 -6,0 z M 180,126 l 6,0 0,6 -6,0 z M 0,132 l 6,0 0,6 -6,0 z M 6,132 l 6,0 0,6 -6,0 z M 12,132 l 6,0 0,6 -6,0 z M 18,132 l 6,0 0,6 -6,0 z M 24,132 l 6,0 0,6 -6,0 z M 36,132 l 6,0 0,6 -6,0 z M 42,132 l 6,0 0,6 -6,0 z M 78,132 l 6,0 0,6 -6,0 z M 84,132 l 6,0 0,6 -6,0 z M 90,132 l 6,0 0,6 -6,0 z M 108,132 l 6,0 0,6 -6,0 z M 114,132 l 6,0 0,6 -6,0 z M 144,132 l 6,0 0,6 -6,0 z M 180,132 l 6,0 0,6 -6,0 z M 192,132 l 6,0 0,6 -6,0 z M 198,132 l 6,0 0,6 -6,0 z M 210,132 l 6,0 0,6 -6,0 z M 216,132 l 6,0 0,6 -6,0 z M 0,138 l 6,0 0,6 -6,0 z M 18,138 l 6,0 0,6 -6,0 z M 24,138 l 6,0 0,6 -6,0 z M 30,138 l 6,0 0,6 -6,0 z M 42,138 l 6,0 0,6 -6,0 z M 72,138 l 6,0 0,6 -6,0 z M 78,138 l 6,0 0,6 -6,0 z M 108,138 l 6,0 0,6 -6,0 z M 114,138 l 6,0 0,6 -6,0 z M 126,138 l 6,0 0,6 -6,0 z M 138,138 l 6,0 0,6 -6,0 z M 144,138 l 6,0 0,6 -6,0 z M 150,138 l 6,0 0,6 -6,0 z M 156,138 l 6,0 0,6 -6,0 z M 162,138 l 6,0 0,6 -6,0 z M 168,138 l 6,0 0,6 -6,0 z M 180,138 l 6,0 0,6 -6,0 z M 0,144 l 6,0 0,6 -6,0 z M 12,144 l 6,0 0,6 -6,0 z M 18,144 l 6,0 0,6 -6,0 z M 24,144 l 6,0 0,6 -6,0 z M 30,144 l 6,0 0,6 -6,0 z M 36,144 l 6,0 0,6 -6,0 z M 42,144 l 6,0 0,6 -6,0 z M 48,144 l 6,0 0,6 -6,0 z M 60,144 l 6,0 0,6 -6,0 z M 72,144 l 6,0 0,6 -6,0 z M 84,144 l 6,0 0,6 -6,0 z M 90,144 l 6,0 0,6 -6,0 z M 102,144 l 6,0 0,6 -6,0 z M 108,144 l 6,0 0,6 -6,0 z M 144,144 l 6,0 0,6 -6,0 z M 162,144 l 6,0 0,6 -6,0 z M 174,144 l 6,0 0,6 -6,0 z M 180,144 l 6,0 0,6 -6,0 z M 186,144 l 6,0 0,6 -6,0 z M 192,144 l 6,0 0,6 -6,0 z M 198,144 l 6,0 0,6 -6,0 z M 216,144 l 6,0 0,6 -6,0 z M 0,150 l 6,0 0,6 -6,0 z M 6,150 l 6,0 0,6 -6,0 z M 12,150 l 6,0 0,6 -6,0 z M 18,150 l 6,0 0,6 -6,0 z M 42,150 l 6,0 0,6 -6,0 z M 60,150 l 6,0 0,6 -6,0 z M 102,150 l 6,0 0,6 -6,0 z M 108,150 l 6,0 0,6 -6,0 z M 120,150 l 6,0 0,6 -6,0 z M 144,150 l 6,0 0,6 -6,0 z M 162,150 l 6,0 0,6 -6,0 z M 168,150 l 6,0 0,6 -6,0 z M 186,150 l 6,0 0,6 -6,0 z M 204,150 l 6,0 0,6 -6,0 z M 0,156 l 6,0 0,6 -6,0 z M 12,156 l 6,0 0,6 -6,0 z M 24,156 l 6,0 0,6 -6,0 z M 36,156 l 6,0 0,6 -6,0 z M 42,156 l 6,0 0,6 -6,0 z M 48,156 l 6,0 0,6 -6,0 z M 60,156 l 6,0 0,6 -6,0 z M 66,156 l 6,0 0,6 -6,0 z M 72,156 l 6,0 0,6 -6,0 z M 90,156 l 6,0 0,6 -6,0 z M 102,156 l 6,0 0,6 -6,0 z M 108,156 l 6,0 0,6 -6,0 z M 114,156 l 6,0 0,6 -6,0 z M 126,156 l 6,0 0,6 -6,0 z M 138,156 l 6,0 0,6 -6,0 z M 144,156 l 6,0 0,6 -6,0 z M 156,156 l 6,0 0,6 -6,0 z M 162,156 l 6,0 0,6 -6,0 z M 174,156 l 6,0 0,6 -6,0 z M 186,156 l 6,0 0,6 -6,0 z M 198,156 l 6,0 0,6 -6,0 z M 204,156 l 6,0 0,6 -6,0 z M 216,156 l 6,0 0,6 -6,0 z M 0,162 l 6,0 0,6 -6,0 z M 12,162 l 6,0 0,6 -6,0 z M 18,162 l 6,0 0,6 -6,0 z M 30,162 l 6,0 0,6 -6,0 z M 54,162 l 6,0 0,6 -6,0 z M 60,162 l 6,0 0,6 -6,0 z M 66,162 l 6,0 0,6 -6,0 z M 84,162 l 6,0 0,6 -6,0 z M 90,162 l 6,0 0,6 -6,0 z M 120,162 l 6,0 0,6 -6,0 z M 126,162 l 6,0 0,6 -6,0 z M 144,162 l 6,0 0,6 -6,0 z M 150,162 l 6,0 0,6 -6,0 z M 156,162 l 6,0 0,6 -6,0 z M 162,162 l 6,0 0,6 -6,0 z M 174,162 l 6,0 0,6 -6,0 z M 186,162 l 6,0 0,6 -6,0 z M 210,162 l 6,0 0,6 -6,0 z M 0,168 l 6,0 0,6 -6,0 z M 30,168 l 6,0 0,6 -6,0 z M 36,168 l 6,0 0,6 -6,0 z M 54,168 l 6,0 0,6 -6,0 z M 60,168 l 6,0 0,6 -6,0 z M 66,168 l 6,0 0,6 -6,0 z M 90,168 l 6,0 0,6 -6,0 z M 102,168 l 6,0 0,6 -6,0 z M 108,168 l 6,0 0,6 -6,0 z M 126,168 l 6,0 0,6 -6,0 z M 138,168 l 6,0 0,6 -6,0 z M 144,168 l 6,0 0,6 -6,0 z M 150,168 l 6,0 0,6 -6,0 z M 162,168 l 6,0 0,6 -6,0 z M 168,168 l 6,0 0,6 -6,0 z M 174,168 l 6,0 0,6 -6,0 z M 180,168 l 6,0 0,6 -6,0 z M 186,168 l 6,0 0,6 -6,0 z M 192,168 l 6,0 0,6 -6,0 z M 204,168 l 6,0 0,6 -6,0 z M 48,174 l 6,0 0,6 -6,0 z M 54,174 l 6,0 0,6 -6,0 z M 72,174 l 6,0 0,6 -6,0 z M 78,174 l 6,0 0,6 -6,0 z M 84,174 l 6,0 0,6 -6,0 z M 90,174 l 6,0 0,6 -6,0 z M 96,174 l 6,0 0,6 -6,0 z M 120,174 l 6,0 0,6 -6,0 z M 132,174 l 6,0 0,6 -6,0 z M 144,174 l 6,0 0,6 -6,0 z M 156,174 l 6,0 0,6 -6,0 z M 168,174 l 6,0 0,6 -6,0 z M 192,174 l 6,0 0,6 -6,0 z M 210,174 l 6,0 0,6 -6,0 z M 0,180 l 6,0 0,6 -6,0 z M 6,180 l 6,0 0,6 -6,0 z M 12,180 l 6,0 0,6 -6,0 z M 18,180 l 6,0 0,6 -6,0 z M 24,180 l 6,0 0,6 -6,0 z M 30,180 l 6,0 0,6 -6,0 z M 36,180 l 6,0 0,6 -6,0 z M 48,180 l 6,0 0,6 -6,0 z M 54,180 l 6,0 0,6 -6,0 z M 60,180 l 6,0 0,6 -6,0 z M 78,180 l 6,0 0,6 -6,0 z M 84,180 l 6,0 0,6 -6,0 z M 90,180 l 6,0 0,6 -6,0 z M 102,180 l 6,0 0,6 -6,0 z M 108,180 l 6,0 0,6 -6,0 z M 114,180 l 6,0 0,6 -6,0 z M 126,180 l 6,0 0,6 -6,0 z M 132,180 l 6,0 0,6 -6,0 z M 138,180 l 6,0 0,6 -6,0 z M 144,180 l 6,0 0,6 -6,0 z M 156,180 l 6,0 0,6 -6,0 z M 162,180 l 6,0 0,6 -6,0 z M 168,180 l 6,0 0,6 -6,0 z M 180,180 l 6,0 0,6 -6,0 z M 192,180 l 6,0 0,6 -6,0 z M 210,180 l 6,0 0,6 -6,0 z M 216,180 l 6,0 0,6 -6,0 z M 0,186 l 6,0 0,6 -6,0 z M 36,186 l 6,0 0,6 -6,0 z M 72,186 l 6,0 0,6 -6,0 z M 78,186 l 6,0 0,6 -6,0 z M 96,186 l 6,0 0,6 -6,0 z M 102,186 l 6,0 0,6 -6,0 z M 108,186 l 6,0 0,6 -6,0 z M 120,186 l 6,0 0,6 -6,0 z M 126,186 l 6,0 0,6 -6,0 z M 144,186 l 6,0 0,6 -6,0 z M 150,186 l 6,0 0,6 -6,0 z M 156,186 l 6,0 0,6 -6,0 z M 168,186 l 6,0 0,6 -6,0 z M 192,186 l 6,0 0,6 -6,0 z M 0,192 l 6,0 0,6 -6,0 z M 12,192 l 6,0 0,6 -6,0 z M 18,192 l 6,0 0,6 -6,0 z M 24,192 l 6,0 0,6 -6,0 z M 36,192 l 6,0 0,6 -6,0 z M 48,192 l 6,0 0,6 -6,0 z M 54,192 l 6,0 0,6 -6,0 z M 72,192 l 6,0 0,6 -6,0 z M 84,192 l 6,0 0,6 -6,0 z M 102,192 l 6,0 0,6 -6,0 z M 108,192 l 6,0 0,6 -6,0 z M 126,192 l 6,0 0,6 -6,0 z M 132,192 l 6,0 0,6 -6,0 z M 138,192 l 6,0 0,6 -6,0 z M 144,192 l 6,0 0,6 -6,0 z M 162,192 l 6,0 0,6 -6,0 z M 168,192 l 6,0 0,6 -6,0 z M 174,192 l 6,0 0,6 -6,0 z M 180,192 l 6,0 0,6 -6,0 z M 186,192 l 6,0 0,6 -6,0 z M 192,192 l 6,0 0,6 -6,0 z M 198,192 l 6,0 0,6 -6,0 z M 204,192 l 6,0 0,6 -6,0 z M 216,192 l 6,0 0,6 -6,0 z M 0,198 l 6,0 0,6 -6,0 z M 12,198 l 6,0 0,6 -6,0 z M 18,198 l 6,0 0,6 -6,0 z M 24,198 l 6,0 0,6 -6,0 z M 36,198 l 6,0 0,6 -6,0 z M 48,198 l 6,0 0,6 -6,0 z M 90,198 l 6,0 0,6 -6,0 z M 108,198 l 6,0 0,6 -6,0 z M 120,198 l 6,0 0,6 -6,0 z M 126,198 l 6,0 0,6 -6,0 z M 138,198 l 6,0 0,6 -6,0 z M 156,198 l 6,0 0,6 -6,0 z M 180,198 l 6,0 0,6 -6,0 z M 192,198 l 6,0 0,6 -6,0 z M 204,198 l 6,0 0,6 -6,0 z M 210,198 l 6,0 0,6 -6,0 z M 216,198 l 6,0 0,6 -6,0 z M 0,204 l 6,0 0,6 -6,0 z M 12,204 l 6,0 0,6 -6,0 z M 18,204 l 6,0 0,6 -6,0 z M 24,204 l 6,0 0,6 -6,0 z M 36,204 l 6,0 0,6 -6,0 z M 48,204 l 6,0 0,6 -6,0 z M 66,204 l 6,0 0,6 -6,0 z M 72,204 l 6,0 0,6 -6,0 z M 96,204 l 6,0 0,6 -6,0 z M 108,204 l 6,0 0,6 -6,0 z M 126,204 l 6,0 0,6 -6,0 z M 132,204 l 6,0 0,6 -6,0 z M 138,204 l 6,0 0,6 -6,0 z M 144,204 l 6,0 0,6 -6,0 z M 156,204 l 6,0 0,6 -6,0 z M 180,204 l 6,0 0,6 -6,0 z M 186,204 l 6,0 0,6 -6,0 z M 216,204 l 6,0 0,6 -6,0 z M 0,210 l 6,0 0,6 -6,0 z M 36,210 l 6,0 0,6 -6,0 z M 48,210 l 6,0 0,6 -6,0 z M 54,210 l 6,0 0,6 -6,0 z M 60,210 l 6,0 0,6 -6,0 z M 66,210 l 6,0 0,6 -6,0 z M 84,210 l 6,0 0,6 -6,0 z M 126,210 l 6,0 0,6 -6,0 z M 144,210 l 6,0 0,6 -6,0 z M 150,210 l 6,0 0,6 -6,0 z M 162,210 l 6,0 0,6 -6,0 z M 180,210 l 6,0 0,6 -6,0 z M 192,210 l 6,0 0,6 -6,0 z M 216,210 l 6,0 0,6 -6,0 z M 0,216 l 6,0 0,6 -6,0 z M 6,216 l 6,0 0,6 -6,0 z M 12,216 l 6,0 0,6 -6,0 z M 18,216 l 6,0 0,6 -6,0 z M 24,216 l 6,0 0,6 -6,0 z M 30,216 l 6,0 0,6 -6,0 z M 36,216 l 6,0 0,6 -6,0 z M 48,216 l 6,0 0,6 -6,0 z M 54,216 l 6,0 0,6 -6,0 z M 66,216 l 6,0 0,6 -6,0 z M 90,216 l 6,0 0,6 -6,0 z M 102,216 l 6,0 0,6 -6,0 z M 108,216 l 6,0 0,6 -6,0 z M 114,216 l 6,0 0,6 -6,0 z M 120,216 l 6,0 0,6 -6,0 z M 126,216 l 6,0 0,6 -6,0 z M 132,216 l 6,0 0,6 -6,0 z M 138,216 l 6,0 0,6 -6,0 z M 144,216 l 6,0 0,6 -6,0 z M 162,216 l 6,0 0,6 -6,0 z M 168,216 l 6,0 0,6 -6,0 z M 198,216 l 6,0 0,6 -6,0 z M 204,216 l 6,0 0,6 -6,0 z M 210,216 l 6,0 0,6 -6,0 z M 216,216 l 6,0 0,6 -6,0 z " />
	</g>
</svg>
