<?xml version="1.0" standalone="no"?>
<svg xmlns="http://www.w3.org/2000/svg" version="1.1" width="222" height="222">
	<!-- Created with https://api.qrserver.com (QR Code API, see goQR.me/api for information) -->
	<title>QR Code</title>
	<desc>{&quot;accountNumber&quot;:&quot;18350764501&quot;,&quot;accountName&quot;:&quot;SUBARNA BHANDARI&quot;,&quot;bankCode&quot;:&quot;SCBLNPKA&quot;}</desc>
	<rect style="fill:rgb(255, 255, 255);fill-opacity:1" x="0" y="0" width="222" height="222" />
	<g id="elements">
		<path style="fill:rgb(0, 0, 0)" d="M 0,0 l 6,0 0,6 -6,0 z M 6,0 l 6,0 0,6 -6,0 z M 12,0 l 6,0 0,6 -6,0 z M 18,0 l 6,0 0,6 -6,0 z M 24,0 l 6,0 0,6 -6,0 z M 30,0 l 6,0 0,6 -6,0 z M 36,0 l 6,0 0,6 -6,0 z M 60,0 l 6,0 0,6 -6,0 z M 72,0 l 6,0 0,6 -6,0 z M 78,0 l 6,0 0,6 -6,0 z M 84,0 l 6,0 0,6 -6,0 z M 90,0 l 6,0 0,6 -6,0 z M 108,0 l 6,0 0,6 -6,0 z M 114,0 l 6,0 0,6 -6,0 z M 126,0 l 6,0 0,6 -6,0 z M 150,0 l 6,0 0,6 -6,0 z M 156,0 l 6,0 0,6 -6,0 z M 162,0 l 6,0 0,6 -6,0 z M 168,0 l 6,0 0,6 -6,0 z M 180,0 l 6,0 0,6 -6,0 z M 186,0 l 6,0 0,6 -6,0 z M 192,0 l 6,0 0,6 -6,0 z M 198,0 l 6,0 0,6 -6,0 z M 204,0 l 6,0 0,6 -6,0 z M 210,0 l 6,0 0,6 -6,0 z M 216,0 l 6,0 0,6 -6,0 z M 0,6 l 6,0 0,6 -6,0 z M 36,6 l 6,0 0,6 -6,0 z M 48,6 l 6,0 0,6 -6,0 z M 60,6 l 6,0 0,6 -6,0 z M 78,6 l 6,0 0,6 -6,0 z M 84,6 l 6,0 0,6 -6,0 z M 90,6 l 6,0 0,6 -6,0 z M 96,6 l 6,0 0,6 -6,0 z M 102,6 l 6,0 0,6 -6,0 z M 108,6 l 6,0 0,6 -6,0 z M 120,6 l 6,0 0,6 -6,0 z M 126,6 l 6,0 0,6 -6,0 z M 144,6 l 6,0 0,6 -6,0 z M 150,6 l 6,0 0,6 -6,0 z M 156,6 l 6,0 0,6 -6,0 z M 180,6 l 6,0 0,6 -6,0 z M 216,6 l 6,0 0,6 -6,0 z M 0,12 l 6,0 0,6 -6,0 z M 12,12 l 6,0 0,6 -6,0 z M 18,12 l 6,0 0,6 -6,0 z M 24,12 l 6,0 0,6 -6,0 z M 36,12 l 6,0 0,6 -6,0 z M 72,12 l 6,0 0,6 -6,0 z M 78,12 l 6,0 0,6 -6,0 z M 90,12 l 6,0 0,6 -6,0 z M 108,12 l 6,0 0,6 -6,0 z M 120,12 l 6,0 0,6 -6,0 z M 126,12 l 6,0 0,6 -6,0 z M 138,12 l 6,0 0,6 -6,0 z M 150,12 l 6,0 0,6 -6,0 z M 168,12 l 6,0 0,6 -6,0 z M 180,12 l 6,0 0,6 -6,0 z M 192,12 l 6,0 0,6 -6,0 z M 198,12 l 6,0 0,6 -6,0 z M 204,12 l 6,0 0,6 -6,0 z M 216,12 l 6,0 0,6 -6,0 z M 0,18 l 6,0 0,6 -6,0 z M 12,18 l 6,0 0,6 -6,0 z M 18,18 l 6,0 0,6 -6,0 z M 24,18 l 6,0 0,6 -6,0 z M 36,18 l 6,0 0,6 -6,0 z M 48,18 l 6,0 0,6 -6,0 z M 54,18 l 6,0 0,6 -6,0 z M 60,18 l 6,0 0,6 -6,0 z M 72,18 l 6,0 0,6 -6,0 z M 84,18 l 6,0 0,6 -6,0 z M 90,18 l 6,0 0,6 -6,0 z M 102,18 l 6,0 0,6 -6,0 z M 108,18 l 6,0 0,6 -6,0 z M 126,18 l 6,0 0,6 -6,0 z M 144,18 l 6,0 0,6 -6,0 z M 150,18 l 6,0 0,6 -6,0 z M 156,18 l 6,0 0,6 -6,0 z M 162,18 l 6,0 0,6 -6,0 z M 180,18 l 6,0 0,6 -6,0 z M 192,18 l 6,0 0,6 -6,0 z M 198,18 l 6,0 0,6 -6,0 z M 204,18 l 6,0 0,6 -6,0 z M 216,18 l 6,0 0,6 -6,0 z M 0,24 l 6,0 0,6 -6,0 z M 12,24 l 6,0 0,6 -6,0 z M 18,24 l 6,0 0,6 -6,0 z M 24,24 l 6,0 0,6 -6,0 z M 36,24 l 6,0 0,6 -6,0 z M 54,24 l 6,0 0,6 -6,0 z M 90,24 l 6,0 0,6 -6,0 z M 96,24 l 6,0 0,6 -6,0 z M 102,24 l 6,0 0,6 -6,0 z M 114,24 l 6,0 0,6 -6,0 z M 120,24 l 6,0 0,6 -6,0 z M 126,24 l 6,0 0,6 -6,0 z M 138,24 l 6,0 0,6 -6,0 z M 150,24 l 6,0 0,6 -6,0 z M 162,24 l 6,0 0,6 -6,0 z M 168,24 l 6,0 0,6 -6,0 z M 180,24 l 6,0 0,6 -6,0 z M 192,24 l 6,0 0,6 -6,0 z M 198,24 l 6,0 0,6 -6,0 z M 204,24 l 6,0 0,6 -6,0 z M 216,24 l 6,0 0,6 -6,0 z M 0,30 l 6,0 0,6 -6,0 z M 36,30 l 6,0 0,6 -6,0 z M 48,30 l 6,0 0,6 -6,0 z M 54,30 l 6,0 0,6 -6,0 z M 66,30 l 6,0 0,6 -6,0 z M 72,30 l 6,0 0,6 -6,0 z M 102,30 l 6,0 0,6 -6,0 z M 108,30 l 6,0 0,6 -6,0 z M 132,30 l 6,0 0,6 -6,0 z M 138,30 l 6,0 0,6 -6,0 z M 150,30 l 6,0 0,6 -6,0 z M 180,30 l 6,0 0,6 -6,0 z M 216,30 l 6,0 0,6 -6,0 z M 0,36 l 6,0 0,6 -6,0 z M 6,36 l 6,0 0,6 -6,0 z M 12,36 l 6,0 0,6 -6,0 z M 18,36 l 6,0 0,6 -6,0 z M 24,36 l 6,0 0,6 -6,0 z M 30,36 l 6,0 0,6 -6,0 z M 36,36 l 6,0 0,6 -6,0 z M 48,36 l 6,0 0,6 -6,0 z M 60,36 l 6,0 0,6 -6,0 z M 72,36 l 6,0 0,6 -6,0 z M 84,36 l 6,0 0,6 -6,0 z M 96,36 l 6,0 0,6 -6,0 z M 108,36 l 6,0 0,6 -6,0 z M 120,36 l 6,0 0,6 -6,0 z M 132,36 l 6,0 0,6 -6,0 z M 144,36 l 6,0 0,6 -6,0 z M 156,36 l 6,0 0,6 -6,0 z M 168,36 l 6,0 0,6 -6,0 z M 180,36 l 6,0 0,6 -6,0 z M 186,36 l 6,0 0,6 -6,0 z M 192,36 l 6,0 0,6 -6,0 z M 198,36 l 6,0 0,6 -6,0 z M 204,36 l 6,0 0,6 -6,0 z M 210,36 l 6,0 0,6 -6,0 z M 216,36 l 6,0 0,6 -6,0 z M 54,42 l 6,0 0,6 -6,0 z M 60,42 l 6,0 0,6 -6,0 z M 66,42 l 6,0 0,6 -6,0 z M 84,42 l 6,0 0,6 -6,0 z M 96,42 l 6,0 0,6 -6,0 z M 108,42 l 6,0 0,6 -6,0 z M 120,42 l 6,0 0,6 -6,0 z M 126,42 l 6,0 0,6 -6,0 z M 132,42 l 6,0 0,6 -6,0 z M 144,42 l 6,0 0,6 -6,0 z M 150,42 l 6,0 0,6 -6,0 z M 168,42 l 6,0 0,6 -6,0 z M 0,48 l 6,0 0,6 -6,0 z M 6,48 l 6,0 0,6 -6,0 z M 12,48 l 6,0 0,6 -6,0 z M 18,48 l 6,0 0,6 -6,0 z M 24,48 l 6,0 0,6 -6,0 z M 36,48 l 6,0 0,6 -6,0 z M 42,48 l 6,0 0,6 -6,0 z M 48,48 l 6,0 0,6 -6,0 z M 54,48 l 6,0 0,6 -6,0 z M 66,48 l 6,0 0,6 -6,0 z M 96,48 l 6,0 0,6 -6,0 z M 102,48 l 6,0 0,6 -6,0 z M 108,48 l 6,0 0,6 -6,0 z M 132,48 l 6,0 0,6 -6,0 z M 156,48 l 6,0 0,6 -6,0 z M 162,48 l 6,0 0,6 -6,0 z M 174,48 l 6,0 0,6 -6,0 z M 186,48 l 6,0 0,6 -6,0 z M 198,48 l 6,0 0,6 -6,0 z M 210,48 l 6,0 0,6 -6,0 z M 6,54 l 6,0 0,6 -6,0 z M 12,54 l 6,0 0,6 -6,0 z M 48,54 l 6,0 0,6 -6,0 z M 54,54 l 6,0 0,6 -6,0 z M 60,54 l 6,0 0,6 -6,0 z M 72,54 l 6,0 0,6 -6,0 z M 78,54 l 6,0 0,6 -6,0 z M 84,54 l 6,0 0,6 -6,0 z M 90,54 l 6,0 0,6 -6,0 z M 108,54 l 6,0 0,6 -6,0 z M 114,54 l 6,0 0,6 -6,0 z M 120,54 l 6,0 0,6 -6,0 z M 126,54 l 6,0 0,6 -6,0 z M 138,54 l 6,0 0,6 -6,0 z M 144,54 l 6,0 0,6 -6,0 z M 150,54 l 6,0 0,6 -6,0 z M 156,54 l 6,0 0,6 -6,0 z M 162,54 l 6,0 0,6 -6,0 z M 168,54 l 6,0 0,6 -6,0 z M 174,54 l 6,0 0,6 -6,0 z M 180,54 l 6,0 0,6 -6,0 z M 204,54 l 6,0 0,6 -6,0 z M 0,60 l 6,0 0,6 -6,0 z M 12,60 l 6,0 0,6 -6,0 z M 24,60 l 6,0 0,6 -6,0 z M 36,60 l 6,0 0,6 -6,0 z M 78,60 l 6,0 0,6 -6,0 z M 84,60 l 6,0 0,6 -6,0 z M 90,60 l 6,0 0,6 -6,0 z M 96,60 l 6,0 0,6 -6,0 z M 102,60 l 6,0 0,6 -6,0 z M 108,60 l 6,0 0,6 -6,0 z M 120,60 l 6,0 0,6 -6,0 z M 126,60 l 6,0 0,6 -6,0 z M 132,60 l 6,0 0,6 -6,0 z M 138,60 l 6,0 0,6 -6,0 z M 144,60 l 6,0 0,6 -6,0 z M 156,60 l 6,0 0,6 -6,0 z M 180,60 l 6,0 0,6 -6,0 z M 192,60 l 6,0 0,6 -6,0 z M 204,60 l 6,0 0,6 -6,0 z M 210,60 l 6,0 0,6 -6,0 z M 216,60 l 6,0 0,6 -6,0 z M 0,66 l 6,0 0,6 -6,0 z M 6,66 l 6,0 0,6 -6,0 z M 12,66 l 6,0 0,6 -6,0 z M 24,66 l 6,0 0,6 -6,0 z M 30,66 l 6,0 0,6 -6,0 z M 42,66 l 6,0 0,6 -6,0 z M 48,66 l 6,0 0,6 -6,0 z M 72,66 l 6,0 0,6 -6,0 z M 78,66 l 6,0 0,6 -6,0 z M 90,66 l 6,0 0,6 -6,0 z M 108,66 l 6,0 0,6 -6,0 z M 114,66 l 6,0 0,6 -6,0 z M 120,66 l 6,0 0,6 -6,0 z M 126,66 l 6,0 0,6 -6,0 z M 132,66 l 6,0 0,6 -6,0 z M 138,66 l 6,0 0,6 -6,0 z M 150,66 l 6,0 0,6 -6,0 z M 180,66 l 6,0 0,6 -6,0 z M 210,66 l 6,0 0,6 -6,0 z M 0,72 l 6,0 0,6 -6,0 z M 6,72 l 6,0 0,6 -6,0 z M 18,72 l 6,0 0,6 -6,0 z M 24,72 l 6,0 0,6 -6,0 z M 36,72 l 6,0 0,6 -6,0 z M 54,72 l 6,0 0,6 -6,0 z M 72,72 l 6,0 0,6 -6,0 z M 84,72 l 6,0 0,6 -6,0 z M 90,72 l 6,0 0,6 -6,0 z M 102,72 l 6,0 0,6 -6,0 z M 108,72 l 6,0 0,6 -6,0 z M 114,72 l 6,0 0,6 -6,0 z M 144,72 l 6,0 0,6 -6,0 z M 150,72 l 6,0 0,6 -6,0 z M 156,72 l 6,0 0,6 -6,0 z M 162,72 l 6,0 0,6 -6,0 z M 180,72 l 6,0 0,6 -6,0 z M 192,72 l 6,0 0,6 -6,0 z M 204,72 l 6,0 0,6 -6,0 z M 216,72 l 6,0 0,6 -6,0 z M 0,78 l 6,0 0,6 -6,0 z M 12,78 l 6,0 0,6 -6,0 z M 18,78 l 6,0 0,6 -6,0 z M 24,78 l 6,0 0,6 -6,0 z M 30,78 l 6,0 0,6 -6,0 z M 42,78 l 6,0 0,6 -6,0 z M 48,78 l 6,0 0,6 -6,0 z M 60,78 l 6,0 0,6 -6,0 z M 90,78 l 6,0 0,6 -6,0 z M 96,78 l 6,0 0,6 -6,0 z M 108,78 l 6,0 0,6 -6,0 z M 114,78 l 6,0 0,6 -6,0 z M 120,78 l 6,0 0,6 -6,0 z M 138,78 l 6,0 0,6 -6,0 z M 150,78 l 6,0 0,6 -6,0 z M 162,78 l 6,0 0,6 -6,0 z M 168,78 l 6,0 0,6 -6,0 z M 18,84 l 6,0 0,6 -6,0 z M 24,84 l 6,0 0,6 -6,0 z M 36,84 l 6,0 0,6 -6,0 z M 48,84 l 6,0 0,6 -6,0 z M 54,84 l 6,0 0,6 -6,0 z M 66,84 l 6,0 0,6 -6,0 z M 72,84 l 6,0 0,6 -6,0 z M 108,84 l 6,0 0,6 -6,0 z M 120,84 l 6,0 0,6 -6,0 z M 126,84 l 6,0 0,6 -6,0 z M 144,84 l 6,0 0,6 -6,0 z M 174,84 l 6,0 0,6 -6,0 z M 192,84 l 6,0 0,6 -6,0 z M 210,84 l 6,0 0,6 -6,0 z M 216,84 l 6,0 0,6 -6,0 z M 6,90 l 6,0 0,6 -6,0 z M 24,90 l 6,0 0,6 -6,0 z M 30,90 l 6,0 0,6 -6,0 z M 48,90 l 6,0 0,6 -6,0 z M 60,90 l 6,0 0,6 -6,0 z M 66,90 l 6,0 0,6 -6,0 z M 84,90 l 6,0 0,6 -6,0 z M 96,90 l 6,0 0,6 -6,0 z M 108,90 l 6,0 0,6 -6,0 z M 114,90 l 6,0 0,6 -6,0 z M 132,90 l 6,0 0,6 -6,0 z M 138,90 l 6,0 0,6 -6,0 z M 150,90 l 6,0 0,6 -6,0 z M 162,90 l 6,0 0,6 -6,0 z M 168,90 l 6,0 0,6 -6,0 z M 180,90 l 6,0 0,6 -6,0 z M 192,90 l 6,0 0,6 -6,0 z M 210,90 l 6,0 0,6 -6,0 z M 6,96 l 6,0 0,6 -6,0 z M 12,96 l 6,0 0,6 -6,0 z M 36,96 l 6,0 0,6 -6,0 z M 48,96 l 6,0 0,6 -6,0 z M 60,96 l 6,0 0,6 -6,0 z M 66,96 l 6,0 0,6 -6,0 z M 126,96 l 6,0 0,6 -6,0 z M 132,96 l 6,0 0,6 -6,0 z M 138,96 l 6,0 0,6 -6,0 z M 162,96 l 6,0 0,6 -6,0 z M 186,96 l 6,0 0,6 -6,0 z M 192,96 l 6,0 0,6 -6,0 z M 198,96 l 6,0 0,6 -6,0 z M 204,96 l 6,0 0,6 -6,0 z M 216,96 l 6,0 0,6 -6,0 z M 6,102 l 6,0 0,6 -6,0 z M 12,102 l 6,0 0,6 -6,0 z M 18,102 l 6,0 0,6 -6,0 z M 24,102 l 6,0 0,6 -6,0 z M 54,102 l 6,0 0,6 -6,0 z M 72,102 l 6,0 0,6 -6,0 z M 78,102 l 6,0 0,6 -6,0 z M 84,102 l 6,0 0,6 -6,0 z M 90,102 l 6,0 0,6 -6,0 z M 108,102 l 6,0 0,6 -6,0 z M 120,102 l 6,0 0,6 -6,0 z M 138,102 l 6,0 0,6 -6,0 z M 150,102 l 6,0 0,6 -6,0 z M 156,102 l 6,0 0,6 -6,0 z M 162,102 l 6,0 0,6 -6,0 z M 168,102 l 6,0 0,6 -6,0 z M 174,102 l 6,0 0,6 -6,0 z M 204,102 l 6,0 0,6 -6,0 z M 0,108 l 6,0 0,6 -6,0 z M 12,108 l 6,0 0,6 -6,0 z M 18,108 l 6,0 0,6 -6,0 z M 30,108 l 6,0 0,6 -6,0 z M 36,108 l 6,0 0,6 -6,0 z M 54,108 l 6,0 0,6 -6,0 z M 60,108 l 6,0 0,6 -6,0 z M 78,108 l 6,0 0,6 -6,0 z M 84,108 l 6,0 0,6 -6,0 z M 90,108 l 6,0 0,6 -6,0 z M 120,108 l 6,0 0,6 -6,0 z M 126,108 l 6,0 0,6 -6,0 z M 132,108 l 6,0 0,6 -6,0 z M 144,108 l 6,0 0,6 -6,0 z M 156,108 l 6,0 0,6 -6,0 z M 162,108 l 6,0 0,6 -6,0 z M 174,108 l 6,0 0,6 -6,0 z M 180,108 l 6,0 0,6 -6,0 z M 192,108 l 6,0 0,6 -6,0 z M 198,108 l 6,0 0,6 -6,0 z M 204,108 l 6,0 0,6 -6,0 z M 210,108 l 6,0 0,6 -6,0 z M 216,108 l 6,0 0,6 -6,0 z M 12,114 l 6,0 0,6 -6,0 z M 30,114 l 6,0 0,6 -6,0 z M 48,114 l 6,0 0,6 -6,0 z M 60,114 l 6,0 0,6 -6,0 z M 72,114 l 6,0 0,6 -6,0 z M 78,114 l 6,0 0,6 -6,0 z M 90,114 l 6,0 0,6 -6,0 z M 102,114 l 6,0 0,6 -6,0 z M 108,114 l 6,0 0,6 -6,0 z M 114,114 l 6,0 0,6 -6,0 z M 126,114 l 6,0 0,6 -6,0 z M 132,114 l 6,0 0,6 -6,0 z M 150,114 l 6,0 0,6 -6,0 z M 162,114 l 6,0 0,6 -6,0 z M 174,114 l 6,0 0,6 -6,0 z M 210,114 l 6,0 0,6 -6,0 z M 216,114 l 6,0 0,6 -6,0 z M 0,120 l 6,0 0,6 -6,0 z M 18,120 l 6,0 0,6 -6,0 z M 30,120 l 6,0 0,6 -6,0 z M 36,120 l 6,0 0,6 -6,0 z M 42,120 l 6,0 0,6 -6,0 z M 48,120 l 6,0 0,6 -6,0 z M 60,120 l 6,0 0,6 -6,0 z M 72,120 l 6,0 0,6 -6,0 z M 84,120 l 6,0 0,6 -6,0 z M 102,120 l 6,0 0,6 -6,0 z M 114,120 l 6,0 0,6 -6,0 z M 126,120 l 6,0 0,6 -6,0 z M 156,120 l 6,0 0,6 -6,0 z M 168,120 l 6,0 0,6 -6,0 z M 174,120 l 6,0 0,6 -6,0 z M 180,120 l 6,0 0,6 -6,0 z M 192,120 l 6,0 0,6 -6,0 z M 204,120 l 6,0 0,6 -6,0 z M 216,120 l 6,0 0,6 -6,0 z M 6,126 l 6,0 0,6 -6,0 z M 18,126 l 6,0 0,6 -6,0 z M 24,126 l 6,0 0,6 -6,0 z M 30,126 l 6,0 0,6 -6,0 z M 42,126 l 6,0 0,6 -6,0 z M 48,126 l 6,0 0,6 -6,0 z M 54,126 l 6,0 0,6 -6,0 z M 60,126 l 6,0 0,6 -6,0 z M 96,126 l 6,0 0,6 -6,0 z M 102,126 l 6,0 0,6 -6,0 z M 114,126 l 6,0 0,6 -6,0 z M 120,126 l 6,0 0,6 -6,0 z M 126,126 l 6,0 0,6 -6,0 z M 132,126 l 6,0 0,6 -6,0 z M 144,126 l 6,0 0,6 -6,0 z M 162,126 l 6,0 0,6 -6,0 z M 168,126 l 6,0 0,6 -6,0 z M 174,126 l 6,0 0,6 -6,0 z M 18,132 l 6,0 0,6 -6,0 z M 30,132 l 6,0 0,6 -6,0 z M 36,132 l 6,0 0,6 -6,0 z M 42,132 l 6,0 0,6 -6,0 z M 48,132 l 6,0 0,6 -6,0 z M 54,132 l 6,0 0,6 -6,0 z M 66,132 l 6,0 0,6 -6,0 z M 72,132 l 6,0 0,6 -6,0 z M 96,132 l 6,0 0,6 -6,0 z M 108,132 l 6,0 0,6 -6,0 z M 126,132 l 6,0 0,6 -6,0 z M 132,132 l 6,0 0,6 -6,0 z M 144,132 l 6,0 0,6 -6,0 z M 150,132 l 6,0 0,6 -6,0 z M 162,132 l 6,0 0,6 -6,0 z M 174,132 l 6,0 0,6 -6,0 z M 192,132 l 6,0 0,6 -6,0 z M 198,132 l 6,0 0,6 -6,0 z M 210,132 l 6,0 0,6 -6,0 z M 216,132 l 6,0 0,6 -6,0 z M 0,138 l 6,0 0,6 -6,0 z M 18,138 l 6,0 0,6 -6,0 z M 42,138 l 6,0 0,6 -6,0 z M 54,138 l 6,0 0,6 -6,0 z M 66,138 l 6,0 0,6 -6,0 z M 84,138 l 6,0 0,6 -6,0 z M 108,138 l 6,0 0,6 -6,0 z M 114,138 l 6,0 0,6 -6,0 z M 120,138 l 6,0 0,6 -6,0 z M 126,138 l 6,0 0,6 -6,0 z M 138,138 l 6,0 0,6 -6,0 z M 144,138 l 6,0 0,6 -6,0 z M 150,138 l 6,0 0,6 -6,0 z M 162,138 l 6,0 0,6 -6,0 z M 168,138 l 6,0 0,6 -6,0 z M 0,144 l 6,0 0,6 -6,0 z M 6,144 l 6,0 0,6 -6,0 z M 12,144 l 6,0 0,6 -6,0 z M 18,144 l 6,0 0,6 -6,0 z M 36,144 l 6,0 0,6 -6,0 z M 48,144 l 6,0 0,6 -6,0 z M 54,144 l 6,0 0,6 -6,0 z M 66,144 l 6,0 0,6 -6,0 z M 90,144 l 6,0 0,6 -6,0 z M 96,144 l 6,0 0,6 -6,0 z M 114,144 l 6,0 0,6 -6,0 z M 126,144 l 6,0 0,6 -6,0 z M 138,144 l 6,0 0,6 -6,0 z M 144,144 l 6,0 0,6 -6,0 z M 156,144 l 6,0 0,6 -6,0 z M 162,144 l 6,0 0,6 -6,0 z M 174,144 l 6,0 0,6 -6,0 z M 186,144 l 6,0 0,6 -6,0 z M 192,144 l 6,0 0,6 -6,0 z M 198,144 l 6,0 0,6 -6,0 z M 216,144 l 6,0 0,6 -6,0 z M 0,150 l 6,0 0,6 -6,0 z M 6,150 l 6,0 0,6 -6,0 z M 12,150 l 6,0 0,6 -6,0 z M 18,150 l 6,0 0,6 -6,0 z M 30,150 l 6,0 0,6 -6,0 z M 42,150 l 6,0 0,6 -6,0 z M 48,150 l 6,0 0,6 -6,0 z M 72,150 l 6,0 0,6 -6,0 z M 78,150 l 6,0 0,6 -6,0 z M 84,150 l 6,0 0,6 -6,0 z M 90,150 l 6,0 0,6 -6,0 z M 108,150 l 6,0 0,6 -6,0 z M 114,150 l 6,0 0,6 -6,0 z M 120,150 l 6,0 0,6 -6,0 z M 144,150 l 6,0 0,6 -6,0 z M 150,150 l 6,0 0,6 -6,0 z M 156,150 l 6,0 0,6 -6,0 z M 162,150 l 6,0 0,6 -6,0 z M 168,150 l 6,0 0,6 -6,0 z M 186,150 l 6,0 0,6 -6,0 z M 204,150 l 6,0 0,6 -6,0 z M 0,156 l 6,0 0,6 -6,0 z M 12,156 l 6,0 0,6 -6,0 z M 18,156 l 6,0 0,6 -6,0 z M 30,156 l 6,0 0,6 -6,0 z M 36,156 l 6,0 0,6 -6,0 z M 48,156 l 6,0 0,6 -6,0 z M 78,156 l 6,0 0,6 -6,0 z M 84,156 l 6,0 0,6 -6,0 z M 90,156 l 6,0 0,6 -6,0 z M 96,156 l 6,0 0,6 -6,0 z M 108,156 l 6,0 0,6 -6,0 z M 120,156 l 6,0 0,6 -6,0 z M 132,156 l 6,0 0,6 -6,0 z M 150,156 l 6,0 0,6 -6,0 z M 162,156 l 6,0 0,6 -6,0 z M 186,156 l 6,0 0,6 -6,0 z M 198,156 l 6,0 0,6 -6,0 z M 204,156 l 6,0 0,6 -6,0 z M 216,156 l 6,0 0,6 -6,0 z M 0,162 l 6,0 0,6 -6,0 z M 12,162 l 6,0 0,6 -6,0 z M 18,162 l 6,0 0,6 -6,0 z M 24,162 l 6,0 0,6 -6,0 z M 30,162 l 6,0 0,6 -6,0 z M 42,162 l 6,0 0,6 -6,0 z M 54,162 l 6,0 0,6 -6,0 z M 60,162 l 6,0 0,6 -6,0 z M 72,162 l 6,0 0,6 -6,0 z M 78,162 l 6,0 0,6 -6,0 z M 90,162 l 6,0 0,6 -6,0 z M 102,162 l 6,0 0,6 -6,0 z M 108,162 l 6,0 0,6 -6,0 z M 126,162 l 6,0 0,6 -6,0 z M 144,162 l 6,0 0,6 -6,0 z M 150,162 l 6,0 0,6 -6,0 z M 180,162 l 6,0 0,6 -6,0 z M 186,162 l 6,0 0,6 -6,0 z M 210,162 l 6,0 0,6 -6,0 z M 0,168 l 6,0 0,6 -6,0 z M 12,168 l 6,0 0,6 -6,0 z M 24,168 l 6,0 0,6 -6,0 z M 30,168 l 6,0 0,6 -6,0 z M 36,168 l 6,0 0,6 -6,0 z M 48,168 l 6,0 0,6 -6,0 z M 72,168 l 6,0 0,6 -6,0 z M 84,168 l 6,0 0,6 -6,0 z M 90,168 l 6,0 0,6 -6,0 z M 96,168 l 6,0 0,6 -6,0 z M 108,168 l 6,0 0,6 -6,0 z M 144,168 l 6,0 0,6 -6,0 z M 156,168 l 6,0 0,6 -6,0 z M 162,168 l 6,0 0,6 -6,0 z M 168,168 l 6,0 0,6 -6,0 z M 174,168 l 6,0 0,6 -6,0 z M 180,168 l 6,0 0,6 -6,0 z M 186,168 l 6,0 0,6 -6,0 z M 192,168 l 6,0 0,6 -6,0 z M 204,168 l 6,0 0,6 -6,0 z M 48,174 l 6,0 0,6 -6,0 z M 54,174 l 6,0 0,6 -6,0 z M 60,174 l 6,0 0,6 -6,0 z M 90,174 l 6,0 0,6 -6,0 z M 114,174 l 6,0 0,6 -6,0 z M 120,174 l 6,0 0,6 -6,0 z M 126,174 l 6,0 0,6 -6,0 z M 150,174 l 6,0 0,6 -6,0 z M 162,174 l 6,0 0,6 -6,0 z M 168,174 l 6,0 0,6 -6,0 z M 192,174 l 6,0 0,6 -6,0 z M 210,174 l 6,0 0,6 -6,0 z M 0,180 l 6,0 0,6 -6,0 z M 6,180 l 6,0 0,6 -6,0 z M 12,180 l 6,0 0,6 -6,0 z M 18,180 l 6,0 0,6 -6,0 z M 24,180 l 6,0 0,6 -6,0 z M 30,180 l 6,0 0,6 -6,0 z M 36,180 l 6,0 0,6 -6,0 z M 48,180 l 6,0 0,6 -6,0 z M 54,180 l 6,0 0,6 -6,0 z M 66,180 l 6,0 0,6 -6,0 z M 72,180 l 6,0 0,6 -6,0 z M 90,180 l 6,0 0,6 -6,0 z M 108,180 l 6,0 0,6 -6,0 z M 144,180 l 6,0 0,6 -6,0 z M 150,180 l 6,0 0,6 -6,0 z M 168,180 l 6,0 0,6 -6,0 z M 180,180 l 6,0 0,6 -6,0 z M 192,180 l 6,0 0,6 -6,0 z M 210,180 l 6,0 0,6 -6,0 z M 216,180 l 6,0 0,6 -6,0 z M 0,186 l 6,0 0,6 -6,0 z M 36,186 l 6,0 0,6 -6,0 z M 66,186 l 6,0 0,6 -6,0 z M 84,186 l 6,0 0,6 -6,0 z M 90,186 l 6,0 0,6 -6,0 z M 102,186 l 6,0 0,6 -6,0 z M 108,186 l 6,0 0,6 -6,0 z M 114,186 l 6,0 0,6 -6,0 z M 126,186 l 6,0 0,6 -6,0 z M 162,186 l 6,0 0,6 -6,0 z M 168,186 l 6,0 0,6 -6,0 z M 192,186 l 6,0 0,6 -6,0 z M 0,192 l 6,0 0,6 -6,0 z M 12,192 l 6,0 0,6 -6,0 z M 18,192 l 6,0 0,6 -6,0 z M 24,192 l 6,0 0,6 -6,0 z M 36,192 l 6,0 0,6 -6,0 z M 48,192 l 6,0 0,6 -6,0 z M 54,192 l 6,0 0,6 -6,0 z M 66,192 l 6,0 0,6 -6,0 z M 90,192 l 6,0 0,6 -6,0 z M 108,192 l 6,0 0,6 -6,0 z M 144,192 l 6,0 0,6 -6,0 z M 156,192 l 6,0 0,6 -6,0 z M 162,192 l 6,0 0,6 -6,0 z M 168,192 l 6,0 0,6 -6,0 z M 174,192 l 6,0 0,6 -6,0 z M 180,192 l 6,0 0,6 -6,0 z M 186,192 l 6,0 0,6 -6,0 z M 192,192 l 6,0 0,6 -6,0 z M 198,192 l 6,0 0,6 -6,0 z M 204,192 l 6,0 0,6 -6,0 z M 216,192 l 6,0 0,6 -6,0 z M 0,198 l 6,0 0,6 -6,0 z M 12,198 l 6,0 0,6 -6,0 z M 18,198 l 6,0 0,6 -6,0 z M 24,198 l 6,0 0,6 -6,0 z M 36,198 l 6,0 0,6 -6,0 z M 48,198 l 6,0 0,6 -6,0 z M 54,198 l 6,0 0,6 -6,0 z M 60,198 l 6,0 0,6 -6,0 z M 72,198 l 6,0 0,6 -6,0 z M 78,198 l 6,0 0,6 -6,0 z M 84,198 l 6,0 0,6 -6,0 z M 114,198 l 6,0 0,6 -6,0 z M 120,198 l 6,0 0,6 -6,0 z M 162,198 l 6,0 0,6 -6,0 z M 174,198 l 6,0 0,6 -6,0 z M 180,198 l 6,0 0,6 -6,0 z M 192,198 l 6,0 0,6 -6,0 z M 204,198 l 6,0 0,6 -6,0 z M 210,198 l 6,0 0,6 -6,0 z M 216,198 l 6,0 0,6 -6,0 z M 0,204 l 6,0 0,6 -6,0 z M 12,204 l 6,0 0,6 -6,0 z M 18,204 l 6,0 0,6 -6,0 z M 24,204 l 6,0 0,6 -6,0 z M 36,204 l 6,0 0,6 -6,0 z M 48,204 l 6,0 0,6 -6,0 z M 54,204 l 6,0 0,6 -6,0 z M 78,204 l 6,0 0,6 -6,0 z M 84,204 l 6,0 0,6 -6,0 z M 90,204 l 6,0 0,6 -6,0 z M 96,204 l 6,0 0,6 -6,0 z M 108,204 l 6,0 0,6 -6,0 z M 126,204 l 6,0 0,6 -6,0 z M 132,204 l 6,0 0,6 -6,0 z M 144,204 l 6,0 0,6 -6,0 z M 156,204 l 6,0 0,6 -6,0 z M 162,204 l 6,0 0,6 -6,0 z M 168,204 l 6,0 0,6 -6,0 z M 174,204 l 6,0 0,6 -6,0 z M 180,204 l 6,0 0,6 -6,0 z M 186,204 l 6,0 0,6 -6,0 z M 216,204 l 6,0 0,6 -6,0 z M 0,210 l 6,0 0,6 -6,0 z M 36,210 l 6,0 0,6 -6,0 z M 48,210 l 6,0 0,6 -6,0 z M 54,210 l 6,0 0,6 -6,0 z M 72,210 l 6,0 0,6 -6,0 z M 78,210 l 6,0 0,6 -6,0 z M 96,210 l 6,0 0,6 -6,0 z M 102,210 l 6,0 0,6 -6,0 z M 114,210 l 6,0 0,6 -6,0 z M 126,210 l 6,0 0,6 -6,0 z M 162,210 l 6,0 0,6 -6,0 z M 168,210 l 6,0 0,6 -6,0 z M 180,210 l 6,0 0,6 -6,0 z M 192,210 l 6,0 0,6 -6,0 z M 216,210 l 6,0 0,6 -6,0 z M 0,216 l 6,0 0,6 -6,0 z M 6,216 l 6,0 0,6 -6,0 z M 12,216 l 6,0 0,6 -6,0 z M 18,216 l 6,0 0,6 -6,0 z M 24,216 l 6,0 0,6 -6,0 z M 30,216 l 6,0 0,6 -6,0 z M 36,216 l 6,0 0,6 -6,0 z M 48,216 l 6,0 0,6 -6,0 z M 54,216 l 6,0 0,6 -6,0 z M 60,216 l 6,0 0,6 -6,0 z M 72,216 l 6,0 0,6 -6,0 z M 84,216 l 6,0 0,6 -6,0 z M 90,216 l 6,0 0,6 -6,0 z M 150,216 l 6,0 0,6 -6,0 z M 156,216 l 6,0 0,6 -6,0 z M 162,216 l 6,0 0,6 -6,0 z M 180,216 l 6,0 0,6 -6,0 z M 198,216 l 6,0 0,6 -6,0 z M 204,216 l 6,0 0,6 -6,0 z M 210,216 l 6,0 0,6 -6,0 z M 216,216 l 6,0 0,6 -6,0 z " />
	</g>
</svg>
