<svg xmlns="http://www.w3.org/2000/svg" viewBox="0 0 43.07 43.07"><g id="Layer_2" data-name="Layer 2"><g id="Layer_1-2" data-name="Layer 1"><rect width="43.07" height="43.07" style="fill:none"></rect><path d="M21,34c-.78,0-1.57,0-2.36,0a.51.51,0,0,1-.57-.42c-.59-1.73-1.21-3.47-1.8-5.2A.45.45,0,0,0,15.7,28q-4.09,0-8.2,0a.45.45,0,0,0-.51.38c-.53,1.69-1.08,3.39-1.63,5.08-.16.48-.23.52-.71.52H.5c-.52,0-.59-.09-.41-.59q2.17-6.26,4.36-12.5,1.62-4.68,3.27-9.37a7.11,7.11,0,0,0,.45-2.36c0-.32.11-.46.45-.45,2,0,3.91,0,5.87,0a.45.45,0,0,1,.5.37q4.22,11.84,8.44,23.69l.27.75c.12.37.06.46-.33.46ZM11.59,13.31l-3,9.83h6.06Z" style="fill:#8b8bff"></path><path d="M31,25.78a4.27,4.27,0,0,0,1.71,3,6.14,6.14,0,0,0,3.43,1,11.83,11.83,0,0,0,5.19-.88l.17,0c0,.12,0,.23,0,.33,0,1.15,0,2.3,0,3.45a.67.67,0,0,1-.46.68,13.08,13.08,0,0,1-5.24,1A13.25,13.25,0,0,1,32.08,34a8.22,8.22,0,0,1-6-5.76,11.42,11.42,0,0,1,.73-9,8.56,8.56,0,0,1,8.35-4.79,7.93,7.93,0,0,1,4.62,1.42A8.1,8.1,0,0,1,42.89,21a14.15,14.15,0,0,1,0,4.26.39.39,0,0,1-.41.39c-.8.05-1.59.13-2.39.14H31ZM31,22a.9.9,0,0,0,.16,0l6.47,0c.4,0,.44-.06.39-.46A3.07,3.07,0,0,0,36,18.91a3.55,3.55,0,0,0-3.56.4A4,4,0,0,0,31,22Z" style="fill:#8b8bff"></path></g></g></svg>