<svg xmlns="http://www.w3.org/2000/svg" viewBox="0 0 43.07 43.07"><g id="Layer_2" data-name="Layer 2"><g id="Layer_1-2" data-name="Layer 1"><rect width="43.07" height="43.07" style="fill:none"></rect><path d="M37.63,19.7c0,3.54,0,7.08,0,10.63,0,1.76.07,3.53.11,5.3,0,.64,0,.7-.61.93a25,25,0,0,1-7.4,1.62A15.15,15.15,0,0,1,22.39,37a9.85,9.85,0,0,1-5.9-7.58,13.43,13.43,0,0,1,.09-6.05A11.59,11.59,0,0,1,25,14.83a14.69,14.69,0,0,1,5.71-.57c.39,0,.47,0,.47-.53,0-2.69,0-5.39,0-8.09V5.25a.36.36,0,0,1,.41-.41h5.67a.33.33,0,0,1,.38.35c0,.16,0,.32,0,.48q0,7,0,14Zm-6.47,6.42c0-1.95,0-3.91,0-5.86,0-.39-.15-.53-.51-.58a7.62,7.62,0,0,0-3.29.24,5.74,5.74,0,0,0-4.21,4,7.93,7.93,0,0,0,.3,5.53,4.94,4.94,0,0,0,3.2,2.91,9.27,9.27,0,0,0,4,.24c.39,0,.53-.23.52-.62C31.16,30,31.16,28.06,31.16,26.12Z" style="fill:#ff0050"></path><path d="M11.65,22.57V37c0,.64-.07.71-.69.71H5.88c-.49,0-.57-.09-.57-.58V7.91c0-.46.06-.52.53-.52h5.27c.49,0,.54.05.54.55Z" style="fill:#ff0050"></path></g></g></svg>