<svg xmlns="http://www.w3.org/2000/svg" viewBox="0 0 43.07 43.07"><g id="Layer_2" data-name="Layer 2"><g id="Layer_1-2" data-name="Layer 1"><path d="M0,21.6V5.88c0-.72,0-.72.71-.73C3.85,5.1,7,5,10.13,5a17.9,17.9,0,0,1,6.69,1,10.13,10.13,0,0,1,6.89,9,11.44,11.44,0,0,1-1.81,7.66,10.28,10.28,0,0,1-5.5,4,22.21,22.21,0,0,1-8.1,1c-.33,0-.66,0-1,0s-.47.13-.47.48c0,2.06,0,4.11,0,6.17,0,1,0,2.08,0,3.13,0,.5-.1.61-.61.61H.5c-.47,0-.5-.23-.5-.6,0-3.63,0-7.26,0-10.9Zm6.84-5.2h0c0,1.57,0,3.13,0,4.69,0,.42.11.61.56.58s1.08,0,1.61,0a14.45,14.45,0,0,0,4.29-.51A5.1,5.1,0,0,0,17,15.77a5,5,0,0,0-4.7-4.55c-1.59-.11-3.19-.1-4.78-.13-.6,0-.69.09-.69.71C6.84,13.33,6.84,14.87,6.84,16.4Z" style="fill:#8b8bff"></path><path d="M34.68,16.27l.42-.41a10.79,10.79,0,0,1,5.1-3,19.49,19.49,0,0,1,2.28-.3c.39,0,.59.14.58.55,0,1.91,0,3.83,0,5.74,0,.43-.21.53-.59.55-1.19.09-2.39.15-3.58.33a8.16,8.16,0,0,0-3.31,1.34,1.37,1.37,0,0,0-.67,1.27c0,.59,0,1.19,0,1.78q0,6.4,0,12.81c0,.17,0,.35,0,.52,0,.43-.18.59-.6.59H28.68c-.6,0-.7-.1-.7-.72,0-4.47,0-8.94,0-13.41,0-3.11-.1-6.22-.16-9.33,0-.34-.07-.67-.11-1s.07-.51.44-.51h5.25a.71.71,0,0,1,.75.54c.17.72.28,1.44.41,2.16a3.1,3.1,0,0,1,0,.43Z" style="fill:#8b8bff"></path><rect width="43.07" height="43.07" style="fill:none"></rect></g></g></svg>