<svg xmlns="http://www.w3.org/2000/svg" viewBox="0 0 43.07 43.07"><g id="Layer_2" data-name="Layer 2"><g id="Layer_1-2" data-name="Layer 1"><rect width="43.07" height="43.07" style="fill:none"></rect><path d="M6.59,27.13v1c0,2.71,0,5.42,0,8.14,0,.52-.09.84-.72.83-1.74,0-3.49,0-5.23,0-.53,0-.65-.22-.65-.7Q0,21.3,0,6.18c0-.55.21-.73.72-.72,4.1,0,8.21-.16,12.28.16s7.3,2.21,9,6.13c1.85,4.32.74,9.6-2.55,12.43a12.38,12.38,0,0,1-6.75,2.73c-1.56.2-3.14.16-4.72.21C7.55,27.14,7.14,27.13,6.59,27.13Zm.06-5.81a13.38,13.38,0,0,0,6.71-.62,4.62,4.62,0,0,0,2.9-5.52,4.72,4.72,0,0,0-4.54-3.89c-1.41-.08-2.82-.07-4.23-.15-.69,0-.92.21-.91.9,0,2.85,0,5.71,0,8.56C6.59,20.82,6.63,21,6.65,21.32Z" style="fill:#229bff"></path><path d="M25.77,30.21c.41.19.68.3.93.43a13.94,13.94,0,0,0,7.63,1.52h.08c1.2-.13,2.07-.66,2.16-1.38.13-1.08-.67-1.53-1.44-1.9-1.74-.85-3.53-1.59-5.26-2.45a6.79,6.79,0,0,1-4.25-6.22c-.06-3.48,2.27-6.3,6-7.15a18.59,18.59,0,0,1,9.19.32,1,1,0,0,1,.87,1.14c0,1.36,0,2.71,0,4.07,0,.8-.12.88-.89.55A14,14,0,0,0,34.38,18a4.64,4.64,0,0,0-1.6.35,1.27,1.27,0,0,0-.4,2.26,7.31,7.31,0,0,0,1.75,1.08c1.35.63,2.74,1.18,4.1,1.8a15.09,15.09,0,0,1,1.8,1c4.41,2.7,3.85,9.45-.59,11.68a13.14,13.14,0,0,1-4.32,1.33,17.67,17.67,0,0,1-8.42-.91,1.21,1.21,0,0,1-.94-1.34C25.81,33.62,25.77,32,25.77,30.21Z" style="fill:#229bff"></path></g></g></svg>