<svg xmlns="http://www.w3.org/2000/svg" xmlns:xlink="http://www.w3.org/1999/xlink" viewBox="0 0 43.07 43.07"><defs><linearGradient id="linear-gradient" x1="2.27" y1="90.09" x2="37.64" y2="73.59" gradientTransform="matrix(1, 0, 0, -1, 0, 100.47)" gradientUnits="userSpaceOnUse"><stop offset="0" stop-color="#fff" stop-opacity="0.2"></stop><stop offset="1" stop-color="#fff" stop-opacity="0"></stop></linearGradient></defs><g id="Layer_2" data-name="Layer 2"><g id="Layer_1-2" data-name="Layer 1"><rect width="43.07" height="43.07" style="fill:none"></rect><polygon id="Fill-1" points="21.53 1.79 9.4 3.12 0 15.25 21.53 41.27 43.07 15.25 33.67 3.12 21.53 1.79" style="fill:#fab313"></polygon><polygon id="Fill-2" points="0 15.25 21.53 41.27 21.53 41.27 8.72 15.25 0 15.25" style="fill:#ea6c08"></polygon><polygon id="Fill-3" points="34.34 15.25 21.54 41.27 21.54 41.27 43.07 15.25 34.34 15.25" style="fill:#ea6c08"></polygon><polygon id="Fill-5" points="9.4 3.12 8.72 15.25 21.53 1.79 9.4 3.12" style="fill:#fdd233"></polygon><polygon id="Fill-6" points="34.34 15.25 33.67 3.12 21.54 1.79 34.34 15.25" style="fill:#fdd233"></polygon><polygon id="Fill-7" points="34.34 15.25 43.07 15.25 33.67 3.12 34.34 15.25" style="fill:#f8ac11"></polygon><polygon id="Fill-8" points="0 15.25 8.72 15.25 9.4 3.12 0 15.25" style="fill:#f8ac11"></polygon><polygon id="Fill-9" points="21.53 1.79 8.72 15.25 34.34 15.25 21.53 1.79" style="fill:#feeeb7"></polygon><polygon id="Fill-4" points="8.72 15.25 21.53 41.27 21.54 41.27 34.34 15.25 8.72 15.25" style="fill:#f8ac11"></polygon><polygon id="Fill-1-2" data-name="Fill-1" points="21.53 1.79 9.4 3.12 0 15.25 21.53 41.27 43.07 15.25 33.67 3.12 21.53 1.79" style="fill:url(#linear-gradient)"></polygon></g></g></svg>