<svg xmlns="http://www.w3.org/2000/svg" viewBox="0 0 43.07 43.07"><g id="Layer_2" data-name="Layer 2"><g id="Layer_1-2" data-name="Layer 1"><path d="M42.94,20.09c0,3.64,0,7.28,0,10.93,0,1,.07,2,.13,3.07a.58.58,0,0,1-.43.62,21.16,21.16,0,0,1-8.36,1.49,11.22,11.22,0,0,1-6.5-2.08A8.61,8.61,0,0,1,24.49,29a11.3,11.3,0,0,1,1.15-8.62,10.19,10.19,0,0,1,6.47-4.75,12.83,12.83,0,0,1,4.66-.43c.48.05.55,0,.55-.51,0-2.42,0-4.84,0-7.26,0-.5,0-.53.53-.53h4.54c.54,0,.55,0,.55.55V20.09Zm-5.62,5.52h0c0-1.73,0-3.46,0-5.2,0-.36-.16-.49-.48-.54a6.65,6.65,0,0,0-3.13.29,5.07,5.07,0,0,0-3.48,3.34,7,7,0,0,0,.38,5.3,4.1,4.1,0,0,0,2.1,2,7.38,7.38,0,0,0,4.28.42c.3-.05.33-.24.33-.48C37.31,29.06,37.32,27.34,37.32,25.61Z" style="fill:#ff40fb"></path><path d="M12,19.06c.09-.15.15-.24.2-.34q2.34-4.47,4.67-8.94A1.14,1.14,0,0,1,18,9.07c1.59,0,3.17,0,4.75,0a1.62,1.62,0,0,1,.38.09,1.53,1.53,0,0,1-.12.38q-3.54,5.88-7.11,11.73a1.2,1.2,0,0,0,0,1.44c2.48,4,4.93,8.06,7.39,12.09a2.57,2.57,0,0,1,.26.41.57.57,0,0,1,0,.42.49.49,0,0,1-.38.15c-1,0-1.93,0-2.9,0s-1.65,0-2.48,0A1.32,1.32,0,0,1,16.5,35q-2.33-4.41-4.69-8.78c-.08-.15-.16-.3-.29-.52-.11.19-.19.31-.26.44q-2.4,4.49-4.79,9a1.1,1.1,0,0,1-1.12.68c-1.63,0-3.26,0-4.89,0A3.69,3.69,0,0,1,0,35.72a2,2,0,0,1,.14-.51q1.2-2,2.41-4c1.7-2.79,3.39-5.59,5.11-8.38a.75.75,0,0,0,0-.89Q4,15.85.41,9.71L.32,9.56c-.24-.41-.2-.47.27-.47,1.85,0,3.7,0,5.55,0a.73.73,0,0,1,.72.44c1.24,2.35,2.51,4.69,3.76,7l1.13,2.13A4,4,0,0,0,12,19.06Z" style="fill:#ff40fb"></path><rect width="43.07" height="43.07" style="fill:none"></rect></g></g></svg>