<?xml version="1.0" encoding="UTF-8"?>
<svg id="Layer_2" data-name="Layer 2" xmlns="http://www.w3.org/2000/svg" viewBox="0 0 240 234">
  <defs>
    <style>
      .cls-1 {
        fill: #eb1000;
      }

      .cls-2 {
        fill: #fff;
      }
    </style>
  </defs>
  <g id="Layer_1-2" data-name="Layer 1">
    <g id="a">
      <g id="b">
        <g id="c">
          <rect class="cls-1" width="240" height="234" rx="42.5" ry="42.5"/>
        </g>
      </g>
    </g>
    <path class="cls-2" d="m149.58,99.46l30.29,20.22c4.01,2.68,5.09,8.11,2.41,12.12l-32.43,48.46c-1.62,2.42-4.34,3.87-7.26,3.87h-43.83c-6.98,0-11.14-7.79-7.26-13.59l20.86-31.17,25.1-37.51c2.68-4,8.1-5.08,12.1-2.41Z"/>
    <path class="cls-2" d="m90.42,134.54l-30.29-20.22c-4.01-2.68-5.09-8.11-2.41-12.12l32.43-48.46c1.62-2.42,4.34-3.87,7.26-3.87h43.83c6.98,0,11.14,7.79,7.26,13.59l-20.86,31.17-25.1,37.51c-2.68,4-8.1,5.08-12.1,2.41Z"/>
  </g>
</svg>