<svg width="800" height="800" viewBox="0 0 800 800" fill="none" xmlns="http://www.w3.org/2000/svg">
<g clip-path="url(#clip0_1886_32932)">
<path d="M787.234 714.893H726.169V471.506C726.169 471.472 726.169 420.425 726.169 420.425C726.169 375.845 689.898 339.574 645.317 339.574H446.809V223.504C446.809 207.081 433.445 193.717 417.021 193.717H412.766V155.419C412.766 148.369 407.05 142.653 400 142.653C392.95 142.653 387.234 148.369 387.234 155.419V193.717H382.979C366.555 193.717 353.191 207.081 353.191 223.504V339.574H143.757C99.1762 339.574 62.9055 375.845 62.9055 420.425V714.893H12.766C5.71574 714.893 0 720.609 0 727.659C0 734.71 5.71574 740.425 12.766 740.425H20.1583L27.52 766.19C32.9362 785.149 52.623 800 72.3404 800H727.66C747.377 800 767.064 785.149 772.48 766.192L779.842 740.425H787.234C794.284 740.425 800 734.71 800 727.659C800 720.609 794.284 714.893 787.234 714.893ZM378.723 223.504C378.723 221.198 380.672 219.249 382.979 219.249H417.021C419.328 219.249 421.277 221.198 421.277 223.504V339.574H378.723V223.504ZM143.757 365.106H645.317C675.82 365.106 700.637 389.923 700.637 420.425V459.574C677.551 462.67 664.087 473.942 652.032 484.088C639.176 494.909 629.021 503.455 607.103 503.455C585.185 503.455 575.032 494.909 562.174 484.088C548.048 472.199 532.036 458.721 500.803 458.721C469.574 458.721 453.566 472.197 439.44 484.088C426.586 494.909 416.432 503.455 394.519 503.455C372.604 503.455 362.453 494.909 349.597 484.088C335.471 472.199 319.46 458.721 288.232 458.721C257.003 458.721 240.994 472.197 226.868 484.088C219.317 490.444 212.186 496.449 202.95 499.954C197.993 501.835 194.715 506.585 194.715 511.889V599.183C194.715 606.223 188.989 611.949 181.949 611.949C174.911 611.949 169.183 606.223 169.183 599.183V512.308C169.362 506.927 166.114 501.916 160.953 499.957C151.716 496.451 144.582 490.446 137.031 484.088C124.979 473.942 111.518 462.67 88.4357 459.574V420.425C88.4374 389.923 113.253 365.106 143.757 365.106ZM88.4374 485.426C102.109 488.105 110.536 495.157 120.591 503.622C127.18 509.167 134.454 515.292 143.654 520.112V599.183C143.654 620.301 160.834 637.481 181.952 637.481C203.071 637.481 220.25 620.301 220.25 599.183L220.252 520.112C229.45 515.292 236.727 509.167 243.314 503.622C256.169 492.801 266.322 484.255 288.235 484.255C310.15 484.255 320.303 492.801 333.157 503.622C347.283 515.511 363.294 528.989 394.523 528.989C425.751 528.989 441.762 515.513 455.886 503.622C468.74 492.801 478.894 484.255 500.807 484.255C522.725 484.255 532.88 492.801 545.736 503.624C559.862 515.513 575.874 528.989 607.106 528.989C638.339 528.989 654.349 515.513 668.477 503.624C678.534 495.159 686.963 488.105 700.64 485.426V714.893H88.4374V485.426ZM747.93 759.178C745.644 767.179 735.981 774.468 727.66 774.468H72.3404C64.017 774.468 54.3557 767.179 52.0698 759.178L46.7115 740.425H753.289L747.93 759.178Z" fill="white"/>
<path d="M348.94 162.633C351.967 162.633 355.005 161.564 357.439 159.39C362.699 154.694 363.155 146.624 358.46 141.365C349.349 131.161 344.333 118.029 344.333 104.384C344.333 74.4882 366.969 43.278 400.003 26.849C433.036 43.2763 455.672 74.4865 455.672 104.384C455.672 118.029 450.654 131.161 441.545 141.365C436.848 146.623 437.305 154.694 442.564 159.389C447.82 164.083 455.892 163.629 460.588 158.369C473.882 143.481 481.202 124.309 481.202 104.384C481.202 63.1333 449.914 20.6465 405.114 1.0669C401.854 -0.357785 398.149 -0.356083 394.889 1.0669C350.089 20.6465 318.801 63.1316 318.801 104.383C318.801 124.308 326.122 143.479 339.415 158.367C341.936 161.195 345.431 162.635 348.94 162.633Z" fill="white"/>
</g>
<defs>
<clipPath id="clip0_1886_32932">
<rect width="800" height="800" fill="white"/>
</clipPath>
</defs>
</svg>
