<?xml version="1.0" encoding="UTF-8"?>
<svg id="Layer_2" data-name="Layer 2" xmlns="http://www.w3.org/2000/svg" viewBox="0 0 147.49 147.03">
  <defs>
    <style>
      .cls-1 {
        fill: #f33;
      }
    </style>
  </defs>
  <g id="svg5">
    <path id="path824" class="cls-1" d="m73.74,147.03C33.02,147.03,0,114.11,0,73.51S33.02,0,73.74,0s73.74,32.91,73.74,73.51-33.01,73.51-73.74,73.51Zm45.35-72.97c.14-11.53-6.53-23.85-15.3-32.67-15.3-15.13-37.04-14.33-53.54-6.53,14.2,1.19,22.45,5.95,30.59,14.16,8.31,8.2,10.92,14.46,10.93,25.05h-14.21l27.32,30.49,27.31-30.49h-13.11Zm-90.69-1.08c-.14,11.53,6.53,23.85,15.29,32.67,15.3,15.13,37.04,14.33,53.54,6.53-14.2-1.19-22.44-5.95-30.59-14.16-8.31-8.2-10.92-14.46-10.92-25.05h14.2l-27.31-30.5-27.31,30.49h13.11Z"/>
  </g>
</svg>