<svg xmlns="http://www.w3.org/2000/svg" viewBox="0 0 732 624" fill="none"><g clip-path="url(#clip0_1011_36279)"><path d="M732 0H0V624H732V0Z" fill="black"/><g clip-path="url(#clip1_1011_36279)"><path d="M311.696 270.527L293.466 297.842L320.739 316.1L296.466 352.473H257.011L275.24 325.158L247.967 306.9L272.241 270.527H311.699M333.235 259H266.09L232 310.079L259.273 328.336L235.471 364H302.616L336.706 312.921L309.433 294.664L333.235 259Z" fill="#E5202B"/><path d="M372.105 273.519V277.591H366.584V294.388H361.51V277.591H355.989V273.519H372.108H372.105Z" fill="white"/><path d="M392.703 273.519V294.388H387.629V285.797H379.733V294.388H374.658V273.519H379.733V281.696H387.629V273.519H392.703V273.519Z" fill="white"/><path d="M401.43 277.591V281.812H408.228V285.736H401.43V290.313H409.12V294.385H396.356V273.519H409.12V277.591H401.43Z" fill="white"/><path d="M360.557 321.295C359.348 320.8 358.384 320.065 357.664 319.094C356.94 318.123 356.562 316.954 356.52 315.585H361.92C361.998 316.359 362.266 316.948 362.722 317.352C363.178 317.76 363.769 317.961 364.503 317.961C365.237 317.961 365.848 317.786 366.284 317.44C366.72 317.093 366.937 316.611 366.937 315.999C366.937 315.485 366.762 315.057 366.416 314.721C366.071 314.384 365.644 314.106 365.14 313.889C364.636 313.672 363.918 313.423 362.987 313.144C361.643 312.727 360.544 312.312 359.694 311.895C358.843 311.477 358.11 310.865 357.496 310.053C356.882 309.24 356.574 308.178 356.574 306.871C356.574 304.928 357.276 303.407 358.682 302.306C360.088 301.206 361.917 300.655 364.173 300.655C366.429 300.655 368.32 301.206 369.723 302.306C371.129 303.407 371.879 304.938 371.979 306.9H366.488C366.449 306.226 366.2 305.696 365.744 305.31C365.288 304.925 364.707 304.731 363.992 304.731C363.378 304.731 362.884 304.896 362.509 305.223C362.134 305.55 361.943 306.022 361.943 306.634C361.943 307.308 362.26 307.835 362.893 308.211C363.527 308.586 364.516 308.994 365.861 309.431C367.205 309.888 368.301 310.325 369.141 310.739C369.982 311.157 370.709 311.759 371.323 312.552C371.937 313.345 372.244 314.365 372.244 315.614C372.244 316.864 371.943 317.883 371.339 318.854C370.735 319.826 369.859 320.599 368.711 321.172C367.564 321.749 366.206 322.033 364.645 322.033C363.084 322.033 361.756 321.787 360.55 321.289L360.557 321.295Z" fill="white"/><path d="M380.357 300.96V313.446C380.357 314.695 380.664 315.657 381.278 316.33C381.892 317.003 382.791 317.34 383.98 317.34C385.169 317.34 386.078 317.003 386.711 316.33C387.345 315.657 387.661 314.695 387.661 313.446V300.96H392.736V313.416C392.736 315.281 392.338 316.854 391.55 318.143C390.758 319.431 389.694 320.402 388.36 321.056C387.025 321.71 385.535 322.037 383.893 322.037C382.251 322.037 380.78 321.717 379.484 321.072C378.188 320.428 377.163 319.457 376.41 318.159C375.657 316.861 375.282 315.281 375.282 313.416V300.96H380.357Z" fill="white"/><path d="M411.822 312.928C412.552 313.87 412.921 314.944 412.921 316.152C412.921 317.897 412.313 319.279 411.095 320.299C409.876 321.318 408.179 321.83 406.004 321.83H396.298V300.96H405.678C407.795 300.96 409.453 301.446 410.649 302.417C411.845 303.388 412.446 304.705 412.446 306.369C412.446 307.599 412.123 308.619 411.483 309.432C410.839 310.244 409.983 310.811 408.916 311.125C410.122 311.384 411.091 311.982 411.825 312.924L411.822 312.928ZM401.372 309.406H404.698C405.529 309.406 406.169 309.221 406.612 308.855C407.058 308.49 407.281 307.949 407.281 307.234C407.281 306.518 407.058 305.974 406.612 305.599C406.166 305.223 405.529 305.036 404.698 305.036H401.372V309.406ZM407.087 317.149C407.552 316.764 407.785 316.204 407.785 315.469C407.785 314.734 407.543 314.161 407.058 313.743C406.573 313.326 405.904 313.119 405.054 313.119H401.372V317.725H405.112C405.962 317.725 406.621 317.531 407.087 317.146V317.149Z" fill="white"/><path d="M428.83 318.146H421.053L419.805 321.833H414.492L422.032 300.963H427.908L435.449 321.833H430.077L428.83 318.146V318.146ZM427.524 314.222L424.941 306.583L422.388 314.222H427.524Z" fill="white"/><path d="M448.361 321.83L444.027 313.951H442.808V321.83H437.734V300.96H446.254C447.896 300.96 449.295 301.248 450.456 301.821C451.613 302.397 452.479 303.184 453.054 304.184C453.626 305.184 453.914 306.301 453.914 307.528C453.914 308.917 453.523 310.153 452.741 311.244C451.959 312.335 450.805 313.109 449.282 313.562L454.092 321.827H448.364L448.361 321.83ZM442.812 310.354H445.957C446.887 310.354 447.586 310.128 448.048 309.671C448.513 309.215 448.746 308.57 448.746 307.739C448.746 306.907 448.513 306.321 448.048 305.864C447.582 305.408 446.884 305.181 445.957 305.181H442.812V310.354V310.354Z" fill="white"/><path d="M475.728 321.83H470.654L462.163 308.956V321.83H457.088V300.96H462.163L470.654 313.892V300.96H475.728V321.83Z" fill="white"/><path d="M492.384 318.146H484.607L483.36 321.833H478.046L485.587 300.963H491.463L499.003 321.833H493.631L492.384 318.146V318.146ZM491.078 314.222L488.496 306.583L485.942 314.222H491.078Z" fill="white"/><path d="M360.557 348.737C359.348 348.241 358.384 347.507 357.664 346.535C356.94 345.564 356.562 344.396 356.52 343.026H361.92C361.998 343.8 362.266 344.389 362.722 344.794C363.178 345.202 363.769 345.402 364.503 345.402C365.237 345.402 365.848 345.228 366.284 344.881C366.72 344.535 366.937 344.053 366.937 343.441C366.937 342.926 366.762 342.499 366.416 342.162C366.071 341.825 365.644 341.547 365.14 341.33C364.636 341.113 363.918 340.864 362.987 340.586C361.643 340.168 360.544 339.754 359.694 339.336C358.843 338.918 358.11 338.307 357.496 337.494C356.882 336.682 356.574 335.62 356.574 334.312C356.574 332.37 357.276 330.848 358.682 329.748C360.088 328.647 361.917 328.097 364.173 328.097C366.429 328.097 368.32 328.647 369.723 329.748C371.129 330.848 371.879 332.379 371.979 334.341H366.488C366.449 333.668 366.2 333.137 365.744 332.752C365.288 332.366 364.707 332.172 363.992 332.172C363.378 332.172 362.884 332.337 362.509 332.664C362.134 332.991 361.943 333.464 361.943 334.076C361.943 334.749 362.26 335.277 362.893 335.652C363.527 336.028 364.516 336.436 365.861 336.873C367.205 337.329 368.301 337.766 369.141 338.18C369.982 338.598 370.709 339.2 371.323 339.993C371.937 340.786 372.244 341.806 372.244 343.056C372.244 344.305 371.943 345.325 371.339 346.296C370.735 347.267 369.859 348.041 368.711 348.614C367.564 349.19 366.206 349.475 364.645 349.475C363.084 349.475 361.756 349.229 360.55 348.73L360.557 348.737Z" fill="white"/><path d="M390.36 328.404V332.477H384.84V349.274H379.765V332.477H374.245V328.404H390.363H390.36Z" fill="white"/><path d="M397.898 328.404V340.89C397.898 342.14 398.205 343.101 398.819 343.774C399.433 344.448 400.332 344.784 401.521 344.784C402.71 344.784 403.619 344.448 404.252 343.774C404.886 343.101 405.202 342.14 405.202 340.89V328.404H410.277V340.861C410.277 342.725 409.879 344.299 409.091 345.587C408.299 346.875 407.236 347.847 405.901 348.5C404.566 349.154 403.076 349.481 401.434 349.481C399.792 349.481 398.321 349.161 397.025 348.517C395.729 347.872 394.704 346.901 393.951 345.603C393.198 344.305 392.823 342.725 392.823 340.861V328.404H397.898V328.404Z" fill="white"/><path d="M427.404 329.712C429.046 330.583 430.316 331.807 431.218 333.383C432.12 334.96 432.569 336.779 432.569 338.838C432.569 340.896 432.12 342.693 431.218 344.279C430.316 345.865 429.04 347.092 427.388 347.966C425.736 348.837 423.82 349.274 421.645 349.274H413.839V328.404H421.645C423.842 328.404 425.759 328.841 427.404 329.712ZM425.801 343.298C426.871 342.25 427.404 340.76 427.404 338.838C427.404 336.915 426.871 335.419 425.801 334.348C424.731 333.276 423.238 332.742 421.318 332.742H418.913V344.872H421.318C423.238 344.872 424.731 344.347 425.801 343.295V343.298Z" fill="white"/><path d="M440.494 328.404V349.274H435.42V328.404H440.494Z" fill="white"/><path d="M448.643 348.115C447.01 347.202 445.714 345.93 444.754 344.295C443.794 342.661 443.316 340.822 443.316 338.779C443.316 336.737 443.794 334.904 444.754 333.279C445.714 331.654 447.01 330.385 448.643 329.473C450.275 328.56 452.072 328.106 454.031 328.106C455.989 328.106 457.786 328.563 459.419 329.473C461.051 330.385 462.337 331.654 463.278 333.279C464.218 334.904 464.687 336.737 464.687 338.779C464.687 340.822 464.212 342.657 463.262 344.295C462.311 345.93 461.025 347.206 459.402 348.115C457.78 349.028 455.989 349.481 454.031 349.481C452.072 349.481 450.275 349.025 448.643 348.115ZM458.022 343.179C459.021 342.068 459.522 340.602 459.522 338.779C459.522 336.957 459.021 335.464 458.022 334.364C457.024 333.263 455.692 332.713 454.031 332.713C452.369 332.713 451.008 333.257 450.01 334.348C449.011 335.439 448.51 336.915 448.51 338.776C448.51 340.637 449.011 342.091 450.01 343.192C451.008 344.292 452.35 344.842 454.031 344.842C455.711 344.842 457.024 344.289 458.022 343.179V343.179Z" fill="white"/></g><circle cx="115.772" cy="115.772" r="115.772" transform="matrix(0.539037 0.842282 0.842282 -0.539037 531.473 -77.9834)" fill="#E5202B"/><g filter="url(#filter0_b_1011_36279)"><circle cx="73.584" cy="73.584" r="73.584" transform="matrix(0.539037 0.842282 0.842282 -0.539037 634.802 43.4287)" fill="url(#paint0_linear_1011_36279)"/><circle cx="73.584" cy="73.584" r="73.084" transform="matrix(0.539037 0.842282 0.842282 -0.539037 634.802 43.4287)" stroke="url(#paint1_linear_1011_36279)"/></g></g><defs><filter id="filter0_b_1011_36279" x="635.203" y="-35.4989" width="202.483" height="202.483" filterUnits="userSpaceOnUse" color-interpolation-filters="sRGB"><feFlood flood-opacity="0" result="BackgroundImageFix"/><feGaussianBlur in="BackgroundImageFix" stdDeviation="13.8242"/><feComposite in2="SourceAlpha" operator="in" result="effect1_backgroundBlur_1011_36279"/><feBlend mode="normal" in="SourceGraphic" in2="effect1_backgroundBlur_1011_36279" result="shape"/></filter><linearGradient id="paint0_linear_1011_36279" x1="0" y1="0" x2="73.9775" y2="73.9775" gradientUnits="userSpaceOnUse"><stop stop-color="#E20917" stop-opacity="0.6"/><stop offset="1" stop-color="#E20917" stop-opacity="0.2"/></linearGradient><linearGradient id="paint1_linear_1011_36279" x1="15.3464" y1="15.3464" x2="133.002" y2="133.002" gradientUnits="userSpaceOnUse"><stop stop-color="white" stop-opacity="0.6"/><stop offset="0.395833" stop-color="white" stop-opacity="0"/><stop offset="0.586815" stop-color="#E20917" stop-opacity="0"/><stop offset="1" stop-color="#E20917" stop-opacity="0.5"/></linearGradient><clipPath id="clip0_1011_36279"><rect width="732" height="624" fill="white"/></clipPath><clipPath id="clip1_1011_36279"><rect width="267" height="105" fill="white" transform="translate(232 259)"/></clipPath></defs></svg>