<svg width="36" height="43" viewBox="0 0 36 43" fill="none" xmlns="http://www.w3.org/2000/svg">
<g clip-path="url(#clip0_204_1615)">
<path d="M35.7699 14.2299C35.5572 13.7183 35.1955 13.2825 34.7318 12.9793C34.2681 12.6761 33.7239 12.5195 33.1699 12.5299H23.9999C23.8829 12.5332 23.7669 12.5075 23.6623 12.4552C23.5576 12.4028 23.4675 12.3254 23.3999 12.2299C23.3321 12.128 23.2879 12.0123 23.2706 11.8912C23.2533 11.7701 23.2633 11.6466 23.2999 11.5299L25.5999 3.52986C25.792 2.91732 25.756 2.25599 25.4987 1.66788C25.2414 1.07976 24.7801 0.60453 24.1999 0.329855C23.6438 0.0179826 22.9939 -0.0829205 22.3693 0.0456551C21.7448 0.174231 21.1876 0.523664 20.7999 1.02986L7.46992 16.9299C7.14217 17.3293 6.93133 17.8116 6.86073 18.3234C6.79014 18.8352 6.86254 19.3566 7.06992 19.8299C7.28892 20.3085 7.64115 20.7139 8.0845 20.9977C8.52785 21.2814 9.04355 21.4315 9.56992 21.4299H13.6699C14.0699 21.4299 14.2699 21.6299 14.2699 21.7299C14.3421 21.8297 14.3889 21.9456 14.4063 22.0675C14.4237 22.1895 14.4112 22.3138 14.3699 22.4299L10.1699 31.9299C10.0904 32.0472 10.055 32.1889 10.0699 32.3299C10.0699 32.5951 10.1753 32.8494 10.3628 33.037C10.5503 33.2245 10.8047 33.3299 11.0699 33.3299C11.2617 33.3267 11.4485 33.2684 11.608 33.162C11.7676 33.0557 11.8932 32.9056 11.9699 32.7299L16.0699 23.2299C16.2602 22.8165 16.3422 22.3615 16.308 21.9077C16.2738 21.4539 16.1246 21.0163 15.8745 20.6361C15.6243 20.2559 15.2815 19.9457 14.8783 19.7346C14.4751 19.5236 14.0249 19.4187 13.5699 19.4299H9.46992C9.3307 19.42 9.1955 19.3789 9.07432 19.3097C8.95314 19.2404 8.8491 19.1448 8.76992 19.0299C8.69044 18.9058 8.65692 18.7579 8.67519 18.6118C8.69346 18.4656 8.76236 18.3305 8.86992 18.2299L22.3699 2.32985C22.4855 2.21453 22.6315 2.13448 22.7909 2.09906C22.9502 2.06365 23.1164 2.07433 23.2699 2.12986C23.4218 2.21978 23.5419 2.35474 23.6136 2.51602C23.6852 2.67729 23.7049 2.85688 23.6699 3.02986L21.3699 11.0299C21.2601 11.4351 21.239 11.8593 21.308 12.2735C21.3771 12.6877 21.5346 13.0821 21.7699 13.4299C22.021 13.7768 22.3521 14.0579 22.7351 14.2494C23.1182 14.4409 23.5418 14.5371 23.9699 14.5299H33.1699C33.3263 14.5197 33.4815 14.564 33.609 14.6551C33.7366 14.7462 33.8287 14.8786 33.8699 15.0299C33.9272 15.167 33.9386 15.3189 33.9026 15.463C33.8665 15.6072 33.7849 15.7358 33.6699 15.8299C32.8699 16.6299 32.0699 17.3299 31.3699 18.1299C29.6699 19.7299 28.0699 21.4299 26.3699 23.0299L18.2699 30.8299C16.5699 32.4299 14.9699 34.1299 13.3699 35.7299L8.66992 40.4299C8.48669 40.6168 8.38406 40.8681 8.38406 41.1299C8.38406 41.3916 8.48669 41.6429 8.66992 41.8299C8.85685 42.0131 9.10816 42.1157 9.36992 42.1157C9.63167 42.1157 9.88299 42.0131 10.0699 41.8299C11.8699 40.1299 13.5699 38.3299 15.3699 36.6299C18.0699 33.9299 20.8699 31.2299 23.5699 28.6299C24.5699 27.6299 25.5699 26.6299 26.6699 25.6299C28.3699 24.0299 30.0699 22.3299 31.6699 20.7299C32.6699 19.7299 33.7699 18.7299 34.7699 17.6299C34.8699 17.5299 35.0699 17.2299 35.1699 17.2299C35.5546 16.8447 35.8169 16.3544 35.9236 15.8206C36.0304 15.2868 35.9769 14.7333 35.7699 14.2299Z" fill="#A90B0B"/>
<path d="M0.99995 18.43C0.787458 18.4093 0.582372 18.3409 0.39995 18.23C0.203835 18.0597 0.075666 17.8244 0.0389333 17.5673C0.00220057 17.3101 0.0593653 17.0484 0.19995 16.83L8.49995 6.22999C8.66477 6.03662 8.89249 5.90756 9.14306 5.86549C9.39364 5.82343 9.65102 5.87105 9.86995 5.99999C10.0661 6.17029 10.1942 6.40557 10.231 6.6627C10.2677 6.91983 10.2105 7.18158 10.07 7.39999L1.76995 18C1.68858 18.1311 1.57522 18.2393 1.44052 18.3145C1.30583 18.3897 1.15422 18.4295 0.99995 18.43Z" fill="#A90B0B"/>
</g>
<defs>
<clipPath id="clip0_204_1615">
<rect width="35.97" height="42.13" fill="white"/>
</clipPath>
</defs>
</svg>
