<svg width="37" height="37" viewBox="0 0 37 37" fill="none" xmlns="http://www.w3.org/2000/svg">
<g clip-path="url(#clip0_204_1620)">
<path d="M27.4 17.4C27.4 17.0242 27.2885 16.6569 27.0798 16.3444C26.871 16.032 26.5743 15.7884 26.2271 15.6446C25.8799 15.5008 25.4979 15.4632 25.1293 15.5365C24.7607 15.6098 24.4222 15.7908 24.1565 16.0565C23.8908 16.3222 23.7098 16.6608 23.6365 17.0293C23.5632 17.3979 23.6008 17.7799 23.7446 18.1271C23.8884 18.4743 24.1319 18.771 24.4444 18.9798C24.7568 19.1886 25.1242 19.3 25.5 19.3C25.9961 19.2758 26.4654 19.0678 26.8166 18.7166C27.1678 18.3654 27.3757 17.8961 27.4 17.4Z" fill="#A90B0B"/>
<path d="M19.4 17.4C19.4 17.0242 19.2885 16.6569 19.0798 16.3444C18.871 16.032 18.5743 15.7884 18.2271 15.6446C17.8799 15.5008 17.4979 15.4632 17.1293 15.5365C16.7607 15.6098 16.4222 15.7908 16.1565 16.0565C15.8908 16.3222 15.7098 16.6608 15.6365 17.0293C15.5632 17.3979 15.6008 17.7799 15.7446 18.1271C15.8884 18.4743 16.1319 18.771 16.4444 18.9798C16.7568 19.1886 17.1242 19.3 17.5 19.3C17.9961 19.2758 18.4654 19.0678 18.8166 18.7166C19.1678 18.3654 19.3757 17.8961 19.4 17.4Z" fill="#A90B0B"/>
<path d="M31 6.30029H6C4.4087 6.30029 2.88258 6.93243 1.75736 8.05765C0.632141 9.18287 0 10.709 0 12.3003L0 23.2003C0 24.7916 0.632141 26.3177 1.75736 27.4429C2.88258 28.5682 4.4087 29.2003 6 29.2003H6.6V35.6003C6.58375 35.796 6.6342 35.9915 6.74313 36.1549C6.85207 36.3183 7.01309 36.44 7.2 36.5003C7.31733 36.5798 7.45904 36.6153 7.6 36.6003C7.73142 36.6038 7.86205 36.5788 7.98289 36.527C8.10373 36.4753 8.21192 36.3979 8.3 36.3003L15.2 29.4003C15.2976 29.3122 15.375 29.204 15.4268 29.0832C15.4785 28.9623 15.5035 28.8317 15.5 28.7003C15.5088 28.5667 15.489 28.4327 15.4419 28.3074C15.3948 28.1821 15.3214 28.0682 15.2267 27.9736C15.132 27.8789 15.0182 27.8055 14.8929 27.7584C14.7676 27.7113 14.6336 27.6915 14.5 27.7003C14.1926 27.7285 13.907 27.8713 13.7 28.1003L8.6 33.2003V28.2003C8.60884 28.0667 8.58903 27.9327 8.5419 27.8074C8.49477 27.6821 8.42141 27.5682 8.32673 27.4736C8.23205 27.3789 8.11823 27.3055 7.9929 27.2584C7.86756 27.2113 7.73361 27.1915 7.6 27.2003H6C4.93913 27.2003 3.92172 26.7789 3.17157 26.0287C2.42143 25.2786 2 24.2612 2 23.2003V12.3003C2 11.2394 2.42143 10.222 3.17157 9.47187C3.92172 8.72172 4.93913 8.30029 6 8.30029H31C32.0609 8.30029 33.0783 8.72172 33.8284 9.47187C34.5786 10.222 35 11.2394 35 12.3003V23.2003C35 24.2612 34.5786 25.2786 33.8284 26.0287C33.0783 26.7789 32.0609 27.2003 31 27.2003H19.8C19.5348 27.2003 19.2804 27.3057 19.0929 27.4932C18.9054 27.6807 18.8 27.9351 18.8 28.2003C18.8 28.4655 18.9054 28.7199 19.0929 28.9074C19.2804 29.0949 19.5348 29.2003 19.8 29.2003H31C32.5913 29.2003 34.1174 28.5682 35.2426 27.4429C36.3679 26.3177 37 24.7916 37 23.2003V12.3003C37 10.709 36.3679 9.18287 35.2426 8.05765C34.1174 6.93243 32.5913 6.30029 31 6.30029Z" fill="#A90B0B"/>
<path d="M5.59995 2.0001H21C21.1336 2.00894 21.2675 1.98913 21.3928 1.942C21.5182 1.89487 21.632 1.82151 21.7267 1.72683C21.8214 1.63215 21.8947 1.51833 21.9419 1.39299C21.989 1.26766 22.0088 1.13371 22 1.0001C22.0088 0.866488 21.989 0.732533 21.9419 0.6072C21.8947 0.481867 21.8214 0.368049 21.7267 0.273367C21.632 0.178684 21.5182 0.105323 21.3928 0.0581946C21.2675 0.0110662 21.1336 -0.00874172 21 9.71952e-05H5.59995C5.46634 -0.00874172 5.33239 0.0110662 5.20705 0.0581946C5.08172 0.105323 4.9679 0.178684 4.87322 0.273367C4.77854 0.368049 4.70518 0.481867 4.65805 0.6072C4.61092 0.732533 4.59111 0.866488 4.59995 1.0001C4.59995 1.26531 4.70531 1.51967 4.89284 1.7072C5.08038 1.89474 5.33473 2.0001 5.59995 2.0001Z" fill="#A90B0B"/>
</g>
<defs>
<clipPath id="clip0_204_1620">
<rect width="37" height="36.6" fill="white"/>
</clipPath>
</defs>
</svg>
