<svg width="37" height="29" viewBox="0 0 37 29" fill="none" xmlns="http://www.w3.org/2000/svg">
<g clip-path="url(#clip0_204_1627)">
<path d="M4.10001 7.2001L17.5 16.3001L27.4 10.8001C27.518 10.748 27.6234 10.6712 27.7091 10.5748C27.7949 10.4784 27.8589 10.3647 27.8968 10.2414C27.9347 10.1181 27.9457 9.98813 27.929 9.86023C27.9123 9.73233 27.8683 9.60951 27.8 9.5001C27.7479 9.38209 27.6711 9.27667 27.5747 9.19095C27.4783 9.10524 27.3646 9.04125 27.2413 9.00332C27.118 8.96539 26.988 8.9544 26.8601 8.97109C26.7322 8.98779 26.6094 9.03179 26.5 9.1001L17.6 14.0001L5.10001 5.6001C4.97841 5.55225 4.86916 5.47762 4.78036 5.38176C4.69157 5.2859 4.6255 5.17127 4.58707 5.04638C4.54864 4.92149 4.53884 4.78955 4.55839 4.66036C4.57794 4.53116 4.62635 4.40803 4.70001 4.3001C5.00001 3.6001 6.00001 3.5001 7.00001 3.5001H27C27.2652 3.5001 27.5196 3.39474 27.7071 3.2072C27.8946 3.01967 28 2.76531 28 2.5001C28.0088 2.36649 27.989 2.23253 27.9419 2.1072C27.8948 1.98187 27.8214 1.86805 27.7267 1.77337C27.6321 1.67868 27.5182 1.60532 27.3929 1.55819C27.2676 1.51107 27.1336 1.49126 27 1.5001H6.30001C5.20001 1.6001 3.50001 1.8001 2.90001 3.5001C2.606 4.15589 2.56598 4.89749 2.7877 5.58112C3.00941 6.26474 3.47707 6.84169 4.10001 7.2001Z" fill="#A90B0B"/>
<path d="M33.9 9.20021C33.6613 9.20021 33.4324 9.29503 33.2636 9.46381C33.0948 9.63259 33 9.86151 33 10.1002V21.7002C33.0081 22.3328 32.8894 22.9606 32.6511 23.5466C32.4127 24.1326 32.0594 24.6649 31.6121 25.1123C31.1647 25.5596 30.6324 25.9129 30.0464 26.1512C29.4604 26.3896 28.8326 26.5083 28.2 26.5002H6.70001C6.06743 26.5083 5.43964 26.3896 4.85364 26.1512C4.26764 25.9129 3.73528 25.5596 3.28794 25.1123C2.84061 24.6649 2.48734 24.1326 2.24897 23.5466C2.01061 22.9606 1.89195 22.3328 1.90001 21.7002V8.60021C1.90001 8.48202 1.87673 8.36499 1.8315 8.25579C1.78628 8.1466 1.71998 8.04738 1.63641 7.96381C1.55284 7.88024 1.45362 7.81395 1.34443 7.76872C1.23524 7.72349 1.1182 7.70021 1.00001 7.70021C0.751246 7.69896 0.510946 7.79048 0.326037 7.9569C0.141128 8.12332 0.024887 8.35269 1.30996e-05 8.60021V21.8002C-0.00935691 22.6695 0.154958 23.532 0.483321 24.337C0.811684 25.1419 1.29748 25.8733 1.91223 26.488C2.52697 27.1027 3.25828 27.5885 4.06326 27.9169C4.86824 28.2453 5.73069 28.4096 6.60001 28.4002H28.2C29.0744 28.4108 29.9422 28.248 30.7533 27.9213C31.5644 27.5946 32.3028 27.1105 32.9258 26.4968C33.5487 25.8831 34.0439 25.1521 34.3828 24.346C34.7216 23.5399 34.8974 22.6746 34.9 21.8002V10.1002C34.8977 9.97405 34.8696 9.8497 34.8172 9.7349C34.7648 9.62009 34.6894 9.51729 34.5956 9.43288C34.5018 9.34847 34.3917 9.28425 34.272 9.24423C34.1523 9.2042 34.0257 9.18922 33.9 9.20021Z" fill="#A90B0B"/>
<path d="M33.1 0C32.3485 0 31.6138 0.222866 30.9889 0.640415C30.364 1.05796 29.8769 1.65144 29.5893 2.3458C29.3017 3.04016 29.2264 3.80422 29.3731 4.54134C29.5197 5.27847 29.8816 5.95557 30.413 6.48701C30.9445 7.01845 31.6216 7.38036 32.3587 7.52698C33.0958 7.67361 33.8599 7.59836 34.5542 7.31074C35.2486 7.02313 35.8421 6.53607 36.2596 5.91117C36.6772 5.28626 36.9001 4.55157 36.9001 3.8C36.9001 2.79218 36.4997 1.82563 35.7871 1.11299C35.0744 0.400356 34.1079 0 33.1 0ZM33.1 5.7C32.604 5.67576 32.1347 5.4678 31.7835 5.1166C31.4323 4.7654 31.2243 4.29608 31.2001 3.8C31.2243 3.30392 31.4323 2.8346 31.7835 2.4834C32.1347 2.1322 32.604 1.92424 33.1 1.9C33.3518 1.89165 33.6026 1.93508 33.8369 2.02761C34.0712 2.12014 34.284 2.25979 34.4621 2.43791C34.6403 2.61604 34.7799 2.82884 34.8724 3.06314C34.965 3.29743 35.0084 3.54823 35.0001 3.8C34.9758 4.29608 34.7678 4.7654 34.4166 5.1166C34.0654 5.4678 33.5961 5.67576 33.1 5.7Z" fill="#A90B0B"/>
</g>
<defs>
<clipPath id="clip0_204_1627">
<rect width="36.9" height="28.4" fill="white"/>
</clipPath>
</defs>
</svg>
