<svg width="37" height="37" viewBox="0 0 37 37" fill="none" xmlns="http://www.w3.org/2000/svg">
<g clip-path="url(#clip0_204_1633)">
<path d="M36.8 18.4C36.8 13.52 34.8614 8.8399 31.4108 5.38924C27.9601 1.93857 23.28 0 18.4 0C13.52 0 8.8399 1.93857 5.38924 5.38924C1.93857 8.8399 0 13.52 0 18.4C0.00391265 21.0915 0.583549 23.751 1.7 26.2C2.79344 28.5861 4.39796 30.7027 6.4 32.4C8.39612 34.1313 10.7534 35.3953 13.3 36.1C14.1547 36.3239 15.0232 36.4909 15.9 36.6C16.3281 36.6829 16.7643 36.7165 17.2 36.7C17.9 36.7 19.3 37 19.3 35.9C19.3013 35.7946 19.2816 35.6899 19.2418 35.5923C19.2021 35.4946 19.1432 35.4059 19.0687 35.3313C18.9941 35.2568 18.9054 35.1979 18.8077 35.1582C18.7101 35.1184 18.6054 35.0987 18.5 35.1C15.1971 35.1 11.9683 34.1206 9.22198 32.2855C6.47568 30.4505 4.3352 27.8423 3.07121 24.7908C1.80723 21.7393 1.47651 18.3815 2.12089 15.142C2.76526 11.9025 4.35578 8.92685 6.69132 6.59132C9.02685 4.25578 12.0025 2.66526 15.242 2.02089C18.4815 1.37651 21.8393 1.70723 24.8908 2.97121C27.9423 4.2352 30.5505 6.37568 32.3855 9.12198C34.2206 11.8683 35.2 15.0971 35.2 18.4C35.1701 21.8722 34.0893 25.254 32.1 28.1C31.2489 29.5184 30.0425 30.6904 28.6 31.5C27.3964 32.0918 26.0327 32.2753 24.7155 32.0226C23.3983 31.77 22.1993 31.0951 21.3 30.1C20.5719 29.3081 20.0559 28.3449 19.8 27.3C19.6651 26.3395 19.6316 25.3675 19.7 24.4C20.4928 24.2175 21.2007 23.7725 21.709 23.1372C22.2172 22.5019 22.496 21.7136 22.5 20.9C22.5 19 21.2 18.3 20 17.7L18.1 16.9C17.4 16.6 17 16.3 17 15.5C17 14.3 18.1 14 18.9 14C19.6743 14.0283 20.4443 14.1288 21.2 14.3C21.292 14.3537 21.3942 14.3878 21.5 14.4C21.6054 14.4013 21.7101 14.3816 21.8077 14.3418C21.9054 14.3021 21.9941 14.2432 22.0687 14.1687C22.1432 14.0941 22.2021 14.0054 22.2418 13.9077C22.2816 13.8101 22.3013 13.7054 22.3 13.6C22.2916 13.4069 22.2177 13.2225 22.0905 13.0771C21.9632 12.9316 21.7902 12.8339 21.6 12.8C20.9565 12.5514 20.2848 12.3834 19.6 12.3V9.3C19.6111 9.18745 19.5987 9.07383 19.5637 8.96629C19.5288 8.85874 19.4719 8.75959 19.3968 8.67506C19.3217 8.59054 19.2299 8.52247 19.1272 8.47513C19.0245 8.4278 18.9131 8.40222 18.8 8.4C18.5613 8.4 18.3324 8.49482 18.1636 8.6636C17.9948 8.83239 17.9 9.06131 17.9 9.3V12.4C17.1284 12.5322 16.4233 12.9193 15.8976 13.4994C15.3719 14.0795 15.0559 14.8191 15 15.6C14.9834 16.2452 15.1666 16.8799 15.5246 17.4169C15.8827 17.954 16.398 18.3672 17 18.6L19 19.5C19.4076 19.6042 19.7719 19.8342 20.0412 20.1573C20.3105 20.4805 20.471 20.8803 20.5 21.3C20.5 22.4 19.8 23 18.6 23C17.8398 22.9886 17.0904 22.8183 16.4 22.5C16.2354 22.4569 16.0685 22.4235 15.9 22.4C15.7926 22.3909 15.6846 22.4053 15.5834 22.4423C15.4822 22.4793 15.3903 22.5379 15.3141 22.6141C15.2379 22.6903 15.1793 22.7822 15.1423 22.8834C15.1053 22.9846 15.0909 23.0926 15.1 23.2C15.0862 23.3694 15.1274 23.5387 15.2175 23.6828C15.3075 23.8269 15.4417 23.9382 15.6 24C16.3737 24.2934 17.1792 24.4948 18 24.6C17.8652 26.274 18.1397 27.9558 18.8 29.5C19.4903 30.7879 20.4861 31.8867 21.7 32.7C22.0774 32.9702 22.4791 33.2045 22.9 33.4C24.4568 34.0279 26.171 34.1534 27.8027 33.7589C29.4344 33.3645 30.9019 32.4697 32 31.2C34.076 28.9169 35.5835 26.1759 36.4 23.2C36.6284 21.6094 36.762 20.0065 36.8 18.4Z" fill="#A90B0B"/>
</g>
<defs>
<clipPath id="clip0_204_1633">
<rect width="36.8" height="36.74" fill="white"/>
</clipPath>
</defs>
</svg>
