<svg xmlns="http://www.w3.org/2000/svg" viewBox="0 0 43.07 43.07"><g id="Layer_2" data-name="Layer 2"><g id="Layer_1-2" data-name="Layer 1"><path d="M28.17,39.91h-3c-.63,0-.73-.07-.94-.66l-2.31-6.74c-.22-.65-.28-.69-.95-.69H10.35c-.72,0-.74,0-1,.71L7.26,39.15c-.23.71-.31.76-1,.76H.86c-.88,0-1-.11-.66-1q2.46-7.14,5-14.26,2.61-7.56,5.24-15.11A9.61,9.61,0,0,0,11,6.31c0-.4.16-.56.56-.56h7.89c.51,0,.69.31.83.71q2.09,5.93,4.19,11.84,3.64,10.29,7.28,20.57c.37,1,.36,1-.76,1ZM15.57,11.82c-.13.5-.22.93-.35,1.36C14.05,17,12.86,20.86,11.68,24.7c-.17.55-.16.57.38.57H19.2c.39,0,.5-.09.37-.49-.66-2.05-1.3-4.1-1.94-6.16C16.94,16.38,16.27,14.14,15.57,11.82Z" style="fill:#ff8400"></path><path d="M35.36,27V14.77c0-.68,0-.73.73-.73h5.85c.63,0,.73.09.73.71V39.16c0,.63-.12.75-.76.75h-5.8c-.67,0-.75-.08-.75-.78Z" style="fill:#ff8400"></path><path d="M39,3.16A3.75,3.75,0,0,1,43,7.22a3.89,3.89,0,0,1-4.21,4A3.82,3.82,0,0,1,35,7,3.86,3.86,0,0,1,39,3.16Z" style="fill:#ff8400"></path><rect width="43.07" height="43.07" style="fill:none"></rect></g></g></svg>