<svg xmlns="http://www.w3.org/2000/svg" viewBox="0 0 43.07 43.07"><g id="Layer_2" data-name="Layer 2"><g id="Layer_1-2" data-name="Layer 1"><path id="path0_fill" data-name="path0 fill" d="M14.38,43a7.15,7.15,0,0,0,7.15-7.15V28.69H14.38a7.16,7.16,0,1,0,0,14.31Z" style="fill:#4cb37d"></path><path id="path1_fill" data-name="path1 fill" d="M7.22,21.53a7.15,7.15,0,0,1,7.16-7.15h7.15V28.69H14.38A7.15,7.15,0,0,1,7.22,21.53Z" style="fill:#765fa6"></path><path id="path1_fill-2" data-name="path1 fill-2" d="M7.22,7.22A7.16,7.16,0,0,1,14.38.06h7.15V14.38H14.38A7.16,7.16,0,0,1,7.22,7.22Z" style="fill:#e95025"></path><path id="path2_fill" data-name="path2 fill" d="M21.53.1h7.16a7.16,7.16,0,1,1,0,14.32H21.53Z" style="fill:#ee7265"></path><path id="path3_fill" data-name="path3 fill" d="M35.85,21.53a7.16,7.16,0,1,1-7.16-7.15h0A7.16,7.16,0,0,1,35.85,21.53Z" style="fill:#46b7ea"></path><rect width="43.07" height="43.07" style="fill:none"></rect></g></g></svg>