<svg xmlns="http://www.w3.org/2000/svg" viewBox="0 0 43.07 43.07"><g id="Layer_2" data-name="Layer 2"><g id="Layer_1-2" data-name="Layer 1"><rect width="43.07" height="43.07" style="fill:none"></rect><path d="M4,21.47V7.94c0-.69,0-.73.74-.73h4.6c.61,0,.65,0,.65.66V29.74c0,.69,0,.69.67.69H22.39c.49,0,.52,0,.44.51-.23,1.44-.47,2.87-.71,4.31-.1.57-.16.61-.73.61H4.75C4,35.86,4,35.8,4,35Z" style="fill:#229bff"></path><path d="M31.76,17l.64-.56a8.93,8.93,0,0,1,3.89-2.35,23.15,23.15,0,0,1,2.36-.36c.33,0,.47.13.47.47q0,2.5,0,5c0,.38-.2.46-.52.45a10.4,10.4,0,0,0-3.8.46c-.55.19-1.09.42-1.63.65A1.8,1.8,0,0,0,32,22.56c0,1.12,0,2.24,0,3.36,0,3.06,0,6.13,0,9.19,0,.72,0,.75-.77.75H26.84c-.76,0-.78,0-.78-.77,0-2.6,0-5.2,0-7.81,0-4.2.08-8.4-.22-12.59,0-.54,0-.54.53-.54h4.18c.53,0,.74.12.89.62a13.67,13.67,0,0,1,.27,1.42A7.31,7.31,0,0,1,31.76,17Z" style="fill:#229bff"></path></g></g></svg>