<?xml version="1.0" encoding="UTF-8"?> <svg xmlns="http://www.w3.org/2000/svg" width="827" height="325" viewBox="0 0 827 325" fill="none"><g clip-path="url(#clip0_810_20234)"><path d="M246.57 35.61L190.17 119.99L274.55 176.39L199.45 288.75H77.38L133.78 204.37L49.4 147.97L124.5 35.61H246.58M313.21 0H105.47L0 157.79L84.38 214.19L10.74 324.36H218.48L323.95 166.57L239.57 110.17L313.21 0Z" fill="#E5202B"></path><path d="M433.47 44.8496V57.4296H416.39V109.32H400.69V57.4296H383.61V44.8496H433.48H433.47Z" fill="white"></path><path d="M497.2 44.8496V109.32H481.5V82.7796H457.07V109.32H441.37V44.8496H457.07V70.1096H481.5V44.8496H497.2V44.8496Z" fill="white"></path><path d="M524.2 57.4296V70.4696H545.23V82.5896H524.2V96.7296H547.99V109.31H508.5V44.8496H547.99V57.4296H524.2Z" fill="white"></path><path d="M397.74 192.44C394 190.91 391.02 188.64 388.79 185.64C386.55 182.64 385.38 179.03 385.25 174.8H401.96C402.2 177.19 403.03 179.01 404.44 180.26C405.85 181.52 407.68 182.14 409.95 182.14C412.22 182.14 414.11 181.6 415.46 180.53C416.81 179.46 417.48 177.97 417.48 176.08C417.48 174.49 416.94 173.17 415.87 172.13C414.8 171.09 413.48 170.23 411.92 169.56C410.36 168.89 408.14 168.12 405.26 167.26C401.1 165.97 397.7 164.69 395.07 163.4C392.44 162.11 390.17 160.22 388.27 157.71C386.37 155.2 385.42 151.92 385.42 147.88C385.42 141.88 387.59 137.18 391.94 133.78C396.29 130.38 401.95 128.68 408.93 128.68C415.91 128.68 421.76 130.38 426.1 133.78C430.45 137.18 432.77 141.91 433.08 147.97H416.09C415.97 145.89 415.2 144.25 413.79 143.06C412.38 141.87 410.58 141.27 408.37 141.27C406.47 141.27 404.94 141.78 403.78 142.79C402.62 143.8 402.03 145.26 402.03 147.15C402.03 149.23 403.01 150.86 404.97 152.02C406.93 153.18 409.99 154.44 414.15 155.79C418.31 157.2 421.7 158.55 424.3 159.83C426.9 161.12 429.15 162.98 431.05 165.43C432.95 167.88 433.9 171.03 433.9 174.89C433.9 178.75 432.97 181.9 431.1 184.9C429.23 187.9 426.52 190.29 422.97 192.06C419.42 193.84 415.22 194.72 410.39 194.72C405.56 194.72 401.45 193.96 397.72 192.42L397.74 192.44Z" fill="white"></path><path d="M459 129.619V168.189C459 172.049 459.95 175.019 461.85 177.099C463.75 179.179 466.53 180.219 470.21 180.219C473.89 180.219 476.7 179.179 478.66 177.099C480.62 175.019 481.6 172.049 481.6 168.189V129.619H497.3V168.099C497.3 173.859 496.07 178.719 493.63 182.699C491.18 186.679 487.89 189.679 483.76 191.699C479.63 193.719 475.02 194.729 469.94 194.729C464.86 194.729 460.31 193.739 456.3 191.749C452.29 189.759 449.12 186.759 446.79 182.749C444.46 178.739 443.3 173.859 443.3 168.099V129.619H459Z" fill="white"></path><path d="M556.35 166.589C558.61 169.499 559.75 172.819 559.75 176.549C559.75 181.939 557.87 186.209 554.1 189.359C550.33 192.509 545.08 194.089 538.35 194.089H508.32V129.619H537.34C543.89 129.619 549.02 131.119 552.72 134.119C556.42 137.119 558.28 141.189 558.28 146.329C558.28 150.129 557.28 153.279 555.3 155.789C553.31 158.299 550.66 160.049 547.36 161.019C551.09 161.819 554.09 163.669 556.36 166.579L556.35 166.589ZM524.02 155.709H534.31C536.88 155.709 538.86 155.139 540.23 154.009C541.61 152.879 542.3 151.209 542.3 148.999C542.3 146.789 541.61 145.109 540.23 143.949C538.85 142.789 536.88 142.209 534.31 142.209H524.02V155.709ZM541.7 179.629C543.14 178.439 543.86 176.709 543.86 174.439C543.86 172.169 543.11 170.399 541.61 169.109C540.11 167.819 538.04 167.179 535.41 167.179H524.02V181.409H535.59C538.22 181.409 540.26 180.809 541.7 179.619V179.629Z" fill="white"></path><path d="M608.97 182.71H584.91L581.05 194.1H564.61L587.94 129.63H606.12L629.45 194.1H612.83L608.97 182.71V182.71ZM604.93 170.59L596.94 146.99L589.04 170.59H604.93Z" fill="white"></path><path d="M669.4 194.089L655.99 169.749H652.22V194.089H636.52V129.619H662.88C667.96 129.619 672.29 130.509 675.88 132.279C679.46 134.059 682.14 136.489 683.92 139.579C685.69 142.669 686.58 146.119 686.58 149.909C686.58 154.199 685.37 158.019 682.95 161.389C680.53 164.759 676.96 167.149 672.25 168.549L687.13 194.079H669.41L669.4 194.089ZM652.23 158.639H661.96C664.84 158.639 667 157.939 668.43 156.529C669.87 155.119 670.59 153.129 670.59 150.559C670.59 147.989 669.87 146.179 668.43 144.769C666.99 143.359 664.83 142.659 661.96 142.659H652.23V158.639V158.639Z" fill="white"></path><path d="M754.07 194.089H738.37L712.1 154.319V194.089H696.4V129.619H712.1L738.37 169.569V129.619H754.07V194.089Z" fill="white"></path><path d="M805.6 182.71H781.54L777.68 194.1H761.24L784.57 129.63H802.75L826.08 194.1H809.46L805.6 182.71V182.71ZM801.56 170.59L793.57 146.99L785.67 170.59H801.56Z" fill="white"></path><path d="M397.74 277.209C394 275.679 391.02 273.409 388.79 270.409C386.55 267.409 385.38 263.799 385.25 259.569H401.96C402.2 261.959 403.03 263.779 404.44 265.029C405.85 266.289 407.68 266.909 409.95 266.909C412.22 266.909 414.11 266.369 415.46 265.299C416.81 264.229 417.48 262.739 417.48 260.849C417.48 259.259 416.94 257.939 415.87 256.899C414.8 255.859 413.48 254.999 411.92 254.329C410.36 253.659 408.14 252.889 405.26 252.029C401.1 250.739 397.7 249.459 395.07 248.169C392.44 246.879 390.17 244.989 388.27 242.479C386.37 239.969 385.42 236.689 385.42 232.649C385.42 226.649 387.59 221.949 391.94 218.549C396.29 215.149 401.95 213.449 408.93 213.449C415.91 213.449 421.76 215.149 426.1 218.549C430.45 221.949 432.77 226.679 433.08 232.739H416.09C415.97 230.659 415.2 229.019 413.79 227.829C412.38 226.639 410.58 226.039 408.37 226.039C406.47 226.039 404.94 226.549 403.78 227.559C402.62 228.569 402.03 230.029 402.03 231.919C402.03 233.999 403.01 235.629 404.97 236.789C406.93 237.949 409.99 239.209 414.15 240.559C418.31 241.969 421.7 243.319 424.3 244.599C426.9 245.889 429.15 247.749 431.05 250.199C432.95 252.649 433.9 255.799 433.9 259.659C433.9 263.519 432.97 266.669 431.1 269.669C429.23 272.669 426.52 275.059 422.97 276.829C419.42 278.609 415.22 279.489 410.39 279.489C405.56 279.489 401.45 278.729 397.72 277.189L397.74 277.209Z" fill="white"></path><path d="M489.95 214.399V226.979H472.87V278.869H457.17V226.979H440.09V214.399H489.96H489.95Z" fill="white"></path><path d="M513.27 214.399V252.969C513.27 256.829 514.22 259.799 516.12 261.879C518.02 263.959 520.8 264.999 524.48 264.999C528.16 264.999 530.97 263.959 532.93 261.879C534.89 259.799 535.87 256.829 535.87 252.969V214.399H551.57V252.879C551.57 258.639 550.34 263.499 547.9 267.479C545.45 271.459 542.16 274.459 538.03 276.479C533.9 278.499 529.29 279.509 524.21 279.509C519.13 279.509 514.58 278.519 510.57 276.529C506.56 274.539 503.39 271.539 501.06 267.529C498.73 263.519 497.57 258.639 497.57 252.879V214.399H513.27V214.399Z" fill="white"></path><path d="M604.56 218.439C609.64 221.129 613.57 224.909 616.36 229.779C619.15 234.649 620.54 240.269 620.54 246.629C620.54 252.989 619.15 258.539 616.36 263.439C613.57 268.339 609.62 272.129 604.51 274.829C599.4 277.519 593.47 278.869 586.74 278.869H562.59V214.399H586.74C593.54 214.399 599.47 215.749 604.56 218.439ZM599.6 260.409C602.91 257.169 604.56 252.569 604.56 246.629C604.56 240.689 602.91 236.069 599.6 232.759C596.29 229.449 591.67 227.799 585.73 227.799H578.29V265.269H585.73C591.67 265.269 596.29 263.649 599.6 260.399V260.409Z" fill="white"></path><path d="M645.06 214.399V278.869H629.36V214.399H645.06Z" fill="white"></path><path d="M670.27 275.29C665.22 272.47 661.21 268.539 658.24 263.489C655.27 258.439 653.79 252.759 653.79 246.449C653.79 240.139 655.27 234.48 658.24 229.46C661.21 224.44 665.22 220.519 670.27 217.699C675.32 214.879 680.88 213.479 686.94 213.479C693 213.479 698.56 214.889 703.61 217.699C708.66 220.519 712.64 224.44 715.55 229.46C718.46 234.48 719.91 240.139 719.91 246.449C719.91 252.759 718.44 258.429 715.5 263.489C712.56 268.539 708.58 272.48 703.56 275.29C698.54 278.11 693 279.51 686.94 279.51C680.88 279.51 675.32 278.1 670.27 275.29ZM699.29 260.04C702.38 256.61 703.93 252.079 703.93 246.449C703.93 240.819 702.38 236.209 699.29 232.809C696.2 229.409 692.08 227.71 686.94 227.71C681.8 227.71 677.59 229.389 674.5 232.759C671.41 236.129 669.86 240.689 669.86 246.439C669.86 252.189 671.41 256.679 674.5 260.079C677.59 263.479 681.74 265.179 686.94 265.179C692.14 265.179 696.2 263.47 699.29 260.04V260.04Z" fill="white"></path></g><defs><clipPath id="clip0_810_20234"><rect width="826.07" height="324.36" fill="white"></rect></clipPath></defs></svg> 