<svg xmlns="http://www.w3.org/2000/svg" viewBox="0 0 732 624"><g id="Layer_2" data-name="Layer 2"><g id="Layer_1-2" data-name="Layer 1"><rect width="732" height="624" style="fill:#fff"/><path d="M430.28,227.07a11.44,11.44,0,0,0-6.13-4.08,12.48,12.48,0,0,0-3.1-.39,13.34,13.34,0,0,0-10.28,4.93,13.3,13.3,0,0,0-10.27-4.93,12.42,12.42,0,0,0-3.1.39,11.33,11.33,0,0,0-6.12,4.08,5.62,5.62,0,0,0-.35.5c-6.13,8.87,1.84,19.1,8.33,25.14,1.67,1.55,3.41,3,5.2,4.44,1,.78,2,1.54,3.09,2.25.37.26,3.22,2,3.22,2a45.88,45.88,0,0,0,3.92-2.54C421,254.4,427.6,248.77,431,241.67,433.27,237.11,433.48,231.2,430.28,227.07Z" style="fill:#f9413e"/><path d="M410.77,267.07l-2.43-1.39c-.27-.15-.76-.43-1.43-.85v74.54H335.55V235.46H384a18.24,18.24,0,0,1,1.38-7.89H327.77V347.26h86.92V264.79c-.69.44-1.2.74-1.48.89Z" style="fill:#1d1d1f"/><path d="M383.16,299.74h-8v-8h-7.88v8h-8a8,8,0,0,1,0-16h23.86v-7.89H359.32a15.87,15.87,0,0,0,0,31.74h8v8h7.88v-8h8a8,8,0,0,1,0,16H359.32v7.89h23.86a15.88,15.88,0,1,0,0-31.75Z" style="fill:#1d1d1f"/><path d="M222.08,393.53c0-3.53,2-5.76,5.1-5.76a4.47,4.47,0,0,1,4.73,3.88H230.2a3,3,0,0,0-3-2.37c-2,0-3.33,1.67-3.33,4.25s1.29,4.25,3.34,4.25a2.87,2.87,0,0,0,3-2.14h1.72c-.42,2.3-2.17,3.65-4.74,3.65C224.06,399.29,222.08,397.08,222.08,393.53Z" style="fill:#1d1d1f"/><path d="M235.23,399.11H233.5V388h4.31c2.3,0,3.73,1.32,3.73,3.4a3.21,3.21,0,0,1-2.16,3.19l2.49,4.56h-2l-2.27-4.29h-2.38Zm0-5.69h2.42a1.87,1.87,0,0,0,2.1-2,1.92,1.92,0,0,0-2.14-2h-2.38Z" style="fill:#1d1d1f"/><path d="M250.3,399.11h-7.08V388h7.08v1.49H245v3.26H250v1.43H245v3.47h5.35Z" style="fill:#1d1d1f"/><path d="M258.33,396.09h-4.25l-1,3h-1.8l4-11.15h1.87l4,11.15h-1.83Zm-3.81-1.39h3.37l-1.66-4.89h-.05Z" style="fill:#1d1d1f"/><path d="M263.66,399.11v-9.66h-3.42V388h8.56v1.49h-3.41v9.66Z" style="fill:#1d1d1f"/><path d="M270.21,399.11V388h1.73v11.15Z" style="fill:#1d1d1f"/><path d="M274,399.11V388h1.57l5.78,8.22h.07V388h1.68v11.15h-1.56l-5.78-8.22h-.07v8.22Z" style="fill:#1d1d1f"/><path d="M290,399.29c-3.2,0-5.2-2.23-5.2-5.81s2-5.71,5.17-5.71a4.54,4.54,0,0,1,4.75,3.69h-1.78a2.94,2.94,0,0,0-3-2.18c-2.13,0-3.41,1.57-3.41,4.19s1.32,4.31,3.44,4.31a2.85,2.85,0,0,0,3.08-2.85v-.2h-2.88v-1.4h4.59v1.14C294.77,397.49,293,399.29,290,399.29Z" style="fill:#1d1d1f"/><path d="M299.69,399.11V388h4.45c2,0,3.28,1.09,3.28,2.78a2.47,2.47,0,0,1-2,2.42v.07A2.68,2.68,0,0,1,308,396c0,2-1.42,3.16-3.8,3.16Zm1.73-6.41h1.94c1.5,0,2.32-.62,2.32-1.72s-.71-1.61-2-1.61h-2.3Zm2.39,5c1.56,0,2.39-.64,2.39-1.84s-.86-1.83-2.49-1.83h-2.29v3.67Z" style="fill:#1d1d1f"/><path d="M311.2,399.11h-1.73V388h4.32c2.29,0,3.72,1.32,3.72,3.4a3.21,3.21,0,0,1-2.16,3.19l2.49,4.56h-2l-2.27-4.29H311.2Zm0-5.69h2.43a1.88,1.88,0,0,0,2.1-2,1.92,1.92,0,0,0-2.15-2H311.2Z" style="fill:#1d1d1f"/><path d="M325.44,396.09h-4.25l-1,3h-1.8l4-11.15h1.87l4,11.15h-1.83Zm-3.81-1.39H325l-1.67-4.89h0Z" style="fill:#1d1d1f"/><path d="M329.53,399.11V388h1.57l5.78,8.22h.06V388h1.68v11.15h-1.56l-5.78-8.22h-.07v8.22Z" style="fill:#1d1d1f"/><path d="M344.63,388c3.31,0,5.27,2,5.27,5.55s-1.95,5.6-5.27,5.6h-3.94V388Zm-2.21,9.65h2c2.37,0,3.67-1.45,3.67-4.08s-1.31-4.08-3.67-4.08h-2Z" style="fill:#1d1d1f"/><path d="M352.75,396.05c.16,1.1,1.21,1.77,2.69,1.77s2.43-.73,2.43-1.73-.59-1.4-2.08-1.73l-1.22-.25c-2.23-.47-3.24-1.51-3.24-3.12,0-1.91,1.68-3.22,4.05-3.22s4,1.34,4,3.28h-1.67a2.11,2.11,0,0,0-2.38-1.8c-1.31,0-2.27.63-2.27,1.65,0,.81.57,1.35,2,1.66l1.22.26c2.33.49,3.29,1.43,3.29,3.05,0,2.1-1.65,3.42-4.25,3.42s-4.19-1.26-4.3-3.24Z" style="fill:#1d1d1f"/><path d="M360.84,401.4l.69-4.08h1.69l-1.05,4.08Z" style="fill:#1d1d1f"/><path d="M370.5,399.11v-9.66h-3.42V388h8.56v1.49h-3.41v9.66Z" style="fill:#1d1d1f"/><path d="M384.51,399.11v-4.94h-5.73v4.94h-1.73V388h1.73v4.71h5.73V388h1.73v11.15Z" style="fill:#1d1d1f"/><path d="M394.55,396.09h-4.26l-1,3h-1.81l4-11.15h1.87l4,11.15h-1.84Zm-3.81-1.39h3.36l-1.66-4.89h0Z" style="fill:#1d1d1f"/><path d="M399.87,399.11v-9.66h-3.41V388H405v1.49H401.6v9.66Z" style="fill:#1d1d1f"/><path d="M413.82,388a3.5,3.5,0,0,1,3.67,3.66,3.54,3.54,0,0,1-3.73,3.68h-2.39v3.81h-1.73V388Zm-2.45,5.88h2a2.21,2.21,0,1,0,0-4.42h-2Z" style="fill:#1d1d1f"/><path d="M426.09,399.11H419V388h7.08v1.49h-5.34v3.26h5.06v1.43h-5.06v3.47h5.34Z" style="fill:#1d1d1f"/><path d="M437.93,393.53c0,3.55-2,5.76-5.23,5.76s-5.22-2.21-5.22-5.76,2-5.76,5.22-5.76S437.93,390,437.93,393.53Zm-8.68,0c0,2.6,1.33,4.24,3.45,4.24s3.45-1.64,3.45-4.24-1.33-4.24-3.45-4.24S429.25,390.93,429.25,393.53Z" style="fill:#1d1d1f"/><path d="M443.77,388a3.5,3.5,0,0,1,3.67,3.66,3.54,3.54,0,0,1-3.73,3.68h-2.39v3.81h-1.73V388Zm-2.45,5.88h2a2.22,2.22,0,1,0,0-4.42h-2Z" style="fill:#1d1d1f"/><path d="M455.89,399.11H449V388h1.73v9.65h5.2Z" style="fill:#1d1d1f"/><path d="M464.46,399.11h-7.08V388h7.08v1.49h-5.35v3.26h5.06v1.43h-5.06v3.47h5.35Z" style="fill:#1d1d1f"/><path d="M476.38,399.11h-6.92V388h1.73v9.65h5.19Z" style="fill:#e84940"/><path d="M487.46,393.53c0,3.55-2,5.76-5.23,5.76s-5.22-2.21-5.22-5.76,2-5.76,5.22-5.76S487.46,390,487.46,393.53Zm-8.68,0c0,2.6,1.33,4.24,3.45,4.24s3.45-1.64,3.45-4.24-1.33-4.24-3.45-4.24S478.78,390.93,478.78,393.53Z" style="fill:#e84940"/><path d="M491.88,399.11l-4-11.15h1.88l3,9.2h0l3.05-9.2h1.84l-4,11.15Z" style="fill:#e84940"/><path d="M506.07,399.11H499V388h7.08v1.49h-5.34v3.26h5.06v1.43h-5.06v3.47h5.34Z" style="fill:#e84940"/><path d="M507.9,398.18a1,1,0,1,1,1,1A1,1,0,0,1,507.9,398.18Z" style="fill:#e84940"/></g></g></svg>