<svg xmlns="http://www.w3.org/2000/svg" viewBox="0 0 732 624"><g id="Layer_2" data-name="Layer 2"><g id="Layer_1-2" data-name="Layer 1"><rect width="732" height="624" style="fill:#fff"/><path d="M258.59,191.44a8.19,8.19,0,0,1,8.38,6.73l11.59-2.37c-1.45-7.1-6.75-11.83-14.29-13.35l-10.62,10.61A7.32,7.32,0,0,1,258.59,191.44Z" style="fill:#1d1d1f"/><path d="M266,202.53,256,200.31c-3-.64-3.86-2.07-3.86-4a4.23,4.23,0,0,1,1.07-2.82L242,204.74c2.36,3.38,6.35,5.17,10.68,6.17l10,2.14c3.44.72,4.44,2.08,4.44,4.23,0,2.93-2.65,4.94-7.09,4.94-4.79,0-8.23-2.15-9.45-7.09l-12.16,2.36c1.28,9.38,10.16,14.53,21,14.53s19.75-5.29,19.75-15.53C279.13,208.9,274.27,204.39,266,202.53Z" style="fill:#1d1d1f"/><path d="M372.66,182.46V208.8c0,7.3-3.79,11.81-9.45,11.81-6,0-9.94-4.51-9.94-11.81V182.46H341.46V208.8c0,13.74,8.73,22.68,21.75,22.68,12.74,0,21.26-8.94,21.26-22.68V182.46Z" style="fill:#1d1d1f"/><path d="M486.59,206.47v-.29c3.22-.36,7.87-3.5,7.87-10.09,0-7.87-5.73-13.1-14.53-13.1H455.09v48H480c10.45,0,15.82-5.51,15.82-13.46C495.82,210.26,491,206.83,486.59,206.47Zm-19.69-14h10.74c3,0,5.37,1.93,5.37,4.94,0,3.22-2.29,5.37-5.8,5.37H466.9Zm11,28.92h-11V210.91h11.24c3.36,0,5.65,2,5.65,5.15S481.72,221.43,477.92,221.43Z" style="fill:#1d1d1f"/><path d="M356.92,288l-20.05,48h12.67l3.37-8.73h20.18l3.37,8.73h12.59l-20-48Zm0,29.06L363,301.34l6.15,15.75Z" style="fill:#1d1d1f"/><path d="M497.89,303.7c0-9.37-6.87-15.67-17.25-15.67H456.38v48h11.81V319.52h3.44l11.28,12.85,7.56-7.56L485.3,319C493,317.23,497.89,311.58,497.89,303.7Zm-18.53,5.94H468.19V298.12h11.17c4.22,0,6.94,2.29,6.94,5.73S483.58,309.64,479.36,309.64Z" style="fill:#1d1d1f"/><polygon points="269.94 421.69 245.67 393.06 237.82 393.06 235.87 395.02 235.87 441.02 247.68 441.02 247.68 413.25 271.94 441.02 281.67 441.02 281.67 393.06 269.94 393.06 269.94 421.69" style="fill:#1d1d1f"/><path d="M356.92,393.06l-20.05,48h12.67l3.37-8.73h20.18l2.69,7,8.85-8.85L369,393.06Zm0,29.06L363,406.38l6.15,15.74Z" style="fill:#1d1d1f"/><circle cx="475.46" cy="433.48" r="7.54" style="fill:#1d1d1f"/><line x1="191.6" y1="255.28" x2="306.83" y2="140.05" style="fill:#1d1d1f"/><rect x="167.73" y="197.39" width="162.97" height="0.56" transform="translate(-66.78 234.12) rotate(-45)" style="fill:#1d1d1f"/><line x1="163.69" y1="467.37" x2="519.22" y2="111.83" style="fill:#1d1d1f"/><rect x="90.05" y="289.32" width="502.8" height="0.56" transform="translate(-104.77 326.27) rotate(-45)" style="fill:#1d1d1f"/><line x1="335.72" y1="479.51" x2="531.37" y2="283.86" style="fill:#1d1d1f"/><rect x="295.2" y="381.41" width="276.69" height="0.56" transform="translate(-142.91 418.35) rotate(-45)" style="fill:#1d1d1f"/></g></g></svg>