<svg width="31" height="40" viewBox="0 0 31 40" fill="none" xmlns="http://www.w3.org/2000/svg">
<g clip-path="url(#clip0_204_1610)">
<path d="M25.4799 22.3001L30.2799 17.6001C30.5637 17.1607 30.7545 16.6678 30.8405 16.1519C30.9265 15.6359 30.9059 15.1078 30.7799 14.6001C30.6093 14.0743 30.2934 13.6075 29.8687 13.2536C29.444 12.8997 28.9279 12.6731 28.3799 12.6001L21.7799 11.6001C21.6261 11.5987 21.4764 11.5499 21.3511 11.4605C21.2259 11.371 21.1312 11.2452 21.0799 11.1001L18.0799 5.10013C17.8377 4.61822 17.4663 4.21312 17.0072 3.93005C16.5481 3.64697 16.0193 3.49707 15.4799 3.49707C14.9406 3.49707 14.4118 3.64697 13.9527 3.93005C13.4936 4.21312 13.1222 4.61822 12.8799 5.10013L9.87994 11.1001C9.82865 11.2452 9.73397 11.371 9.60875 11.4605C9.48353 11.5499 9.33382 11.5987 9.17994 11.6001L2.57994 12.6001C2.03752 12.6882 1.52867 12.9202 1.10651 13.272C0.684358 13.6238 0.364367 14.0825 0.17994 14.6001C-0.0107962 15.1137 -0.0461266 15.672 0.0783547 16.2055C0.202836 16.739 0.48162 17.224 0.87994 17.6001L5.67994 22.3001C5.87987 22.5178 5.98743 22.8047 5.97994 23.1001L4.87994 29.7001C4.79271 30.2472 4.85866 30.8077 5.07047 31.3196C5.28227 31.8314 5.63167 32.2747 6.07994 32.6001C6.5245 32.924 7.05201 33.1148 7.6009 33.1502C8.1498 33.1856 8.69744 33.0642 9.17994 32.8001C10.6799 32.0001 12.2799 31.2001 13.7799 30.4001C14.2405 30.0269 14.7933 29.7851 15.3799 29.7001C15.7366 29.6921 16.0866 29.7971 16.3799 30.0001C19.2333 31.4388 21.5526 33.7511 22.9999 36.6001L23.5999 38.1001C23.7999 38.6001 23.9999 39.3001 24.4999 39.4001C24.9999 39.5001 25.3999 39.1001 25.5999 38.6001C25.6466 38.0817 25.5424 37.5607 25.2999 37.1001L24.6999 35.6001C24.196 34.5771 23.5931 33.6058 22.8999 32.7001C21.9863 31.5197 20.9087 30.4759 19.6999 29.6001C19.1295 29.1083 18.4892 28.7039 17.7999 28.4001C17.1422 27.9747 16.3826 27.733 15.5999 27.7001H15.4999C14.7009 27.7447 13.9189 27.9487 13.1999 28.3001C12.0017 28.8734 10.8335 29.5076 9.69994 30.2001C9.18736 30.5064 8.65253 30.7738 8.09994 31.0001C7.94151 31.0822 7.76263 31.1165 7.58508 31.0987C7.40753 31.081 7.23897 31.012 7.09994 30.9001C6.96731 30.792 6.86198 30.6542 6.79249 30.4979C6.723 30.3415 6.6913 30.171 6.69994 30.0001L7.79994 23.4001C7.87689 22.9344 7.84468 22.4572 7.70586 22.006C7.56704 21.5548 7.32539 21.142 6.99994 20.8001L2.19994 16.1001C2.0717 15.9717 1.98429 15.8083 1.9487 15.6304C1.91312 15.4524 1.93094 15.268 1.99994 15.1001C2.07663 14.9243 2.20224 14.7743 2.36181 14.6679C2.52139 14.5616 2.70818 14.5033 2.89994 14.5001L9.49994 13.5001C9.97701 13.4572 10.4335 13.2857 10.8209 13.004C11.2083 12.7222 11.5121 12.3408 11.6999 11.9001L14.6999 5.90013C14.7896 5.75542 14.9148 5.636 15.0635 5.55319C15.2123 5.47038 15.3797 5.42691 15.5499 5.42691C15.7202 5.42691 15.8876 5.47038 16.0364 5.55319C16.1851 5.636 16.3103 5.75542 16.3999 5.90013L19.3999 11.9001C19.6004 12.3318 19.9076 12.7053 20.2926 12.9852C20.6775 13.2652 21.1275 13.4424 21.5999 13.5001L28.1999 14.5001C28.3676 14.5391 28.5254 14.6126 28.6631 14.7159C28.8008 14.8192 28.9156 14.9501 28.9999 15.1001C29.1999 15.4001 28.9999 15.8001 28.7999 16.1001L23.9999 20.8001C23.655 21.1287 23.4003 21.5403 23.2602 21.9956C23.1201 22.4509 23.0994 22.9345 23.1999 23.4001V23.8001C23.1999 23.9001 23.2999 24.1001 23.2999 24.2001C23.3234 24.3686 23.3568 24.5356 23.3999 24.7001C23.3999 24.9001 23.4999 25.1001 23.4999 25.3001C23.4999 25.5001 23.5999 25.7001 23.5999 25.9001C23.5999 26.1001 23.6999 26.3001 23.6999 26.5001C23.6999 26.7001 23.7999 26.9001 23.7999 27.1001C23.7999 27.3001 23.8999 27.4001 23.8999 27.6001C23.8999 27.8001 23.9999 27.9001 23.9999 28.1001C23.9999 28.3001 24.0999 28.4001 24.0999 28.6001C24.0999 28.8001 24.1999 28.7001 24.1999 28.8001L24.4999 29.1001C24.6966 29.1926 24.9168 29.223 25.1311 29.1873C25.3455 29.1515 25.5439 29.0514 25.6999 28.9001C25.7999 28.8001 25.8999 28.7001 25.8999 28.6001C25.9499 28.3022 25.9499 27.998 25.8999 27.7001C25.8999 27.6001 25.7999 27.4001 25.7999 27.3001C25.7999 27.2001 25.6999 26.9001 25.6999 26.7001C25.6999 26.5001 25.5999 26.3001 25.5999 26.1001C25.5999 25.9001 25.4999 25.7001 25.4999 25.4001C25.4999 25.1001 25.3999 25.0001 25.3999 24.7001C25.3999 24.4001 25.2999 24.3001 25.2999 24.1001C25.2999 23.9001 25.1999 23.8001 25.1999 23.6001C25.2149 23.4592 25.1795 23.3175 25.0999 23.2001V23.0001C25.103 22.8616 25.139 22.7258 25.2051 22.6041C25.2712 22.4823 25.3654 22.3781 25.4799 22.3001Z" fill="#A90B0B"/>
<path d="M4.67993 8C3.88881 8 3.11545 7.76541 2.45765 7.32588C1.79986 6.88635 1.28717 6.26164 0.984415 5.53074C0.681665 4.79983 0.602451 3.99556 0.756792 3.21964C0.911133 2.44372 1.2921 1.73098 1.85151 1.17157C2.41092 0.612165 3.12365 0.231202 3.89957 0.0768607C4.6755 -0.0774802 5.47976 0.00173312 6.21067 0.304484C6.94157 0.607234 7.56629 1.11992 8.00581 1.77772C8.44534 2.43552 8.67993 3.20888 8.67993 4C8.67993 5.06087 8.25851 6.07828 7.50836 6.82843C6.75821 7.57857 5.7408 8 4.67993 8ZM4.67993 2C4.28437 2 3.89769 2.1173 3.56879 2.33706C3.23989 2.55683 2.98355 2.86918 2.83217 3.23464C2.6808 3.60009 2.64119 4.00222 2.71836 4.39018C2.79553 4.77814 2.98601 5.13451 3.26572 5.41422C3.54542 5.69392 3.90179 5.8844 4.28975 5.96157C4.67771 6.03874 5.07985 5.99914 5.4453 5.84776C5.81075 5.69639 6.12311 5.44004 6.34287 5.11114C6.56264 4.78224 6.67993 4.39556 6.67993 4C6.67993 3.46957 6.46922 2.96086 6.09415 2.58579C5.71907 2.21072 5.21037 2 4.67993 2Z" fill="#A90B0B"/>
</g>
<defs>
<clipPath id="clip0_204_1610">
<rect width="30.9" height="39.45" fill="white"/>
</clipPath>
</defs>
</svg>
